<?xml version="1.0" standalone="no"?>
<!DOCTYPE svg PUBLIC "-//W3C//DTD SVG 20010904//EN"
 "http://www.w3.org/TR/2001/REC-SVG-20010904/DTD/svg10.dtd">
<svg version="1.0" xmlns="http://www.w3.org/2000/svg"
 width="790.000000pt" height="981.000000pt" viewBox="0 0 790.000000 981.000000"
 preserveAspectRatio="xMidYMid meet">

<g transform="translate(0.000000,981.000000) scale(0.100000,-0.100000)"
fill="#000000" stroke="none">
<path d="M2256 9795 c-72 -26 -136 -106 -149 -188 -11 -73 14 -125 237 -491
119 -196 219 -363 222 -370 3 -9 -3 -17 -15 -21 -32 -10 -259 -164 -347 -235
-43 -36 -126 -112 -184 -170 -391 -392 -600 -887 -600 -1420 l0 -120 2530 0
2530 0 0 125 c0 311 -60 574 -195 850 -181 372 -492 707 -868 934 -48 29 -85
56 -83 59 2 4 97 160 211 347 114 187 216 356 226 377 91 178 -74 382 -265
328 -83 -23 -111 -58 -301 -382 -139 -237 -262 -436 -300 -486 -1 -1 -22 5
-46 14 -98 35 -354 94 -499 115 -204 30 -587 33 -780 6 -195 -27 -453 -87
-570 -131 -20 -7 -98 113 -316 484 -91 157 -183 302 -202 322 -58 62 -153 83
-236 53z m2049 -1020 c638 -87 1208 -404 1545 -860 124 -168 215 -344 269
-520 31 -104 61 -247 61 -296 l0 -29 -2230 0 c-2171 0 -2230 0 -2230 19 0 38
30 189 55 275 143 492 513 909 1046 1176 252 127 588 221 894 249 132 13 452
5 590 -14z"/>
<path d="M2754 8054 c-58 -21 -120 -78 -151 -138 -38 -73 -38 -179 0 -252 69
-135 234 -192 364 -126 86 44 153 154 153 252 0 98 -67 208 -154 252 -53 27
-156 33 -212 12z"/>
<path d="M4947 8056 c-107 -40 -187 -153 -187 -265 0 -97 67 -208 154 -254 54
-28 184 -31 233 -4 55 30 103 78 131 131 37 73 37 179 0 252 -28 54 -77 103
-131 130 -43 23 -152 28 -200 10z"/>
<path d="M413 6516 c-134 -33 -272 -141 -337 -265 -70 -133 -67 -67 -64 -1404
l3 -1202 27 -68 c61 -151 175 -263 325 -320 49 -18 78 -22 183 -22 113 1 131
3 190 28 78 33 164 95 215 157 48 57 102 169 115 239 6 34 10 474 10 1225 0
1298 3 1236 -66 1367 -44 83 -147 184 -225 222 -113 55 -258 71 -376 43z m211
-288 c55 -16 138 -99 154 -154 18 -62 17 -2344 -2 -2395 -21 -58 -64 -107
-122 -135 -46 -22 -64 -26 -123 -22 -88 5 -152 42 -196 112 l-30 49 -3 1171
c-2 904 0 1181 10 1216 15 55 96 140 148 157 48 15 115 15 164 1z"/>
<path d="M7223 6516 c-134 -33 -272 -141 -337 -265 -70 -133 -67 -67 -64
-1404 l3 -1202 27 -68 c83 -208 257 -334 474 -345 162 -8 278 35 395 145 78
74 141 186 159 282 14 73 14 2369 0 2442 -36 194 -215 378 -408 418 -68 14
-183 13 -249 -3z m211 -288 c26 -8 60 -31 91 -63 32 -31 55 -65 63 -91 18 -62
17 -2344 -2 -2395 -21 -58 -64 -107 -122 -135 -46 -22 -64 -26 -123 -22 -88 5
-152 42 -196 112 l-30 49 -3 1171 c-2 904 0 1181 10 1216 15 55 96 140 148
157 48 15 115 15 164 1z"/>
<path d="M1420 4452 c0 -2016 0 -2050 20 -2128 64 -251 249 -442 495 -510 39
-10 118 -18 227 -21 l167 -6 3 -621 3 -621 31 -86 c72 -201 215 -345 416 -417
64 -23 89 -26 198 -27 105 0 136 4 195 23 182 61 317 181 401 357 62 129 64
147 64 803 l0 592 310 0 310 0 0 -591 c0 -662 1 -669 70 -814 83 -172 228
-295 415 -352 96 -29 267 -24 373 11 211 69 375 248 432 472 19 73 20 112 20
674 l0 597 163 6 c101 3 184 11 221 22 229 62 412 241 495 483 l26 77 3 2063
2 2062 -2530 0 -2530 0 0 -2048z m4770 -114 c0 -2013 2 -1915 -50 -2024 -32
-66 -119 -155 -182 -187 -78 -40 -144 -47 -425 -47 l-253 0 -2 -747 -3 -748
-32 -67 c-81 -172 -256 -253 -429 -200 -106 33 -181 101 -232 209 l-27 58 -3
747 -3 748 -599 0 -599 0 -3 -742 -3 -743 -23 -57 c-48 -120 -178 -220 -302
-234 -122 -14 -258 51 -331 156 -71 103 -69 85 -69 782 0 344 -3 672 -6 731
l-7 105 -291 4 c-323 5 -335 7 -434 75 -67 46 -127 128 -152 211 -20 63 -20
98 -20 1953 l0 1889 2240 0 2240 0 0 -1872z"/>
</g>
</svg>
