<svg id="svg" version="1.1" xmlns="http://www.w3.org/2000/svg" xmlns:xlink="http://www.w3.org/1999/xlink" width="400" height="259.5419847328244" viewBox="0, 0, 400,259.5419847328244"><g id="svgg"><path id="path0" d="M0.000 129.786 L 0.000 259.572 200.000 259.572 L 400.000 259.572 400.000 129.786 L 400.000 0.000 200.000 0.000 L 0.000 0.000 0.000 129.786 M156.617 74.516 L 157.300 75.054 157.300 110.048 C 157.300 149.525,157.477 146.243,155.354 146.243 C 153.230 146.243,153.407 149.517,153.407 110.111 L 153.407 75.179 153.971 74.579 C 154.673 73.831,155.715 73.807,156.617 74.516 M261.518 74.496 C 268.411 76.126,273.170 79.109,277.468 84.491 C 279.724 87.317,282.400 92.897,283.192 96.431 C 283.320 97.002,283.607 98.170,283.829 99.027 C 285.304 104.714,285.375 115.433,283.972 120.699 C 283.838 121.200,283.550 122.374,283.332 123.309 C 282.548 126.666,279.166 134.392,278.318 134.762 C 278.210 134.809,277.680 135.455,277.140 136.198 C 268.936 147.480,250.372 149.811,238.605 141.036 C 234.154 137.717,230.472 132.643,228.793 127.518 C 228.570 126.838,228.230 125.931,228.038 125.503 C 227.845 125.075,227.605 124.257,227.505 123.686 C 227.405 123.115,227.159 122.005,226.958 121.220 C 225.462 115.363,225.416 105.431,226.859 99.676 C 227.020 99.033,227.266 97.882,227.406 97.119 C 227.546 96.355,227.948 95.044,228.301 94.206 C 228.654 93.368,228.942 92.543,228.942 92.373 C 228.942 90.940,232.799 84.753,235.267 82.228 C 239.847 77.540,244.522 75.202,251.265 74.226 C 253.219 73.943,259.928 74.120,261.518 74.496 M80.486 74.756 C 87.825 76.311,93.376 79.308,98.832 84.662 C 100.883 86.675,101.326 87.909,100.212 88.505 C 99.232 89.029,98.629 88.774,96.881 87.095 C 91.821 82.237,85.526 78.934,79.040 77.734 C 76.437 77.253,69.959 77.162,68.332 77.584 C 67.797 77.723,66.541 78.035,65.542 78.277 C 52.186 81.519,42.044 97.642,43.596 113.165 C 43.916 116.366,45.149 121.606,45.952 123.183 C 46.233 123.734,46.463 124.344,46.463 124.538 C 46.463 125.101,49.090 129.521,50.675 131.625 C 59.200 142.938,73.915 146.196,87.769 139.838 C 93.233 137.330,100.732 129.989,102.158 125.750 C 102.252 125.472,102.602 124.659,102.936 123.945 C 103.637 122.448,104.189 120.806,104.854 118.235 C 105.454 115.913,106.570 113.024,107.218 112.114 C 107.495 111.724,107.722 111.290,107.722 111.148 C 107.722 111.006,108.006 110.557,108.353 110.150 C 108.699 109.743,109.651 108.617,110.467 107.649 C 117.387 99.438,131.706 98.136,140.843 104.885 C 143.510 106.856,147.491 111.398,148.211 113.292 C 148.350 113.656,148.717 114.508,149.027 115.186 C 150.587 118.590,151.211 124.150,150.389 127.320 C 150.167 128.177,149.899 129.403,149.795 130.045 C 148.918 135.427,142.810 142.149,136.397 144.789 C 126.248 148.968,112.750 144.812,107.962 136.034 C 107.737 135.621,107.357 134.985,107.118 134.620 C 106.236 133.274,107.090 131.538,108.634 131.538 C 109.410 131.538,110.729 132.674,111.184 133.734 C 114.131 140.601,126.127 144.743,134.199 141.680 C 138.441 140.071,144.841 134.199,144.841 131.917 C 144.841 131.776,145.183 130.918,145.602 130.010 C 147.485 125.923,146.861 118.447,144.305 114.471 C 144.037 114.054,143.246 112.843,142.706 112.022 C 138.690 105.920,130.464 103.079,121.948 104.852 C 118.189 105.634,112.521 110.012,111.173 113.173 C 110.960 113.673,110.637 114.257,110.456 114.471 C 110.112 114.878,107.982 121.261,107.982 121.885 C 107.982 122.627,105.587 127.667,104.118 130.014 C 98.887 138.375,90.531 144.051,80.960 145.744 C 78.316 146.211,69.391 146.280,67.557 145.847 C 62.657 144.689,57.873 142.807,55.134 140.957 C 54.491 140.524,53.916 140.169,53.856 140.169 C 53.508 140.169,49.302 136.759,47.686 135.167 C 35.607 123.267,33.676 103.938,43.197 90.233 C 43.780 89.394,44.423 88.460,44.627 88.157 C 45.692 86.568,50.463 82.110,52.693 80.619 C 57.663 77.296,60.984 75.976,68.008 74.533 C 70.328 74.056,77.814 74.190,80.486 74.756 M327.060 75.795 C 327.741 76.475,327.720 77.461,327.011 78.121 C 326.457 78.637,326.159 78.650,314.763 78.650 C 301.909 78.650,301.241 78.715,298.118 80.274 C 293.797 82.430,290.201 88.327,290.201 93.258 C 290.201 99.521,294.305 104.318,301.233 106.156 C 302.169 106.404,307.508 108.183,308.241 108.491 C 308.527 108.611,310.337 109.202,312.265 109.804 C 314.192 110.406,316.003 110.996,316.288 111.115 C 316.574 111.233,317.344 111.504,318.000 111.716 C 321.598 112.879,326.492 117.015,327.201 119.491 C 327.289 119.799,327.547 120.461,327.775 120.960 C 328.977 123.602,329.164 129.833,328.113 132.252 C 327.989 132.537,327.708 133.252,327.489 133.841 C 325.681 138.701,319.906 143.622,314.768 144.680 C 311.822 145.287,290.060 145.309,288.894 144.707 C 287.545 144.009,287.646 142.254,289.066 141.714 C 289.442 141.571,294.655 141.465,301.445 141.463 C 315.909 141.460,316.757 141.294,320.433 137.742 C 326.967 131.431,326.783 121.593,320.037 116.525 C 319.133 115.845,315.360 114.212,314.695 114.212 C 314.497 114.212,314.131 114.102,313.884 113.969 C 313.636 113.835,309.753 112.530,305.256 111.069 C 300.759 109.608,296.555 108.191,295.914 107.920 C 292.626 106.531,288.429 102.080,287.765 99.277 C 287.664 98.854,287.468 98.040,287.329 97.469 C 285.014 87.964,290.303 78.765,299.804 75.773 C 302.170 75.028,326.313 75.047,327.060 75.795 M252.433 77.523 C 248.374 77.927,242.797 80.127,240.411 82.266 C 237.927 84.493,236.210 86.248,236.210 86.560 C 236.210 86.688,235.986 87.034,235.713 87.329 C 234.386 88.758,231.259 96.115,230.741 99.027 C 230.639 99.598,230.300 101.467,229.987 103.180 C 229.360 106.617,229.324 114.911,229.927 117.326 C 230.088 117.969,230.353 119.195,230.517 120.052 C 232.082 128.224,236.793 136.127,241.890 139.130 C 242.496 139.487,243.364 140.016,243.819 140.304 C 244.783 140.915,248.119 142.055,250.357 142.538 C 253.609 143.239,261.250 142.773,263.147 141.758 C 263.446 141.598,263.875 141.467,264.100 141.467 C 267.990 141.467,277.162 132.090,278.322 126.928 C 278.402 126.573,278.730 125.581,279.052 124.724 C 279.373 123.868,279.726 122.700,279.835 122.128 C 280.819 117.005,281.076 115.242,281.218 112.654 C 281.508 107.360,280.714 100.764,279.265 96.431 C 278.978 95.574,278.613 94.406,278.454 93.835 C 275.560 83.454,264.227 76.349,252.433 77.523 M186.395 100.574 C 191.513 101.368,195.735 103.364,199.181 106.617 C 200.415 107.782,203.245 111.342,203.245 111.729 C 203.245 111.837,203.497 112.279,203.805 112.712 C 207.178 117.449,207.157 129.433,203.768 134.192 C 203.480 134.597,203.245 135.056,203.245 135.212 C 203.245 135.368,203.156 135.496,203.048 135.496 C 202.941 135.496,202.706 135.818,202.527 136.210 C 201.915 137.550,197.251 142.146,195.847 142.792 C 195.561 142.923,194.919 143.280,194.419 143.585 C 185.218 149.196,170.773 146.080,164.753 137.184 C 164.173 136.327,163.617 135.568,163.517 135.496 C 162.969 135.106,161.145 130.560,160.432 127.809 C 159.885 125.695,160.086 120.306,160.812 117.660 C 163.939 106.251,175.071 98.816,186.395 100.574 M222.747 100.754 C 223.700 101.852,222.927 103.569,221.479 103.569 C 220.809 103.569,218.552 104.213,217.533 104.696 C 216.245 105.305,214.615 107.361,213.980 109.177 L 213.368 110.927 213.368 128.094 C 213.368 147.277,213.468 146.257,211.580 146.257 C 209.472 146.257,209.613 147.489,209.530 128.414 C 209.443 108.250,209.501 107.706,212.113 104.428 C 214.833 101.015,221.097 98.851,222.747 100.754 M180.273 104.102 C 174.866 104.945,170.032 108.076,166.970 112.719 C 166.506 113.422,166.126 114.108,166.126 114.243 C 166.126 114.379,165.935 114.781,165.701 115.138 C 163.446 118.579,163.345 126.653,165.498 131.316 C 166.634 133.775,167.982 135.752,169.503 137.192 C 170.102 137.758,170.867 138.485,171.202 138.806 C 171.538 139.127,171.885 139.390,171.973 139.390 C 172.060 139.390,172.621 139.721,173.217 140.125 C 180.826 145.275,192.745 143.100,198.572 135.496 C 199.065 134.854,199.529 134.270,199.604 134.199 C 199.679 134.127,199.940 133.660,200.184 133.160 C 200.428 132.661,200.794 131.960,200.997 131.603 C 202.773 128.489,203.206 121.311,201.850 117.477 C 198.527 108.081,189.728 102.628,180.273 104.102 M94.345 172.860 C 94.429 172.995,94.500 174.371,94.505 175.918 C 94.514 179.334,94.646 179.644,95.743 178.833 C 97.340 177.652,100.558 177.904,102.101 179.330 C 107.293 184.133,102.084 193.439,95.912 190.387 C 94.623 189.750,94.611 189.749,94.258 190.265 C 93.819 190.906,93.281 190.934,92.970 190.331 C 92.655 189.720,92.645 173.661,92.959 173.074 C 93.220 172.586,94.093 172.451,94.345 172.860 M150.811 181.181 C 150.961 190.943,150.863 191.655,149.558 190.255 L 149.064 189.724 147.822 190.385 C 142.449 193.242,137.484 186.295,140.893 180.689 C 142.318 178.345,145.348 177.424,147.867 178.568 L 148.946 179.057 149.096 178.497 C 149.179 178.189,149.248 176.817,149.250 175.449 C 149.254 172.787,149.330 172.552,150.152 172.669 C 150.669 172.743,150.684 172.935,150.811 181.181 M232.548 172.971 C 233.115 173.654,232.814 190.368,232.232 190.480 C 231.972 190.530,231.604 190.361,231.416 190.103 C 231.090 189.658,231.010 189.669,229.778 190.340 C 225.407 192.719,220.975 188.825,221.799 183.330 C 222.396 179.348,226.115 177.020,229.571 178.464 C 230.932 179.032,231.019 178.868,231.019 175.736 C 231.019 172.939,231.092 172.696,231.960 172.636 C 232.121 172.624,232.386 172.775,232.548 172.971 M273.267 181.606 C 273.341 191.109,273.280 191.547,272.071 190.249 C 271.589 189.731,271.585 189.732,270.279 190.388 C 266.965 192.052,263.370 190.172,262.437 186.286 C 261.189 181.082,266.015 176.378,270.340 178.583 C 271.687 179.270,271.793 179.062,271.732 175.842 C 271.678 172.980,271.802 172.546,272.640 172.665 C 273.199 172.745,273.199 172.754,273.267 181.606 M282.925 172.995 C 283.201 173.328,283.316 173.325,283.848 172.976 C 284.942 172.260,285.331 172.749,286.845 176.739 L 287.179 177.619 287.652 177.035 C 287.912 176.714,288.125 176.304,288.125 176.123 C 288.125 175.457,289.437 172.853,289.853 172.693 C 290.983 172.260,291.808 178.900,290.755 179.953 C 290.214 180.493,289.682 179.926,289.664 178.788 C 289.622 176.270,289.237 176.389,288.378 179.184 C 287.801 181.063,286.687 180.388,285.480 177.430 C 285.161 176.649,285.156 176.658,285.071 178.110 C 284.975 179.752,284.504 180.433,283.842 179.883 C 283.537 179.630,283.452 178.912,283.452 176.579 L 283.452 173.597 282.815 173.757 C 280.765 174.272,280.824 174.176,280.858 176.962 C 280.875 178.355,280.882 179.648,280.873 179.836 C 280.862 180.053,280.596 180.147,280.143 180.095 L 279.429 180.013 279.355 177.167 C 279.277 174.193,279.170 173.924,278.058 173.917 C 277.362 173.912,276.986 173.184,277.509 172.853 C 278.149 172.447,282.567 172.563,282.925 172.995 M200.389 174.101 C 200.694 174.490,201.010 175.135,201.090 175.534 C 201.170 175.933,201.337 176.323,201.461 176.400 C 201.585 176.477,201.687 176.719,201.687 176.939 C 201.687 177.159,201.859 177.707,202.069 178.157 C 202.504 179.090,204.101 183.526,204.700 185.464 C 204.920 186.178,205.319 187.229,205.585 187.800 C 206.422 189.594,206.479 190.184,205.847 190.522 C 205.176 190.881,204.728 190.592,204.333 189.544 C 204.186 189.156,203.755 187.991,203.373 186.956 C 202.561 184.752,202.579 184.761,199.112 184.869 L 196.666 184.945 196.088 186.039 C 195.770 186.641,195.359 187.724,195.174 188.445 C 194.685 190.352,193.797 191.210,193.137 190.414 C 192.777 189.981,192.772 189.999,196.228 180.662 C 196.677 179.448,197.388 177.463,197.808 176.249 C 198.809 173.354,199.409 172.855,200.389 174.101 M259.589 174.465 C 260.006 175.244,259.517 176.249,258.721 176.249 C 257.972 176.249,257.495 175.795,257.495 175.081 C 257.495 173.905,259.045 173.449,259.589 174.465 M199.091 177.430 C 199.091 177.794,198.929 178.407,198.729 178.793 C 198.153 179.908,197.269 182.778,197.423 183.029 C 197.595 183.306,201.610 183.338,201.769 183.063 C 201.831 182.956,201.655 182.226,201.378 181.441 C 201.100 180.655,200.636 179.283,200.346 178.391 C 199.802 176.720,199.091 176.176,199.091 177.430 M112.732 178.495 C 114.649 179.486,114.940 180.420,115.015 185.823 C 115.083 190.729,114.960 191.165,113.736 190.363 C 113.177 189.997,113.020 190.009,111.868 190.504 C 108.358 192.014,105.248 189.776,106.159 186.396 C 106.637 184.618,108.228 183.482,110.762 183.110 C 112.942 182.790,113.238 182.598,113.044 181.634 C 112.682 179.833,110.934 179.185,108.446 179.930 C 107.608 180.181,107.381 180.172,107.200 179.877 C 106.356 178.512,110.676 177.433,112.732 178.495 M123.935 178.322 C 124.814 178.656,125.071 179.342,124.480 179.774 C 124.159 180.009,123.830 180.037,123.383 179.867 C 120.136 178.632,118.581 181.891,121.732 183.325 C 124.245 184.469,125.391 185.778,125.354 187.463 C 125.296 190.094,121.873 191.833,119.063 190.659 C 117.122 189.848,117.721 188.679,119.808 189.205 C 123.839 190.220,125.116 186.790,121.346 185.073 C 115.975 182.626,118.428 176.228,123.935 178.322 M135.063 178.420 C 136.196 178.894,137.173 180.104,137.698 181.686 C 138.620 184.461,138.093 184.806,132.932 184.811 L 129.200 184.815 129.364 185.840 C 129.800 188.562,131.067 189.392,134.635 189.288 C 137.662 189.201,138.182 190.044,135.553 190.774 C 130.505 192.176,126.869 188.728,127.560 183.195 C 128.031 179.422,131.768 177.044,135.063 178.420 M167.435 178.237 C 169.754 178.701,171.830 182.252,171.485 185.167 C 170.516 193.349,159.637 192.747,159.637 184.512 C 159.637 180.160,163.104 177.371,167.435 178.237 M182.257 178.813 C 184.014 179.927,184.260 180.766,184.316 185.848 C 184.367 190.477,184.180 191.158,183.028 190.542 C 182.504 190.261,182.479 190.059,182.479 186.091 C 182.479 180.715,181.972 179.624,179.471 179.624 C 176.990 179.624,176.330 180.918,176.188 186.064 C 176.066 190.470,175.778 191.353,174.784 190.359 C 174.056 189.630,174.044 178.931,174.772 178.484 C 175.143 178.256,175.312 178.291,175.579 178.650 C 175.931 179.123,176.543 179.246,176.873 178.910 C 177.882 177.886,180.715 177.835,182.257 178.813 M216.907 178.910 C 218.633 180.064,218.979 181.369,218.898 186.417 C 218.834 190.364,218.560 191.280,217.664 190.536 C 217.336 190.264,217.262 189.538,217.262 186.610 C 217.262 181.203,216.523 179.624,213.994 179.624 C 211.562 179.624,210.772 181.151,210.772 185.858 C 210.772 189.667,210.581 190.526,209.734 190.526 C 208.821 190.526,208.685 189.697,208.713 184.323 C 208.742 178.735,208.928 177.838,209.913 178.522 C 210.813 179.147,211.037 179.156,212.134 178.613 C 213.808 177.784,215.369 177.881,216.907 178.910 M241.946 178.485 C 242.342 178.964,241.483 179.883,240.639 179.883 C 239.328 179.883,238.554 181.762,238.521 185.027 C 238.481 188.885,238.251 190.373,237.675 190.482 C 236.830 190.644,236.765 190.245,236.681 184.426 L 236.600 178.715 237.225 178.627 C 237.607 178.573,237.944 178.705,238.090 178.966 C 238.289 179.322,238.396 179.337,238.735 179.054 C 239.876 178.102,241.403 177.831,241.946 178.485 M251.057 178.372 C 256.017 179.858,256.250 188.138,251.395 190.428 C 247.231 192.391,243.115 189.452,243.136 184.531 C 243.155 179.917,246.788 177.093,251.057 178.372 M259.286 178.683 C 259.808 179.312,259.554 190.269,259.009 190.612 C 258.696 190.810,258.464 190.791,258.166 190.544 C 257.633 190.102,257.542 179.162,258.066 178.637 C 258.477 178.226,258.920 178.243,259.286 178.683 M96.655 180.063 C 93.903 181.434,93.836 187.549,96.557 189.004 C 99.504 190.580,102.271 188.355,102.271 184.409 C 102.271 180.685,99.582 178.604,96.655 180.063 M130.884 180.337 C 128.398 182.478,128.912 183.258,132.811 183.258 C 136.132 183.258,136.284 183.170,135.753 181.561 C 135.120 179.645,132.464 178.977,130.884 180.337 M143.759 180.067 C 139.478 182.723,142.114 190.770,146.763 189.236 C 149.806 188.232,150.227 181.571,147.350 179.957 C 146.543 179.505,144.569 179.565,143.759 180.067 M163.660 180.107 C 162.418 180.874,161.989 181.517,161.709 183.031 C 160.519 189.467,167.534 192.085,169.487 185.934 C 170.726 182.033,166.837 178.144,163.660 180.107 M225.064 180.549 C 223.084 182.338,222.999 186.521,224.904 188.425 C 226.714 190.235,229.975 189.407,230.711 186.950 C 232.267 181.757,228.480 177.463,225.064 180.549 M247.333 179.917 C 245.696 180.517,244.549 183.530,245.080 185.834 C 246.169 190.551,251.859 190.627,252.832 185.937 C 253.715 181.685,250.904 178.608,247.333 179.917 M266.330 180.102 C 263.696 181.514,263.471 187.203,265.984 188.849 C 268.912 190.767,271.642 188.570,271.642 184.296 C 271.642 180.293,269.349 178.482,266.330 180.102 M110.837 184.539 C 108.688 184.972,107.982 185.676,107.982 187.382 C 107.982 188.885,108.479 189.358,110.057 189.358 C 111.988 189.358,113.173 188.086,113.173 186.015 C 113.173 184.256,112.947 184.113,110.837 184.539 " stroke="none" fill="#fbfbfb" fill-rule="evenodd"></path><path id="path1" d="M154.476 74.849 C 153.851 75.603,154.215 145.100,154.847 145.520 C 155.300 145.821,155.462 145.813,155.950 145.472 L 156.522 145.071 156.522 110.096 C 156.522 83.238,156.449 75.048,156.210 74.809 C 155.793 74.391,154.838 74.413,154.476 74.849 M249.968 74.996 C 230.091 78.967,220.549 104.306,229.879 128.340 C 238.627 150.871,270.203 151.996,280.118 130.129 C 285.762 117.682,285.591 101.374,279.691 89.417 C 274.261 78.412,262.188 72.555,249.968 74.996 M300.324 76.281 C 288.038 79.489,283.183 95.553,291.881 104.219 C 294.354 106.684,295.706 107.332,304.119 110.084 C 316.361 114.088,317.536 114.500,319.123 115.337 C 328.406 120.237,328.042 134.239,318.481 140.047 C 315.259 142.004,315.419 141.985,302.036 141.990 C 289.390 141.994,288.861 142.041,288.696 143.183 C 288.518 144.417,288.770 144.446,300.429 144.532 C 314.267 144.634,315.325 144.500,319.357 142.135 C 330.371 135.676,331.111 119.760,320.682 113.648 C 319.063 112.699,318.079 112.346,305.646 108.244 C 296.443 105.208,295.531 104.796,293.480 102.735 C 286.378 95.600,289.652 82.751,299.546 78.927 L 301.233 78.275 313.692 78.138 C 320.545 78.063,326.298 77.907,326.476 77.791 C 326.977 77.467,326.863 76.366,326.299 76.064 C 325.362 75.563,302.339 75.755,300.324 76.281 M261.646 77.488 C 274.225 80.422,281.967 92.770,281.986 109.929 C 282.009 130.688,271.899 143.417,255.419 143.380 C 239.564 143.345,229.887 132.120,228.816 112.524 C 227.768 93.346,236.892 79.150,251.655 76.991 C 253.417 76.733,259.764 77.049,261.646 77.488 M217.671 101.260 C 214.033 102.511,211.671 105.149,210.605 109.149 C 209.941 111.641,210.108 144.696,210.788 145.376 C 211.082 145.670,211.518 145.874,211.755 145.828 C 212.816 145.624,212.841 145.191,212.845 127.060 L 212.849 109.669 213.589 108.106 C 214.899 105.335,217.306 103.644,220.636 103.152 C 222.034 102.945,222.453 102.657,222.453 101.902 C 222.453 100.590,220.414 100.317,217.671 101.260 M179.705 101.218 C 161.687 104.075,154.509 126.535,167.512 139.369 C 181.731 153.403,205.602 143.361,205.607 123.345 C 205.611 109.488,193.391 99.049,179.705 101.218 M187.281 103.660 C 200.817 106.270,207.631 121.728,200.557 133.780 C 195.742 141.982,184.457 145.846,175.990 142.193 C 153.411 132.450,163.207 99.020,187.281 103.660 M69.306 144.250 C 69.306 144.455,69.647 144.581,70.199 144.581 C 71.470 144.581,71.583 144.136,70.342 144.018 C 69.623 143.949,69.306 144.020,69.306 144.250 " stroke="none" fill="#4e696d" fill-rule="evenodd"></path><path id="path2" d="M121.795 102.008 C 114.205 103.770,108.681 109.361,106.148 117.846 C 104.584 123.083,103.065 126.608,101.172 129.393 C 99.808 131.399,96.542 135.215,95.615 135.886 C 95.221 136.171,94.537 136.717,94.097 137.097 C 92.055 138.863,85.537 142.245,84.177 142.245 C 83.989 142.245,83.632 142.349,83.384 142.477 C 82.117 143.126,74.795 144.158,71.836 144.103 C 71.237 144.092,71.263 144.288,71.941 144.875 C 73.412 146.151,82.097 144.983,87.657 142.762 C 97.375 138.881,105.450 129.182,107.739 118.641 C 108.031 117.301,109.171 114.408,109.793 113.433 C 110.021 113.076,110.361 112.477,110.549 112.101 C 114.318 104.584,126.742 101.071,135.472 105.054 C 155.675 114.271,149.445 143.749,127.320 143.625 C 120.301 143.586,113.188 139.748,110.493 134.546 C 109.784 133.180,108.790 132.294,108.362 132.649 C 107.420 133.430,108.733 135.869,111.795 139.027 C 120.701 148.213,136.044 147.745,144.192 138.039 C 144.763 137.359,145.355 136.655,145.507 136.474 C 145.659 136.293,146.205 135.386,146.720 134.458 C 156.109 117.547,140.787 97.600,121.795 102.008 " stroke="none" fill="#d76369" fill-rule="evenodd"></path><path id="path3" d="M154.315 74.594 C 153.801 74.971,153.796 75.314,153.729 109.917 L 153.661 144.859 154.301 145.499 C 155.107 146.305,155.600 146.306,156.404 145.502 L 157.041 144.865 157.037 110.265 C 157.034 82.990,156.964 75.528,156.707 75.016 C 156.317 74.241,155.093 74.025,154.315 74.594 M249.448 74.760 C 239.021 76.986,232.049 83.714,228.338 95.133 C 227.703 97.087,227.425 98.330,226.570 103.050 C 226.098 105.650,226.094 114.998,226.564 117.456 C 226.754 118.456,227.079 120.133,227.285 121.183 C 231.003 140.115,247.324 150.383,264.627 144.677 C 281.442 139.132,289.460 115.679,281.991 93.890 C 277.040 79.448,263.840 71.689,249.448 74.760 M68.916 75.014 C 59.197 76.782,50.640 81.585,45.677 88.058 C 31.284 106.827,37.154 131.644,58.492 142.242 C 63.934 144.944,67.945 145.894,73.705 145.845 C 77.849 145.809,77.445 145.437,73.199 145.379 C 71.889 145.361,71.377 145.273,71.634 145.111 C 72.241 144.727,71.731 144.480,70.469 144.545 C 69.646 144.588,69.306 144.505,69.306 144.262 C 69.306 144.003,69.641 143.952,70.668 144.056 C 71.972 144.187,73.168 144.086,76.314 143.576 C 77.481 143.387,76.982 143.340,73.575 143.314 C 66.322 143.261,61.445 141.730,56.455 137.941 C 39.868 125.345,38.241 99.676,53.084 84.760 C 54.912 82.923,58.582 80.238,60.221 79.539 C 60.435 79.448,61.136 79.135,61.778 78.845 C 62.950 78.316,64.533 77.813,66.710 77.280 C 68.746 76.781,77.410 76.888,79.818 77.442 C 86.237 78.918,91.735 81.748,96.500 86.028 C 100.115 89.274,101.820 88.773,98.845 85.339 C 92.031 77.474,79.380 73.109,68.916 75.014 M156.210 74.809 C 156.449 75.048,156.522 83.238,156.522 110.096 L 156.522 145.071 155.950 145.472 C 155.462 145.813,155.300 145.821,154.847 145.520 C 154.215 145.100,153.851 75.603,154.476 74.849 C 154.838 74.413,155.793 74.391,156.210 74.809 M260.330 74.909 C 275.424 77.704,284.029 90.390,284.084 109.929 C 284.102 116.293,283.990 117.428,282.892 121.999 C 278.458 140.466,263.800 149.602,246.723 144.541 C 229.947 139.569,221.789 116.250,229.074 94.098 C 233.637 80.224,246.472 72.344,260.330 74.909 M300.029 76.032 C 288.239 79.213,283.047 94.499,290.684 103.545 C 293.426 106.794,294.373 107.243,307.712 111.620 C 318.718 115.231,319.531 115.574,321.587 117.477 C 328.152 123.556,326.079 135.719,317.723 140.138 C 315.003 141.577,315.113 141.566,301.664 141.716 L 289.117 141.856 288.621 142.469 C 288.006 143.229,288.006 143.339,288.621 144.098 L 289.117 144.711 300.496 144.785 C 314.382 144.875,315.671 144.725,319.304 142.596 C 330.809 135.853,331.632 119.705,320.797 113.310 C 319.993 112.835,317.948 111.984,316.254 111.419 C 314.560 110.853,309.727 109.251,305.516 107.858 C 297.084 105.069,295.888 104.555,294.194 102.995 C 286.627 96.019,289.778 82.914,299.935 79.122 C 301.447 78.558,301.860 78.536,313.977 78.401 C 327.350 78.251,327.320 78.254,327.320 76.946 C 327.320 75.546,327.208 75.534,313.959 75.551 C 303.072 75.565,301.566 75.617,300.029 76.032 M326.299 76.064 C 326.863 76.366,326.977 77.467,326.476 77.791 C 326.298 77.907,320.545 78.063,313.692 78.138 L 301.233 78.275 299.546 78.927 C 289.652 82.751,286.378 95.600,293.480 102.735 C 295.531 104.796,296.443 105.208,305.646 108.244 C 318.079 112.346,319.063 112.699,320.682 113.648 C 331.111 119.760,330.371 135.676,319.357 142.135 C 315.325 144.500,314.267 144.634,300.429 144.532 C 288.770 144.446,288.518 144.417,288.696 143.183 C 288.861 142.041,289.390 141.994,302.036 141.990 C 315.419 141.985,315.259 142.004,318.481 140.047 C 328.042 134.239,328.406 120.237,319.123 115.337 C 317.536 114.500,316.361 114.088,304.119 110.084 C 295.706 107.332,294.354 106.684,291.881 104.219 C 283.183 95.553,288.038 79.489,300.324 76.281 C 302.339 75.755,325.362 75.563,326.299 76.064 M251.655 76.991 C 248.116 77.509,243.930 79.095,241.142 80.974 C 224.486 92.201,224.620 128.404,241.358 139.495 C 249.742 145.050,262.569 144.783,270.342 138.891 C 286.454 126.678,285.864 91.778,269.360 80.806 C 264.825 77.791,257.288 76.167,251.655 76.991 M261.356 77.748 C 270.791 79.738,277.479 87.103,280.207 98.507 C 281.435 103.643,281.483 104.081,281.478 110.058 C 281.461 131.446,270.648 144.281,253.602 143.149 C 238.354 142.135,229.334 129.884,229.334 110.188 C 229.334 90.891,237.407 79.378,252.433 77.244 C 253.917 77.034,259.451 77.346,261.356 77.748 M219.492 100.479 C 215.946 100.884,212.146 103.873,210.739 107.364 L 210.123 108.890 209.994 125.815 C 209.842 145.616,209.829 145.240,210.666 145.789 C 211.494 146.331,212.536 146.054,212.858 145.206 C 213.010 144.807,213.108 137.800,213.108 127.443 C 213.108 110.648,213.118 110.310,213.660 108.835 C 214.749 105.868,218.349 103.310,221.436 103.310 C 222.532 103.310,223.216 102.211,222.697 101.286 C 222.229 100.454,221.444 100.256,219.492 100.479 M179.364 100.878 C 174.842 101.718,170.114 104.275,166.869 107.635 C 165.583 108.967,163.011 112.385,163.011 112.762 C 163.011 112.838,162.733 113.516,162.392 114.269 C 153.332 134.322,176.198 154.325,195.078 142.863 C 212.158 132.494,208.499 106.544,189.228 101.361 C 187.583 100.919,180.906 100.592,179.364 100.878 M222.141 101.025 C 223.048 101.932,222.366 102.896,220.636 103.152 C 217.306 103.644,214.899 105.335,213.589 108.106 L 212.849 109.669 212.845 127.060 C 212.841 145.191,212.816 145.624,211.755 145.828 C 210.224 146.123,210.253 146.469,210.256 127.644 C 210.259 109.487,210.267 109.364,211.479 106.683 C 213.223 102.823,220.225 99.109,222.141 101.025 M189.200 101.736 C 203.961 105.566,210.457 123.423,201.736 136.195 C 192.924 149.101,173.258 148.981,164.685 135.969 C 153.224 118.572,169.030 96.501,189.200 101.736 M178.881 103.735 C 159.499 107.937,157.522 134.224,175.990 142.193 C 184.457 145.846,195.742 141.982,200.557 133.780 C 209.518 118.513,196.154 99.989,178.881 103.735 M186.650 103.849 C 193.063 104.844,199.885 110.428,201.688 116.158 C 201.867 116.729,202.108 117.316,202.222 117.461 C 203.264 118.787,203.180 126.419,202.089 129.656 C 197.433 143.465,179.780 147.772,169.506 137.605 C 155.677 123.922,167.389 100.861,186.650 103.849 M93.336 173.564 C 92.823 174.902,93.314 190.624,93.832 189.409 C 93.985 189.049,94.204 188.980,94.784 189.107 L 95.537 189.272 94.894 188.325 C 93.702 186.568,93.688 182.799,94.868 180.931 L 95.478 179.964 94.851 180.083 C 94.339 180.181,94.217 180.091,94.185 179.589 C 94.163 179.251,94.118 178.858,94.085 178.715 C 94.052 178.572,94.011 177.258,93.995 175.795 C 93.967 173.323,93.733 172.530,93.336 173.564 M149.758 173.459 C 149.749 173.637,149.756 175.030,149.771 176.553 C 149.805 179.757,149.503 180.281,148.168 179.330 C 144.895 177.000,140.428 180.040,140.428 184.599 C 140.428 189.030,144.760 192.095,147.817 189.825 C 148.320 189.451,148.308 189.441,147.567 189.613 C 145.023 190.201,142.904 189.692,142.138 188.311 C 141.983 188.031,141.652 187.492,141.402 187.112 C 138.799 183.158,144.327 177.023,148.017 179.771 C 149.675 181.005,150.356 185.673,149.192 187.832 C 148.724 188.702,148.807 188.968,149.548 188.968 C 149.838 188.968,149.964 189.104,149.880 189.324 C 149.804 189.520,149.925 189.750,150.147 189.835 C 150.508 189.974,150.552 189.085,150.552 181.562 C 150.552 174.244,150.500 173.134,150.162 173.134 C 149.948 173.134,149.766 173.280,149.758 173.459 M272.464 173.307 C 272.369 173.403,272.291 174.695,272.291 176.180 C 272.291 178.922,272.054 179.883,271.377 179.883 C 271.077 179.883,271.111 180.094,271.547 180.930 C 272.609 182.969,272.446 186.773,271.222 188.492 L 270.703 189.221 271.459 189.070 C 272.011 188.959,272.259 189.030,272.375 189.333 C 272.846 190.561,272.955 188.987,272.912 181.555 C 272.866 173.601,272.830 172.941,272.464 173.307 M279.527 173.666 C 280.002 174.061,280.227 174.112,280.501 173.885 C 281.106 173.383,280.898 173.134,279.883 173.143 L 278.910 173.152 279.527 173.666 M284.231 174.157 C 284.231 175.000,284.646 175.419,285.065 175.000 C 285.435 174.629,285.089 173.394,284.615 173.394 C 284.363 173.394,284.231 173.656,284.231 174.157 M289.544 173.939 C 289.351 174.548,289.744 175.104,290.179 174.836 C 290.334 174.740,290.461 174.376,290.461 174.028 C 290.461 173.243,289.786 173.178,289.544 173.939 M199.269 174.292 C 199.028 174.532,198.832 174.945,198.832 175.208 C 198.832 175.472,198.540 176.269,198.183 176.979 C 197.826 177.690,197.534 178.494,197.534 178.766 C 197.534 179.038,197.427 179.371,197.297 179.507 C 197.166 179.642,196.824 180.454,196.537 181.311 C 196.249 182.167,195.772 183.509,195.476 184.292 C 195.180 185.075,194.938 185.918,194.938 186.165 C 194.938 186.412,194.646 187.137,194.289 187.776 C 193.600 189.011,193.446 189.855,193.940 189.690 C 194.104 189.636,194.379 189.071,194.550 188.436 C 195.490 184.948,196.060 184.403,198.702 184.459 C 203.391 184.558,202.950 184.464,203.427 185.464 C 203.943 186.546,204.366 186.666,204.115 185.659 C 203.908 184.830,202.566 181.035,202.209 180.273 C 202.076 179.987,201.779 179.082,201.549 178.261 C 201.319 177.440,200.964 176.602,200.760 176.398 C 200.556 176.194,200.389 175.749,200.389 175.409 C 200.389 174.346,199.801 173.760,199.269 174.292 M258.113 174.809 C 257.932 175.280,258.195 175.730,258.651 175.730 C 259.044 175.730,259.388 175.024,259.168 174.668 C 258.941 174.301,258.274 174.390,258.113 174.809 M200.649 177.677 C 200.985 178.748,201.356 179.624,201.473 179.624 C 201.591 179.624,201.687 179.828,201.686 180.078 C 201.685 180.328,201.881 181.080,202.121 181.749 C 202.769 183.557,202.482 183.777,199.481 183.777 C 196.337 183.777,196.285 183.708,197.296 180.902 C 197.730 179.699,198.276 178.131,198.510 177.417 C 199.278 175.078,199.856 175.148,200.649 177.677 M214.276 178.473 C 214.134 178.510,213.696 178.611,213.303 178.697 C 212.126 178.957,212.497 179.296,213.822 179.173 C 216.619 178.913,217.745 180.813,217.777 185.853 C 217.791 187.966,217.872 188.709,218.055 188.395 C 218.450 187.718,218.219 181.471,217.765 180.555 C 217.190 179.393,215.233 178.225,214.276 178.473 M287.281 178.532 C 286.768 178.635,286.727 178.804,287.079 179.362 C 287.262 179.651,287.399 179.674,287.619 179.454 C 288.041 179.033,287.818 178.424,287.281 178.532 M96.626 178.998 C 96.162 179.235,95.782 179.534,95.782 179.663 C 95.782 179.791,96.127 179.718,96.548 179.501 C 100.921 177.239,105.067 184.007,101.820 188.105 C 100.370 189.935,99.359 190.210,96.301 189.608 L 95.393 189.430 96.042 189.911 C 99.398 192.398,104.580 187.747,103.555 183.168 C 102.750 179.567,99.428 177.569,96.626 178.998 M108.566 178.853 C 107.725 179.191,107.804 179.678,108.648 179.358 C 110.953 178.481,113.692 179.749,113.692 181.694 C 113.692 182.888,113.316 183.258,112.098 183.258 C 111.564 183.258,111.050 183.382,110.956 183.535 C 110.862 183.687,110.635 183.755,110.452 183.685 C 110.082 183.542,107.809 184.619,107.203 185.224 C 106.487 185.938,106.670 189.146,107.463 189.763 C 108.531 190.594,111.616 190.768,111.616 189.997 C 111.616 189.867,111.287 189.826,110.885 189.906 C 107.378 190.608,105.851 186.172,109.039 184.546 C 110.416 183.843,113.123 183.781,113.605 184.440 C 114.286 185.371,113.500 188.968,112.616 188.968 C 112.477 188.968,112.429 189.074,112.509 189.203 C 112.589 189.333,112.875 189.381,113.144 189.311 C 113.414 189.240,113.712 189.310,113.808 189.465 C 114.720 190.940,114.820 182.002,113.909 180.382 C 113.024 178.806,110.488 178.081,108.566 178.853 M120.571 178.831 C 119.497 179.270,119.014 180.125,119.014 181.586 C 119.014 183.162,119.188 183.372,121.414 184.466 C 125.752 186.597,124.630 190.927,120.039 189.771 C 118.685 189.430,118.546 189.459,118.888 190.014 C 119.731 191.377,124.073 190.089,124.558 188.333 C 125.083 186.432,123.234 183.777,121.386 183.777 C 121.045 183.777,119.143 181.884,119.143 181.544 C 119.143 180.042,120.712 178.979,122.636 179.178 C 124.001 179.319,124.555 179.085,123.665 178.743 C 123.090 178.522,121.193 178.576,120.571 178.831 M131.427 178.753 C 131.116 178.821,130.707 179.065,130.519 179.295 C 130.214 179.666,130.248 179.690,130.824 179.507 C 133.269 178.730,135.431 179.380,136.154 181.112 C 136.374 181.639,136.671 182.143,136.813 182.231 C 136.955 182.319,136.997 182.584,136.906 182.821 C 136.435 184.048,128.762 184.017,128.739 182.788 C 128.732 182.404,128.683 182.412,128.350 182.853 C 127.461 184.028,128.300 188.023,129.700 189.283 C 131.196 190.628,135.676 191.006,136.129 189.825 C 136.247 189.518,136.114 189.484,135.431 189.644 C 133.086 190.195,130.800 189.589,129.695 188.125 C 127.275 184.918,129.293 183.628,135.756 184.252 C 137.296 184.400,137.586 183.793,137.030 181.583 C 136.454 179.297,134.186 178.151,131.427 178.753 M163.991 178.829 C 159.463 180.281,158.962 187.791,163.246 190.024 C 167.154 192.061,171.714 188.019,170.793 183.336 C 170.086 179.745,167.167 177.811,163.991 178.829 M178.410 178.766 C 177.682 178.908,177.031 179.624,177.630 179.624 C 177.853 179.624,178.108 179.507,178.196 179.364 C 178.481 178.904,180.429 179.078,181.348 179.647 C 182.740 180.507,182.857 180.926,182.998 185.573 C 183.092 188.657,183.218 189.864,183.452 189.942 C 183.862 190.078,183.912 182.845,183.511 181.401 C 182.927 179.300,180.940 178.273,178.410 178.766 M225.178 179.107 C 222.775 180.312,221.286 186.027,222.909 187.816 C 223.160 188.093,223.560 188.623,223.798 188.994 C 224.714 190.422,227.255 190.950,229.063 190.088 C 230.375 189.463,230.197 189.172,228.816 189.684 C 224.915 191.130,222.025 187.229,223.339 182.291 C 224.417 178.242,229.683 177.927,231.295 181.814 C 231.971 183.445,232.317 183.456,232.317 181.847 C 232.317 179.661,232.087 179.073,231.407 179.519 C 230.864 179.874,230.737 179.852,229.843 179.246 C 228.607 178.407,226.687 178.350,225.178 179.107 M239.902 178.989 C 239.585 179.212,239.325 179.498,239.325 179.625 C 239.325 179.950,241.221 179.259,241.344 178.889 C 241.489 178.452,240.579 178.515,239.902 178.989 M246.982 178.954 C 243.833 180.364,242.821 184.674,244.754 188.437 C 246.572 191.977,253.921 190.374,253.847 186.454 C 253.835 185.785,253.783 185.826,253.228 186.943 C 250.018 193.410,241.964 188.302,244.934 181.684 C 246.795 177.538,253.602 178.964,253.602 183.499 C 253.602 183.778,253.734 184.087,253.896 184.187 C 254.465 184.539,253.866 181.379,253.196 180.494 C 251.938 178.832,248.924 178.085,246.982 178.954 M266.450 178.747 C 265.633 178.933,263.801 180.718,263.620 181.506 C 263.388 182.511,263.761 182.391,264.374 181.262 C 265.363 179.439,267.703 178.731,270.214 179.494 C 270.834 179.683,270.843 179.670,270.417 179.221 C 269.972 178.751,267.653 178.474,266.450 178.747 M167.793 179.728 C 172.459 182.462,169.855 190.899,164.698 189.755 C 161.653 189.078,160.057 185.117,161.451 181.692 C 162.379 179.409,165.566 178.423,167.793 179.728 M174.827 179.633 C 174.919 179.781,174.980 182.117,174.962 184.824 C 174.942 188.074,175.023 189.747,175.201 189.747 C 175.374 189.747,175.470 188.448,175.470 186.100 C 175.470 182.985,175.546 182.297,175.990 181.379 C 176.275 180.788,176.509 180.268,176.509 180.224 C 176.509 180.179,176.275 180.143,175.990 180.143 C 175.701 180.143,175.470 179.970,175.470 179.753 C 175.470 179.539,175.288 179.364,175.066 179.364 C 174.843 179.364,174.736 179.485,174.827 179.633 M209.489 181.311 L 209.488 183.387 210.130 182.137 C 210.862 180.712,210.938 180.143,210.396 180.143 C 210.189 180.143,209.900 179.938,209.755 179.689 C 209.559 179.353,209.490 179.776,209.489 181.311 M258.333 184.556 C 258.374 187.549,258.508 189.775,258.650 189.812 C 258.799 189.851,258.902 187.802,258.910 184.620 C 258.920 180.536,258.849 179.364,258.593 179.364 C 258.335 179.364,258.278 180.493,258.333 184.556 M129.144 180.649 C 128.926 181.070,128.750 181.567,128.753 181.752 C 128.760 182.166,129.712 180.968,129.877 180.337 C 130.070 179.605,129.574 179.816,129.144 180.649 M237.422 180.316 C 237.132 180.605,237.217 185.125,237.508 184.945 C 237.651 184.857,237.768 184.438,237.768 184.015 C 237.768 183.591,238.001 182.580,238.287 181.768 C 238.572 180.955,238.806 180.257,238.806 180.217 C 238.806 180.063,237.587 180.150,237.422 180.316 M263.109 183.479 C 262.018 187.870,265.970 191.798,269.714 190.045 C 270.992 189.446,270.755 189.344,269.071 189.768 C 266.052 190.528,263.789 188.369,263.472 184.426 C 263.341 182.794,263.304 182.697,263.109 183.479 M231.821 185.626 C 231.808 185.857,231.554 186.597,231.257 187.270 C 230.959 187.942,230.755 188.512,230.802 188.536 C 230.850 188.559,231.145 188.722,231.458 188.896 C 232.160 189.288,232.541 187.633,232.102 186.102 C 231.960 185.608,231.834 185.394,231.821 185.626 M204.551 187.853 C 204.540 188.568,205.063 189.747,205.391 189.747 C 205.526 189.747,205.565 189.562,205.479 189.336 C 205.392 189.111,205.321 188.782,205.321 188.607 C 205.321 188.432,205.150 188.062,204.940 187.785 C 204.568 187.293,204.559 187.294,204.551 187.853 " stroke="none" fill="#aeb6b8" fill-rule="evenodd"></path><path id="path4" d="M153.971 74.579 L 153.407 75.179 153.407 110.111 C 153.407 149.517,153.230 146.243,155.354 146.243 C 157.477 146.243,157.300 149.522,157.300 110.070 C 157.300 75.199,157.299 75.095,156.771 74.618 C 156.243 74.140,156.243 74.141,156.640 74.902 C 156.991 75.577,157.038 79.679,157.039 110.265 L 157.041 144.865 156.404 145.502 C 155.600 146.306,155.107 146.305,154.301 145.499 L 153.661 144.859 153.729 109.951 C 153.779 83.939,153.873 74.966,154.097 74.742 C 154.262 74.577,154.788 74.349,155.265 74.236 L 156.132 74.031 155.334 74.005 C 154.811 73.987,154.341 74.185,153.971 74.579 M254.066 74.170 C 254.964 74.221,256.366 74.221,257.181 74.169 C 257.996 74.118,257.262 74.077,255.548 74.077 C 253.835 74.078,253.168 74.120,254.066 74.170 M68.008 74.533 C 60.984 75.976,57.663 77.296,52.693 80.619 C 50.463 82.110,45.692 86.568,44.627 88.157 C 44.423 88.460,43.780 89.394,43.197 90.233 C 39.980 94.864,37.990 100.418,37.388 106.446 C 36.120 119.129,41.309 130.816,51.669 138.606 C 52.812 139.466,53.796 140.169,53.856 140.169 C 53.916 140.169,54.491 140.524,55.134 140.957 C 56.979 142.203,61.431 144.186,63.984 144.901 C 68.154 146.068,68.702 146.140,73.008 146.091 L 77.223 146.043 72.810 145.862 C 66.894 145.619,63.630 144.793,58.492 142.242 C 37.154 131.644,31.284 106.827,45.677 88.058 C 52.734 78.855,67.556 72.994,78.929 74.909 C 86.931 76.257,94.337 80.135,98.845 85.339 C 101.820 88.773,100.115 89.274,96.500 86.028 C 91.735 81.748,86.237 78.918,79.818 77.442 C 77.410 76.888,68.746 76.781,66.710 77.280 C 64.533 77.813,62.950 78.316,61.778 78.845 C 61.136 79.135,60.435 79.448,60.221 79.539 C 58.582 80.238,54.912 82.923,53.084 84.760 C 42.579 95.317,39.899 111.499,46.367 125.324 C 51.564 136.434,61.607 143.413,72.148 143.238 L 74.886 143.193 71.901 143.019 C 61.595 142.420,53.487 137.121,47.844 127.296 C 47.085 125.973,46.463 124.733,46.463 124.538 C 46.463 124.344,46.233 123.734,45.952 123.183 C 45.149 121.606,43.916 116.366,43.596 113.165 C 42.044 97.642,52.186 81.519,65.542 78.277 C 66.541 78.035,67.797 77.723,68.332 77.584 C 69.959 77.162,76.437 77.253,79.040 77.734 C 85.526 78.934,91.821 82.237,96.881 87.095 C 98.629 88.774,99.232 89.029,100.212 88.505 C 103.136 86.940,92.370 78.115,84.731 75.816 C 79.734 74.311,71.981 73.717,68.008 74.533 M249.578 74.497 L 249.059 74.720 249.578 74.708 C 249.864 74.701,250.448 74.606,250.876 74.497 L 251.655 74.299 250.876 74.286 C 250.448 74.280,249.864 74.374,249.578 74.497 M259.701 74.497 C 260.867 74.794,261.949 74.794,261.259 74.497 C 260.973 74.374,260.331 74.280,259.831 74.286 L 258.923 74.299 259.701 74.497 M246.204 75.257 C 240.362 77.338,235.454 81.117,232.187 86.049 C 230.746 88.224,228.934 91.801,228.954 92.430 C 228.960 92.632,229.574 91.570,230.317 90.071 C 234.259 82.118,239.946 77.251,247.761 75.141 C 248.771 74.869,248.886 74.791,248.280 74.793 C 247.852 74.794,246.918 75.003,246.204 75.257 M263.076 75.141 C 275.953 78.618,283.776 90.584,284.652 108.144 C 285.634 127.815,275.953 142.926,260.569 145.735 C 259.521 145.926,258.979 146.095,259.364 146.111 C 264.489 146.316,273.393 141.351,277.140 136.198 C 277.680 135.455,278.210 134.809,278.318 134.762 C 279.166 134.392,282.548 126.666,283.332 123.309 C 283.550 122.374,283.838 121.200,283.972 120.699 C 285.375 115.433,285.304 104.714,283.829 99.027 C 283.607 98.170,283.320 97.002,283.192 96.431 C 282.400 92.897,279.724 87.317,277.468 84.491 C 273.484 79.502,266.020 74.679,262.428 74.774 C 262.018 74.785,262.258 74.920,263.076 75.141 M299.804 75.773 C 290.303 78.765,285.014 87.964,287.329 97.469 C 287.468 98.040,287.664 98.854,287.765 99.277 C 288.429 102.080,292.626 106.531,295.914 107.920 C 296.555 108.191,300.759 109.608,305.256 111.069 C 309.753 112.530,313.636 113.835,313.884 113.969 C 314.131 114.102,314.497 114.212,314.695 114.212 C 316.031 114.212,319.989 116.292,321.608 117.846 C 325.203 121.297,326.260 127.971,323.959 132.698 C 321.698 137.344,318.753 139.975,314.567 141.089 C 313.458 141.385,310.780 141.461,301.445 141.463 C 294.655 141.465,289.442 141.571,289.066 141.714 C 287.646 142.254,287.545 144.009,288.894 144.707 C 290.060 145.309,311.822 145.287,314.768 144.680 C 319.906 143.622,325.681 138.701,327.489 133.841 C 327.708 133.252,327.989 132.537,328.113 132.252 C 328.777 130.723,329.053 126.822,328.646 124.724 C 328.497 123.961,328.413 124.684,328.328 127.450 C 328.160 132.864,326.634 136.242,322.662 139.989 C 317.825 144.553,316.277 144.888,300.496 144.785 L 289.117 144.711 288.621 144.098 C 288.006 143.339,288.006 143.229,288.621 142.469 L 289.117 141.856 301.664 141.716 C 315.113 141.566,315.003 141.577,317.723 140.138 C 326.079 135.719,328.152 123.556,321.587 117.477 C 319.531 115.574,318.718 115.231,307.712 111.620 C 296.465 107.929,295.303 107.478,293.345 106.036 C 283.642 98.893,285.387 83.788,296.650 77.431 C 299.894 75.600,300.490 75.535,314.071 75.535 C 327.194 75.535,327.320 75.549,327.320 76.946 C 327.320 78.254,327.350 78.251,313.977 78.401 C 301.860 78.536,301.447 78.558,299.935 79.122 C 294.299 81.226,290.242 86.743,290.069 92.537 L 289.999 94.873 290.201 92.797 C 290.475 89.993,290.562 89.696,292.005 86.631 C 293.085 84.337,295.954 81.354,298.118 80.274 C 301.241 78.715,301.909 78.650,314.763 78.650 C 326.159 78.650,326.457 78.637,327.011 78.121 C 327.720 77.461,327.741 76.475,327.060 75.795 C 326.313 75.047,302.170 75.028,299.804 75.773 M252.433 77.244 C 247.385 77.961,243.824 79.332,240.493 81.841 C 225.393 93.213,225.393 127.108,240.493 138.535 C 241.846 139.559,244.667 141.141,244.416 140.735 C 244.309 140.562,243.733 140.172,243.136 139.869 C 237.236 136.867,232.233 129.010,230.517 120.052 C 230.353 119.195,230.088 117.969,229.927 117.326 C 229.324 114.911,229.360 106.617,229.987 103.180 C 230.300 101.467,230.639 99.598,230.741 99.027 C 231.259 96.115,234.386 88.758,235.713 87.329 C 235.986 87.034,236.210 86.688,236.210 86.560 C 236.210 86.248,237.927 84.493,240.411 82.266 C 245.373 77.818,256.453 76.116,263.725 78.684 C 270.413 81.047,276.689 87.501,278.454 93.835 C 278.613 94.406,278.978 95.574,279.265 96.431 C 280.714 100.764,281.508 107.360,281.218 112.654 C 281.076 115.242,280.819 117.005,279.835 122.128 C 279.726 122.700,279.373 123.868,279.052 124.724 C 278.730 125.581,278.402 126.573,278.322 126.928 C 277.162 132.087,267.990 141.467,264.104 141.467 C 263.881 141.467,263.384 141.623,262.998 141.814 C 262.072 142.274,259.272 142.756,256.067 143.007 C 254.120 143.160,253.860 143.217,255.029 143.233 C 271.361 143.467,281.461 130.799,281.478 110.058 C 281.483 104.081,281.435 103.643,280.207 98.507 C 276.715 83.908,265.574 75.378,252.433 77.244 M228.217 94.413 C 227.892 95.237,227.565 96.379,227.490 96.950 C 227.395 97.676,227.596 97.299,228.162 95.693 C 229.077 93.093,229.119 92.128,228.217 94.413 M290.215 95.674 C 290.141 98.487,293.384 103.062,296.611 104.697 C 298.029 105.415,308.147 108.811,308.329 108.630 C 308.393 108.566,308.283 108.460,308.084 108.395 C 307.885 108.330,306.437 107.846,304.867 107.319 C 303.297 106.793,301.661 106.269,301.233 106.156 C 295.655 104.676,292.515 102.000,290.993 97.427 C 290.573 96.165,290.223 95.377,290.215 95.674 M226.999 99.061 C 226.916 99.470,226.742 100.156,226.612 100.584 C 225.839 103.142,225.533 112.747,226.101 116.628 C 226.463 119.107,227.143 122.258,227.315 122.258 C 227.465 122.258,227.388 121.750,226.701 118.235 C 226.359 116.481,226.242 114.540,226.231 110.448 C 226.217 105.283,226.362 103.666,227.177 99.856 C 227.323 99.170,227.377 98.543,227.297 98.463 C 227.216 98.382,227.082 98.651,226.999 99.061 M181.051 100.454 C 180.373 100.576,181.138 100.643,183.258 100.647 C 185.618 100.652,186.219 100.596,185.464 100.439 C 184.246 100.187,182.509 100.193,181.051 100.454 M217.910 100.498 C 213.447 102.002,210.382 105.522,209.698 109.929 C 209.562 110.809,209.489 118.842,209.530 128.414 C 209.613 147.489,209.472 146.257,211.580 146.257 C 213.468 146.257,213.368 147.277,213.368 128.094 L 213.368 110.927 213.980 109.177 C 214.615 107.361,216.245 105.305,217.533 104.696 C 218.552 104.213,220.809 103.569,221.479 103.569 C 222.283 103.569,223.232 102.671,223.232 101.912 C 223.232 101.086,222.390 100.189,221.644 100.221 L 221.025 100.246 221.670 100.426 C 223.359 100.896,223.163 103.310,221.436 103.310 C 218.349 103.310,214.749 105.868,213.660 108.835 C 213.118 110.310,213.108 110.648,213.108 127.443 C 213.108 137.800,213.010 144.807,212.858 145.206 C 212.536 146.054,211.494 146.331,210.666 145.789 C 209.829 145.240,209.842 145.616,209.994 125.815 L 210.123 108.890 210.739 107.364 C 212.139 103.890,215.910 100.915,219.492 100.458 C 220.925 100.276,220.949 100.262,219.857 100.249 C 219.215 100.242,218.339 100.354,217.910 100.498 M177.417 101.033 C 174.899 101.885,174.412 102.078,174.516 102.182 C 174.579 102.245,175.375 102.047,176.284 101.740 C 177.193 101.434,178.404 101.091,178.975 100.977 L 180.013 100.771 179.104 100.770 C 178.605 100.769,177.846 100.888,177.417 101.033 M187.670 101.020 C 188.799 101.262,190.620 101.770,191.694 102.141 C 192.115 102.286,192.139 102.267,191.823 102.036 C 191.223 101.596,188.093 100.711,187.253 100.742 C 186.662 100.764,186.750 100.823,187.670 101.020 M172.832 102.777 C 163.664 107.691,158.121 118.881,160.432 127.809 C 161.145 130.560,162.969 135.106,163.517 135.496 C 163.617 135.568,164.173 136.327,164.753 137.184 C 168.512 142.739,175.968 146.458,183.128 146.350 L 186.243 146.303 182.738 146.126 C 166.148 145.288,155.740 128.992,162.392 114.269 C 162.733 113.516,163.011 112.838,163.011 112.762 C 163.011 111.040,171.733 102.790,173.554 102.790 C 173.735 102.790,173.955 102.674,174.043 102.531 C 174.288 102.135,173.873 102.219,172.832 102.777 M193.849 103.165 C 212.667 113.306,208.929 140.786,188.060 145.727 C 187.203 145.930,186.736 146.101,187.021 146.108 C 188.435 146.142,192.500 144.755,194.419 143.585 C 194.919 143.280,195.561 142.923,195.847 142.792 C 197.251 142.146,201.915 137.550,202.527 136.210 C 202.706 135.818,202.941 135.496,203.048 135.496 C 203.156 135.496,203.245 135.368,203.245 135.212 C 203.245 135.056,203.480 134.597,203.768 134.192 C 207.157 129.433,207.178 117.449,203.805 112.712 C 203.497 112.279,203.245 111.837,203.245 111.729 C 203.245 110.200,197.443 104.716,193.957 102.949 C 192.011 101.963,191.928 102.130,193.849 103.165 M180.022 103.858 C 165.906 105.914,158.717 123.109,167.079 134.814 C 170.242 139.241,176.651 143.120,180.610 143.003 C 180.995 142.992,180.552 142.821,179.624 142.623 C 177.402 142.149,174.568 141.045,173.217 140.127 C 172.621 139.722,172.060 139.390,171.973 139.390 C 171.885 139.390,171.538 139.127,171.202 138.806 C 170.867 138.485,170.102 137.758,169.503 137.192 C 165.565 133.465,163.274 126.922,163.981 121.417 C 164.298 118.951,165.084 116.079,165.701 115.138 C 165.935 114.781,166.126 114.379,166.126 114.243 C 166.126 114.108,166.506 113.422,166.970 112.719 C 175.060 100.455,193.190 101.137,200.319 113.973 C 202.676 118.218,203.417 124.922,201.973 128.949 C 201.652 129.845,201.436 130.720,201.494 130.894 C 201.552 131.068,201.864 130.393,202.188 129.395 C 203.175 126.349,203.197 118.702,202.222 117.461 C 202.108 117.316,201.867 116.729,201.688 116.158 C 199.121 108.001,189.414 102.490,180.022 103.858 M308.652 108.861 C 308.889 109.081,313.075 110.373,313.186 110.261 C 313.252 110.196,312.363 109.831,311.210 109.451 C 309.283 108.816,308.380 108.608,308.652 108.861 M313.563 110.426 C 313.563 110.612,317.741 111.937,317.882 111.796 C 317.955 111.723,317.743 111.587,317.411 111.493 C 317.079 111.400,316.574 111.230,316.288 111.116 C 314.821 110.530,313.563 110.212,313.563 110.426 M319.762 112.727 C 323.524 114.624,326.229 117.677,327.605 121.580 C 328.090 122.954,328.350 123.437,328.353 122.969 C 328.356 122.575,328.134 121.757,327.860 121.152 C 327.586 120.547,327.289 119.799,327.201 119.491 C 326.555 117.240,320.327 111.836,318.434 111.884 C 318.253 111.888,318.851 112.268,319.762 112.727 M227.518 123.540 C 227.600 124.173,227.828 125.049,228.027 125.486 C 228.226 125.924,228.570 126.838,228.793 127.518 C 231.969 137.216,243.088 146.387,251.347 146.121 C 251.659 146.111,250.921 145.891,249.708 145.633 C 239.017 143.358,232.356 137.029,228.387 125.373 C 227.683 123.306,227.416 122.742,227.518 123.540 M200.542 132.449 C 200.173 133.079,199.870 133.721,199.870 133.875 C 199.870 134.029,199.782 134.194,199.674 134.242 C 199.565 134.289,199.072 134.854,198.577 135.496 C 195.280 139.776,190.160 142.435,184.151 142.991 L 181.311 143.253 183.961 143.138 C 189.538 142.895,194.219 140.761,197.842 136.810 C 199.398 135.112,201.624 131.713,201.355 131.444 C 201.278 131.366,200.912 131.818,200.542 132.449 M245.944 141.504 C 247.912 142.304,250.995 143.020,252.304 142.981 C 253.089 142.958,253.216 142.916,252.693 142.854 C 250.723 142.620,248.647 142.160,246.939 141.580 C 244.694 140.817,244.154 140.776,245.944 141.504 M75.735 143.212 C 76.201 143.270,76.902 143.269,77.292 143.209 C 77.682 143.150,77.300 143.103,76.444 143.104 C 75.587 143.106,75.268 143.154,75.735 143.212 M254.186 146.331 C 255.006 146.382,256.350 146.382,257.171 146.331 C 257.992 146.279,257.320 146.237,255.678 146.237 C 254.036 146.237,253.365 146.279,254.186 146.331 M92.959 173.074 C 92.645 173.661,92.655 189.720,92.970 190.331 C 93.281 190.934,93.819 190.906,94.258 190.265 C 94.611 189.749,94.623 189.750,95.912 190.387 C 102.084 193.439,107.293 184.133,102.101 179.330 C 100.558 177.904,97.340 177.652,95.743 178.833 C 94.646 179.644,94.514 179.334,94.505 175.918 C 94.500 174.371,94.429 172.995,94.345 172.860 C 94.093 172.451,93.220 172.586,92.959 173.074 M149.438 172.777 C 149.337 172.878,149.252 174.081,149.250 175.449 C 149.248 176.817,149.179 178.189,149.096 178.497 L 148.946 179.057 147.867 178.568 C 145.348 177.424,142.318 178.345,140.893 180.689 C 137.484 186.295,142.449 193.242,147.822 190.385 L 149.064 189.724 149.558 190.255 C 150.863 191.655,150.961 190.943,150.811 181.181 C 150.684 172.935,150.669 172.743,150.152 172.669 C 149.860 172.627,149.539 172.676,149.438 172.777 M231.343 172.787 C 231.112 172.881,231.019 173.725,231.019 175.736 C 231.019 178.868,230.932 179.032,229.571 178.464 C 226.115 177.020,222.396 179.348,221.799 183.330 C 220.975 188.825,225.407 192.719,229.778 190.340 C 231.010 189.669,231.090 189.658,231.416 190.103 C 232.576 191.689,232.702 190.923,232.775 181.857 C 232.850 172.478,232.805 172.197,231.343 172.787 M271.882 172.907 C 271.772 173.084,271.705 174.404,271.732 175.842 C 271.793 179.062,271.687 179.270,270.340 178.583 C 266.015 176.378,261.189 181.082,262.437 186.286 C 263.370 190.172,266.965 192.052,270.279 190.388 C 271.585 189.732,271.589 189.731,272.071 190.249 C 273.280 191.547,273.341 191.109,273.267 181.606 C 273.199 172.754,273.199 172.745,272.640 172.665 C 272.332 172.621,271.991 172.730,271.882 172.907 M277.509 172.853 C 276.986 173.184,277.362 173.912,278.058 173.917 C 279.170 173.924,279.277 174.193,279.355 177.167 L 279.429 180.013 280.143 180.095 C 280.596 180.147,280.862 180.053,280.873 179.836 C 280.882 179.648,280.875 178.355,280.858 176.962 C 280.824 174.176,280.765 174.272,282.815 173.757 L 283.452 173.597 283.452 176.579 C 283.452 178.912,283.537 179.630,283.842 179.883 C 284.504 180.433,284.975 179.752,285.071 178.110 C 285.156 176.658,285.161 176.649,285.480 177.430 C 286.687 180.388,287.801 181.063,288.378 179.184 C 289.237 176.389,289.622 176.270,289.664 178.788 C 289.682 179.926,290.214 180.493,290.755 179.953 C 291.808 178.900,290.983 172.260,289.853 172.693 C 289.437 172.853,288.125 175.457,288.125 176.123 C 288.125 176.304,287.912 176.714,287.652 177.035 L 287.179 177.619 286.845 176.739 C 285.331 172.749,284.942 172.260,283.848 172.976 C 283.316 173.325,283.201 173.328,282.925 172.995 C 282.567 172.563,278.149 172.447,277.509 172.853 M93.995 175.795 C 94.011 177.258,94.052 178.572,94.085 178.715 C 94.118 178.858,94.163 179.251,94.185 179.589 C 94.217 180.091,94.339 180.181,94.851 180.083 L 95.478 179.964 94.868 180.931 C 93.688 182.799,93.702 186.568,94.894 188.325 L 95.537 189.272 94.784 189.107 C 94.204 188.980,93.985 189.049,93.832 189.409 C 93.314 190.624,92.823 174.902,93.336 173.564 C 93.733 172.530,93.967 173.323,93.995 175.795 M150.552 181.562 C 150.552 189.085,150.508 189.974,150.147 189.835 C 149.925 189.750,149.804 189.520,149.880 189.324 C 149.964 189.104,149.838 188.968,149.548 188.968 C 148.807 188.968,148.724 188.702,149.192 187.832 C 150.356 185.673,149.675 181.005,148.017 179.771 C 144.327 177.023,138.799 183.158,141.402 187.112 C 141.652 187.492,141.983 188.031,142.138 188.311 C 142.904 189.692,145.023 190.201,147.567 189.613 C 148.308 189.441,148.320 189.451,147.817 189.825 C 144.760 192.095,140.428 189.030,140.428 184.599 C 140.428 180.040,144.895 177.000,148.168 179.330 C 149.503 180.281,149.805 179.757,149.771 176.553 C 149.734 172.953,149.713 173.134,150.162 173.134 C 150.500 173.134,150.552 174.244,150.552 181.562 M272.912 181.555 C 272.955 188.987,272.846 190.561,272.375 189.333 C 272.259 189.030,272.011 188.959,271.459 189.070 L 270.703 189.221 271.222 188.492 C 272.446 186.773,272.609 182.969,271.547 180.930 C 271.111 180.094,271.077 179.883,271.377 179.883 C 272.054 179.883,272.291 178.922,272.291 176.180 C 272.291 173.746,272.421 172.918,272.751 173.248 C 272.813 173.311,272.886 177.049,272.912 181.555 M280.857 173.362 C 280.857 174.002,280.131 174.168,279.527 173.666 L 278.910 173.152 279.883 173.143 C 280.419 173.138,280.857 173.237,280.857 173.362 M199.010 173.718 C 198.769 173.897,198.227 175.036,197.808 176.249 C 197.388 177.463,196.677 179.448,196.228 180.662 C 192.772 189.999,192.777 189.981,193.137 190.414 C 193.797 191.210,194.685 190.352,195.174 188.445 C 195.359 187.724,195.770 186.641,196.088 186.039 L 196.666 184.945 199.112 184.869 C 202.579 184.761,202.561 184.752,203.373 186.956 C 203.755 187.991,204.186 189.156,204.333 189.544 C 204.728 190.592,205.176 190.881,205.847 190.522 C 206.479 190.184,206.422 189.594,205.585 187.800 C 205.319 187.229,204.920 186.178,204.700 185.464 C 204.101 183.526,202.504 179.090,202.069 178.157 C 201.859 177.707,201.687 177.159,201.687 176.939 C 201.687 176.719,201.585 176.477,201.461 176.400 C 201.337 176.323,201.170 175.933,201.090 175.534 C 200.792 174.043,199.774 173.155,199.010 173.718 M285.167 174.062 C 285.348 174.783,284.971 175.378,284.513 175.095 C 284.358 174.999,284.231 174.577,284.231 174.157 C 284.231 173.191,284.931 173.119,285.167 174.062 M290.461 174.028 C 290.461 174.376,290.334 174.740,290.179 174.836 C 289.744 175.104,289.351 174.548,289.544 173.939 C 289.786 173.178,290.461 173.243,290.461 174.028 M200.389 175.409 C 200.389 175.749,200.556 176.194,200.760 176.398 C 200.964 176.602,201.319 177.440,201.549 178.261 C 201.779 179.082,202.076 179.987,202.209 180.273 C 202.566 181.035,203.908 184.830,204.115 185.659 C 204.366 186.666,203.943 186.546,203.427 185.464 C 202.950 184.464,203.391 184.558,198.702 184.459 C 196.060 184.403,195.490 184.948,194.550 188.436 C 194.379 189.071,194.104 189.636,193.940 189.690 C 193.446 189.855,193.600 189.011,194.289 187.776 C 194.646 187.137,194.938 186.412,194.938 186.165 C 194.938 185.918,195.180 185.075,195.476 184.292 C 195.772 183.509,196.249 182.167,196.537 181.311 C 196.824 180.454,197.166 179.642,197.297 179.507 C 197.427 179.371,197.534 179.038,197.534 178.766 C 197.534 178.494,197.826 177.690,198.183 176.979 C 198.540 176.269,198.832 175.472,198.832 175.208 C 198.832 174.945,199.028 174.532,199.269 174.292 C 199.801 173.760,200.389 174.346,200.389 175.409 M257.807 174.225 C 257.635 174.396,257.495 174.781,257.495 175.081 C 257.495 176.305,259.106 176.726,259.604 175.633 C 260.160 174.414,258.734 173.297,257.807 174.225 M259.168 174.668 C 259.388 175.024,259.044 175.730,258.651 175.730 C 258.195 175.730,257.932 175.280,258.113 174.809 C 258.274 174.390,258.941 174.301,259.168 174.668 M199.208 175.929 C 199.059 176.034,198.745 176.703,198.510 177.417 C 198.276 178.131,197.730 179.699,197.296 180.902 C 196.285 183.708,196.337 183.777,199.481 183.777 C 202.482 183.777,202.769 183.557,202.121 181.749 C 201.881 181.080,201.685 180.328,201.686 180.078 C 201.687 179.828,201.591 179.624,201.473 179.624 C 201.356 179.624,200.985 178.748,200.649 177.677 C 200.065 175.813,199.812 175.506,199.208 175.929 M200.346 178.391 C 200.636 179.283,201.100 180.655,201.378 181.441 C 201.655 182.226,201.831 182.956,201.769 183.063 C 201.610 183.338,197.595 183.306,197.423 183.029 C 197.269 182.778,198.153 179.908,198.729 178.793 C 198.929 178.407,199.091 177.794,199.091 177.430 C 199.091 176.176,199.802 176.720,200.346 178.391 M108.283 178.420 C 106.509 179.062,106.660 180.465,108.446 179.930 C 110.934 179.185,112.682 179.833,113.044 181.634 C 113.238 182.598,112.942 182.790,110.762 183.110 C 108.228 183.482,106.637 184.618,106.159 186.396 C 105.248 189.776,108.358 192.014,111.868 190.504 C 113.020 190.009,113.177 189.997,113.736 190.363 C 114.960 191.165,115.083 190.729,115.015 185.823 C 114.918 178.822,113.000 176.712,108.283 178.420 M119.905 178.579 C 117.042 180.092,117.788 183.452,121.346 185.073 C 125.116 186.790,123.839 190.220,119.808 189.205 C 117.721 188.679,117.122 189.848,119.063 190.659 C 121.873 191.833,125.296 190.094,125.354 187.463 C 125.391 185.778,124.245 184.469,121.732 183.325 C 118.581 181.891,120.136 178.632,123.383 179.867 C 124.180 180.170,125.020 179.652,124.773 179.008 C 124.387 178.002,121.480 177.746,119.905 178.579 M130.555 178.650 C 126.465 180.712,126.357 187.957,130.382 190.265 C 132.307 191.369,135.738 191.285,136.918 190.106 C 137.616 189.408,137.084 189.217,134.635 189.288 C 131.067 189.392,129.800 188.562,129.364 185.840 L 129.200 184.815 132.932 184.811 C 138.093 184.806,138.620 184.461,137.698 181.686 C 136.613 178.418,133.575 177.127,130.555 178.650 M163.114 178.609 C 161.036 179.618,159.637 181.994,159.637 184.512 C 159.637 192.747,170.516 193.349,171.485 185.167 C 172.070 180.222,167.372 176.542,163.114 178.609 M177.890 178.410 C 177.436 178.578,176.979 178.803,176.873 178.910 C 176.543 179.246,175.931 179.123,175.579 178.650 C 175.312 178.291,175.143 178.256,174.772 178.484 C 174.044 178.931,174.056 189.630,174.784 190.359 C 175.778 191.353,176.066 190.470,176.188 186.064 C 176.330 180.918,176.990 179.624,179.471 179.624 C 181.972 179.624,182.479 180.715,182.479 186.091 C 182.479 190.579,182.825 191.589,183.970 190.443 C 184.544 189.869,184.451 182.099,183.852 180.602 C 183.028 178.542,180.275 177.530,177.890 178.410 M212.134 178.613 C 211.037 179.156,210.813 179.147,209.913 178.522 C 208.928 177.838,208.742 178.735,208.713 184.323 C 208.685 189.697,208.821 190.526,209.734 190.526 C 210.581 190.526,210.772 189.667,210.772 185.858 C 210.772 181.151,211.562 179.624,213.994 179.624 C 216.523 179.624,217.262 181.203,217.262 186.610 C 217.262 190.470,217.545 191.392,218.452 190.484 C 219.022 189.915,219.101 183.279,218.563 181.244 C 217.836 178.496,214.844 177.272,212.134 178.613 M239.817 178.412 C 239.445 178.579,238.958 178.868,238.735 179.054 C 238.396 179.337,238.289 179.322,238.090 178.966 C 237.944 178.705,237.607 178.573,237.225 178.627 L 236.600 178.715 236.681 184.426 C 236.765 190.245,236.830 190.644,237.675 190.482 C 238.251 190.373,238.481 188.885,238.521 185.027 C 238.554 181.762,239.328 179.883,240.639 179.883 C 240.884 179.883,241.357 179.663,241.689 179.394 C 242.857 178.448,241.419 177.693,239.817 178.412 M246.852 178.412 C 240.862 181.209,242.440 191.056,248.877 191.042 C 253.258 191.033,256.045 186.451,254.473 181.840 C 253.473 178.905,249.563 177.146,246.852 178.412 M216.742 179.322 C 218.022 180.265,218.971 186.824,218.055 188.395 C 217.872 188.709,217.791 187.966,217.777 185.853 C 217.745 180.813,216.619 178.913,213.822 179.173 C 212.497 179.296,212.126 178.957,213.303 178.697 C 213.696 178.611,214.134 178.510,214.276 178.473 C 214.719 178.358,216.062 178.821,216.742 179.322 M258.066 178.637 C 257.542 179.162,257.633 190.102,258.166 190.544 C 259.268 191.458,259.437 190.722,259.512 184.690 C 259.589 178.481,259.326 177.378,258.066 178.637 M287.619 179.454 C 287.399 179.674,287.262 179.651,287.079 179.362 C 286.727 178.804,286.768 178.635,287.281 178.532 C 287.818 178.424,288.041 179.033,287.619 179.454 M101.172 179.276 C 105.642 182.594,103.680 190.400,98.378 190.394 C 97.144 190.392,96.516 190.262,96.042 189.911 L 95.393 189.430 96.301 189.608 C 99.359 190.210,100.370 189.935,101.820 188.105 C 105.067 184.007,100.921 177.239,96.548 179.501 C 96.127 179.718,95.782 179.791,95.782 179.663 C 95.782 178.587,99.849 178.295,101.172 179.276 M112.507 178.984 C 114.152 179.764,114.471 180.834,114.471 185.564 C 114.471 189.415,114.322 190.295,113.808 189.465 C 113.712 189.310,113.414 189.240,113.144 189.311 C 112.875 189.381,112.589 189.333,112.509 189.203 C 112.429 189.074,112.477 188.968,112.616 188.968 C 113.500 188.968,114.286 185.371,113.605 184.440 C 113.123 183.781,110.416 183.843,109.039 184.546 C 105.851 186.172,107.378 190.608,110.885 189.906 C 111.287 189.826,111.616 189.867,111.616 189.997 C 111.616 190.768,108.531 190.594,107.463 189.763 C 106.670 189.146,106.487 185.938,107.203 185.224 C 107.809 184.619,110.082 183.542,110.452 183.685 C 110.635 183.755,110.862 183.687,110.956 183.535 C 111.050 183.382,111.564 183.258,112.098 183.258 C 113.316 183.258,113.692 182.888,113.692 181.694 C 113.692 179.749,110.953 178.481,108.648 179.358 C 108.206 179.526,107.982 179.523,107.982 179.349 C 107.982 178.591,111.142 178.336,112.507 178.984 M123.665 178.743 C 124.555 179.085,124.001 179.319,122.636 179.178 C 120.712 178.979,119.143 180.042,119.143 181.544 C 119.143 181.884,121.045 183.777,121.386 183.777 C 123.234 183.777,125.083 186.432,124.558 188.333 C 124.073 190.089,119.731 191.377,118.888 190.014 C 118.546 189.459,118.685 189.430,120.039 189.771 C 124.630 190.927,125.752 186.597,121.414 184.466 C 119.188 183.372,119.014 183.162,119.014 181.586 C 119.014 179.239,121.305 177.837,123.665 178.743 M135.865 179.603 C 136.732 180.444,137.313 181.955,137.313 183.368 C 137.313 184.020,136.739 184.346,135.756 184.252 C 129.293 183.628,127.275 184.918,129.695 188.125 C 130.800 189.589,133.086 190.195,135.431 189.644 C 136.114 189.484,136.247 189.518,136.129 189.825 C 135.676 191.006,131.196 190.628,129.700 189.283 C 128.300 188.023,127.461 184.028,128.350 182.853 C 128.683 182.412,128.732 182.404,128.739 182.788 C 128.762 184.017,136.435 184.048,136.906 182.821 C 136.997 182.584,136.955 182.319,136.813 182.231 C 136.671 182.143,136.374 181.639,136.154 181.112 C 135.431 179.380,133.269 178.730,130.824 179.507 C 130.248 179.690,130.214 179.666,130.519 179.295 C 131.391 178.231,134.643 178.419,135.865 179.603 M168.401 179.276 C 172.770 182.519,171.094 189.982,165.891 190.454 C 160.490 190.944,158.088 183.122,162.564 179.620 C 164.054 178.454,167.054 178.277,168.401 179.276 M182.213 179.519 C 182.817 180.065,183.357 180.848,183.511 181.401 C 183.912 182.845,183.862 190.078,183.452 189.942 C 183.218 189.864,183.092 188.657,182.998 185.573 C 182.857 180.926,182.740 180.507,181.348 179.647 C 180.429 179.078,178.481 178.904,178.196 179.364 C 178.108 179.507,177.853 179.624,177.630 179.624 C 177.031 179.624,177.682 178.908,178.410 178.766 C 180.285 178.401,181.169 178.576,182.213 179.519 M229.843 179.246 C 230.737 179.852,230.864 179.874,231.407 179.519 C 232.087 179.073,232.317 179.661,232.317 181.847 C 232.317 183.456,231.971 183.445,231.295 181.814 C 229.683 177.927,224.417 178.242,223.339 182.291 C 222.025 187.229,224.915 191.130,228.816 189.684 C 230.197 189.172,230.375 189.463,229.063 190.088 C 227.255 190.950,224.714 190.422,223.798 188.994 C 223.560 188.623,223.160 188.093,222.909 187.816 C 222.017 186.832,222.260 182.510,223.297 180.920 C 224.812 178.597,227.772 177.840,229.843 179.246 M241.344 178.889 C 241.221 179.259,239.325 179.950,239.325 179.625 C 239.325 179.276,240.413 178.585,240.962 178.585 C 241.228 178.585,241.399 178.722,241.344 178.889 M251.450 179.131 C 253.022 179.892,253.774 180.985,254.002 182.840 C 254.139 183.953,254.110 184.320,253.896 184.187 C 253.734 184.087,253.602 183.778,253.602 183.499 C 253.602 178.964,246.795 177.538,244.934 181.684 C 241.964 188.302,250.018 193.410,253.228 186.943 C 253.783 185.826,253.835 185.785,253.847 186.454 C 253.921 190.374,246.572 191.977,244.754 188.437 C 241.767 182.622,246.132 176.556,251.450 179.131 M270.417 179.221 C 270.843 179.670,270.834 179.683,270.214 179.494 C 267.703 178.731,265.363 179.439,264.374 181.262 C 263.761 182.391,263.388 182.511,263.620 181.506 C 263.801 180.718,265.633 178.933,266.450 178.747 C 267.653 178.474,269.972 178.751,270.417 179.221 M163.644 179.570 C 161.583 180.719,161.090 181.649,161.074 184.417 C 161.040 190.715,168.406 192.104,170.022 186.105 C 171.199 181.733,167.168 177.604,163.644 179.570 M175.470 179.753 C 175.470 179.970,175.701 180.143,175.990 180.143 C 176.275 180.143,176.509 180.179,176.509 180.224 C 176.509 180.268,176.275 180.788,175.990 181.379 C 175.546 182.297,175.470 182.985,175.470 186.100 C 175.470 188.448,175.374 189.747,175.201 189.747 C 175.023 189.747,174.942 188.074,174.962 184.824 C 174.980 182.117,174.919 179.781,174.827 179.633 C 174.736 179.485,174.843 179.364,175.066 179.364 C 175.288 179.364,175.470 179.539,175.470 179.753 M210.396 180.143 C 210.938 180.143,210.862 180.712,210.130 182.137 L 209.488 183.387 209.489 181.311 C 209.490 179.776,209.559 179.353,209.755 179.689 C 209.900 179.938,210.189 180.143,210.396 180.143 M258.910 184.620 C 258.902 187.802,258.799 189.851,258.650 189.812 C 258.245 189.706,258.189 179.364,258.593 179.364 C 258.849 179.364,258.920 180.536,258.910 184.620 M100.197 180.014 C 103.803 181.879,102.487 189.487,98.559 189.487 C 95.899 189.487,94.597 187.877,94.646 184.649 C 94.707 180.650,97.278 178.504,100.197 180.014 M134.626 180.124 C 135.470 180.639,136.189 182.172,135.918 182.879 C 135.719 183.397,129.996 183.434,129.569 182.919 C 128.198 181.267,132.553 178.859,134.626 180.124 M147.350 179.957 C 150.227 181.571,149.806 188.232,146.763 189.236 C 142.809 190.541,140.183 185.669,142.550 181.423 C 143.461 179.789,145.785 179.080,147.350 179.957 M167.583 180.118 C 169.128 181.060,170.096 184.017,169.487 185.934 C 167.534 192.085,160.519 189.467,161.709 183.031 C 162.241 180.153,165.219 178.677,167.583 180.118 M229.232 180.072 C 231.534 181.432,231.706 186.984,229.498 188.667 C 227.180 190.433,224.290 189.087,223.712 185.973 C 222.887 181.518,226.016 178.172,229.232 180.072 M250.736 180.008 C 254.184 181.791,253.517 188.650,249.829 189.342 C 245.852 190.088,243.407 184.867,245.984 181.129 C 246.982 179.681,249.126 179.175,250.736 180.008 M269.915 180.035 C 272.461 181.555,272.380 187.602,269.794 188.984 C 268.252 189.808,265.709 189.200,264.964 187.828 C 262.583 183.445,266.170 177.800,269.915 180.035 M129.877 180.337 C 129.712 180.968,128.760 182.166,128.753 181.752 C 128.745 181.268,129.497 179.883,129.768 179.883 C 129.894 179.883,129.943 180.088,129.877 180.337 M238.806 180.217 C 238.806 180.257,238.572 180.955,238.287 181.768 C 238.001 182.580,237.768 183.591,237.768 184.015 C 237.768 184.438,237.651 184.857,237.508 184.945 C 237.217 185.125,237.132 180.605,237.422 180.316 C 237.587 180.150,238.806 180.063,238.806 180.217 M264.125 187.281 C 265.143 189.368,266.984 190.293,269.071 189.768 C 270.755 189.344,270.992 189.446,269.714 190.045 C 265.970 191.798,262.018 187.870,263.109 183.479 C 263.304 182.697,263.341 182.794,263.472 184.426 C 263.552 185.425,263.846 186.710,264.125 187.281 M112.763 184.453 C 113.611 184.779,113.308 187.271,112.285 188.388 C 110.575 190.254,107.982 189.648,107.982 187.382 C 107.982 185.676,108.688 184.972,110.837 184.539 C 112.105 184.283,112.297 184.275,112.763 184.453 M232.193 188.107 C 232.036 189.155,231.997 189.197,231.458 188.896 C 231.145 188.722,230.850 188.559,230.802 188.536 C 230.755 188.512,230.959 187.942,231.257 187.270 C 231.554 186.597,231.808 185.857,231.821 185.626 C 231.834 185.394,231.960 185.608,232.102 186.102 C 232.244 186.596,232.285 187.498,232.193 188.107 M205.321 188.607 C 205.321 188.782,205.392 189.111,205.479 189.336 C 205.742 190.022,205.167 189.795,204.844 189.086 C 204.370 188.046,204.438 187.121,204.940 187.785 C 205.150 188.062,205.321 188.432,205.321 188.607 " stroke="none" fill="#cbcecf" fill-rule="evenodd"></path><path id="path5" d="M125.838 101.166 C 126.735 101.217,128.137 101.216,128.952 101.165 C 129.768 101.114,129.033 101.072,127.320 101.072 C 125.607 101.073,124.940 101.115,125.838 101.166 M121.999 101.493 C 121.485 101.657,121.458 101.700,121.869 101.700 C 122.154 101.700,122.680 101.607,123.037 101.493 C 123.551 101.328,123.578 101.285,123.167 101.285 C 122.881 101.285,122.356 101.378,121.999 101.493 M131.343 101.493 C 132.231 101.777,132.913 101.777,132.252 101.493 C 131.966 101.370,131.499 101.273,131.213 101.277 C 130.796 101.283,130.822 101.325,131.343 101.493 M134.977 102.458 C 135.191 102.538,135.921 102.881,136.600 103.220 C 137.278 103.560,137.833 103.779,137.833 103.708 C 137.833 103.504,135.293 102.269,134.921 102.292 C 134.704 102.305,134.723 102.363,134.977 102.458 M117.002 103.198 C 115.996 103.744,116.110 103.933,117.132 103.413 C 118.110 102.915,118.283 102.786,117.954 102.801 C 117.823 102.807,117.395 102.985,117.002 103.198 M126.225 103.760 C 126.907 103.814,127.958 103.813,128.561 103.759 C 129.163 103.704,128.605 103.660,127.320 103.661 C 126.035 103.662,125.542 103.707,126.225 103.760 M114.646 104.632 C 113.979 105.073,113.362 105.550,113.275 105.692 C 113.187 105.833,113.771 105.514,114.572 104.982 C 115.871 104.119,116.217 103.829,115.943 103.829 C 115.896 103.829,115.312 104.190,114.646 104.632 M121.739 104.218 C 120.527 104.685,121.051 104.694,122.518 104.231 C 123.160 104.029,123.452 103.864,123.167 103.866 C 122.881 103.867,122.239 104.026,121.739 104.218 M139.820 105.100 C 140.816 105.799,142.459 107.174,143.473 108.156 C 144.486 109.137,145.218 109.759,145.099 109.537 C 144.554 108.518,138.894 103.829,138.210 103.829 C 138.100 103.829,138.825 104.401,139.820 105.100 M117.326 106.025 C 114.985 107.258,111.800 110.457,110.343 113.039 C 109.534 114.473,107.977 118.227,107.991 118.709 C 107.996 118.876,108.449 117.904,108.997 116.548 C 110.866 111.923,113.545 108.548,116.905 106.583 C 117.851 106.030,118.624 105.534,118.624 105.482 C 118.624 105.344,118.608 105.351,117.326 106.025 M136.535 106.022 C 136.535 106.093,136.885 106.333,137.313 106.554 C 137.742 106.776,138.092 106.898,138.092 106.827 C 138.092 106.756,137.742 106.516,137.313 106.295 C 136.885 106.073,136.535 105.950,136.535 106.022 M110.619 108.265 C 108.970 110.202,106.791 113.626,107.046 113.881 C 107.106 113.941,107.574 113.193,108.086 112.219 C 108.599 111.245,109.839 109.484,110.843 108.306 C 111.846 107.128,112.609 106.165,112.538 106.165 C 112.466 106.165,111.603 107.110,110.619 108.265 M139.001 107.599 C 140.784 109.206,141.257 109.576,141.374 109.458 C 141.443 109.390,140.761 108.786,139.860 108.116 C 138.959 107.445,138.572 107.213,139.001 107.599 M145.878 111.032 C 146.218 111.496,146.537 111.875,146.586 111.875 C 146.783 111.875,146.140 110.902,145.714 110.556 C 145.434 110.328,145.496 110.510,145.878 111.032 M143.693 112.395 C 143.800 112.609,144.095 113.083,144.348 113.450 C 144.601 113.816,145.221 115.042,145.725 116.175 C 146.230 117.308,146.646 118.101,146.650 117.936 C 146.663 117.439,144.655 113.348,144.057 112.654 C 143.750 112.297,143.586 112.180,143.693 112.395 M146.666 112.298 C 146.662 112.459,146.822 112.726,147.021 112.892 C 147.221 113.058,147.645 113.836,147.964 114.620 C 148.282 115.405,148.591 115.999,148.650 115.940 C 148.796 115.794,147.592 113.166,147.085 112.524 C 146.859 112.239,146.671 112.137,146.666 112.298 M105.664 117.458 C 105.368 118.415,105.136 119.332,105.148 119.495 C 105.159 119.659,105.445 118.920,105.784 117.854 C 106.122 116.788,106.354 115.872,106.300 115.817 C 106.246 115.763,105.959 116.502,105.664 117.458 M148.760 116.288 C 148.750 116.360,148.908 116.944,149.111 117.586 C 149.313 118.228,149.481 118.520,149.484 118.235 C 149.489 117.783,148.805 115.945,148.760 116.288 M146.702 119.014 C 146.706 119.299,146.803 119.825,146.918 120.182 L 147.125 120.831 147.133 120.182 C 147.137 119.825,147.040 119.299,146.918 119.014 L 146.695 118.494 146.702 119.014 M149.693 120.311 C 149.773 121.168,149.882 121.918,149.935 121.977 C 150.109 122.170,149.977 120.333,149.760 119.533 C 149.621 119.021,149.598 119.287,149.693 120.311 M107.389 121.016 C 107.152 121.755,107.002 122.403,107.054 122.456 C 107.107 122.508,107.349 121.952,107.592 121.220 C 107.836 120.488,107.986 119.840,107.927 119.780 C 107.867 119.721,107.625 120.277,107.389 121.016 M104.348 121.739 C 104.167 122.177,104.079 122.595,104.153 122.669 C 104.227 122.743,104.419 122.429,104.579 121.970 C 104.738 121.511,104.826 121.093,104.773 121.040 C 104.720 120.987,104.529 121.302,104.348 121.739 M147.273 123.556 C 147.273 125.055,147.316 125.668,147.369 124.919 C 147.421 124.169,147.421 122.943,147.369 122.193 C 147.316 121.444,147.273 122.057,147.273 123.556 M150.110 123.816 C 150.110 124.601,150.159 124.922,150.218 124.530 C 150.278 124.137,150.278 123.494,150.218 123.102 C 150.159 122.709,150.110 123.030,150.110 123.816 M106.704 123.109 C 106.693 123.363,105.924 125.057,104.994 126.873 C 104.065 128.689,103.479 129.951,103.693 129.676 C 104.482 128.662,107.008 123.362,106.869 123.011 C 106.766 122.750,106.719 122.778,106.704 123.109 M103.167 124.619 C 102.939 125.060,102.798 125.467,102.855 125.524 C 102.911 125.580,103.151 125.219,103.389 124.721 C 103.922 123.601,103.737 123.516,103.167 124.619 M149.678 126.836 C 149.587 127.506,149.562 128.104,149.623 128.165 C 149.684 128.226,149.815 127.734,149.914 127.072 C 150.014 126.410,150.039 125.812,149.970 125.743 C 149.902 125.675,149.770 126.167,149.678 126.836 M146.788 127.450 C 146.688 128.040,146.665 128.581,146.736 128.653 C 146.808 128.724,146.948 128.300,147.047 127.709 C 147.147 127.119,147.170 126.578,147.099 126.506 C 147.028 126.435,146.888 126.859,146.788 127.450 M101.000 128.683 C 100.391 129.646,100.121 130.201,100.401 129.916 C 100.917 129.389,102.410 126.931,102.214 126.931 C 102.155 126.931,101.609 127.719,101.000 128.683 M145.879 130.870 C 144.418 134.458,141.650 137.878,138.611 139.851 C 136.774 141.044,136.360 141.448,137.761 140.681 C 141.321 138.732,147.213 131.284,146.605 129.502 C 146.563 129.378,146.236 129.994,145.879 130.870 M101.937 131.927 C 100.678 133.691,97.969 136.561,95.912 138.309 C 94.972 139.108,95.103 139.040,96.387 138.063 C 98.595 136.383,103.944 130.305,103.215 130.305 C 103.149 130.305,102.574 131.035,101.937 131.927 M98.919 131.575 C 97.817 132.967,97.906 133.204,99.027 131.862 C 99.526 131.264,99.935 130.728,99.935 130.670 C 99.935 130.396,99.655 130.646,98.919 131.575 M147.964 132.751 C 147.645 133.536,147.221 134.314,147.021 134.480 C 146.822 134.646,146.662 134.913,146.666 135.074 C 146.671 135.235,146.859 135.133,147.085 134.848 C 147.592 134.206,148.796 131.578,148.650 131.431 C 148.591 131.373,148.282 131.967,147.964 132.751 M107.722 132.382 C 106.797 133.306,107.401 134.636,110.383 138.244 C 110.918 138.892,111.356 139.316,111.356 139.186 C 111.356 139.057,111.117 138.735,110.825 138.470 C 108.899 136.727,107.214 133.294,107.932 132.576 C 108.714 131.793,109.322 132.183,110.776 134.398 C 111.841 136.023,115.798 140.368,115.135 139.186 C 115.032 139.002,114.365 138.307,113.653 137.641 C 112.941 136.975,111.729 135.475,110.961 134.308 C 109.265 131.733,108.705 131.399,107.722 132.382 M95.782 134.943 C 94.320 136.388,94.159 136.606,95.133 135.817 C 96.577 134.648,98.010 133.205,97.840 133.092 C 97.779 133.052,96.853 133.885,95.782 134.943 M92.402 137.665 C 90.114 139.256,89.917 139.427,91.051 138.831 C 92.022 138.322,94.058 136.788,93.705 136.832 C 93.634 136.840,93.047 137.215,92.402 137.665 M144.149 138.639 C 143.479 139.373,140.435 141.894,139.233 142.709 C 138.963 142.893,139.252 142.776,139.876 142.450 C 140.917 141.905,145.455 137.872,145.058 137.845 C 144.963 137.838,144.554 138.195,144.149 138.639 M88.831 139.821 C 88.363 140.052,88.031 140.291,88.093 140.354 C 88.221 140.481,89.812 139.703,89.812 139.513 C 89.812 139.342,89.788 139.350,88.831 139.821 M93.186 140.184 C 91.567 141.282,88.750 142.703,86.437 143.587 C 85.309 144.019,84.873 144.267,85.399 144.177 C 86.528 143.983,92.779 140.918,93.835 140.040 C 94.894 139.160,94.601 139.225,93.186 140.184 M112.011 139.876 C 113.187 141.286,117.281 144.009,118.884 144.447 C 119.241 144.544,118.640 144.167,117.550 143.609 C 115.598 142.610,114.180 141.632,112.400 140.059 C 111.809 139.536,111.674 139.473,112.011 139.876 M117.067 140.557 C 117.067 140.731,119.694 142.041,119.811 141.924 C 119.864 141.871,119.268 141.514,118.487 141.131 C 117.706 140.747,117.067 140.489,117.067 140.557 M85.010 141.489 C 84.296 141.764,84.049 141.924,84.462 141.844 C 85.278 141.685,86.989 140.990,86.567 140.989 C 86.424 140.988,85.724 141.213,85.010 141.489 M134.977 141.856 C 134.335 142.200,133.926 142.481,134.069 142.481 C 134.212 142.481,134.854 142.200,135.496 141.856 C 136.139 141.512,136.548 141.230,136.405 141.230 C 136.262 141.230,135.620 141.512,134.977 141.856 M82.414 142.245 C 82.087 142.386,82.039 142.468,82.284 142.468 C 82.498 142.468,82.907 142.368,83.193 142.245 C 83.520 142.105,83.568 142.022,83.323 142.022 C 83.108 142.022,82.700 142.123,82.414 142.245 M79.299 142.906 L 77.742 143.250 79.119 143.111 C 79.877 143.034,80.811 142.876,81.196 142.760 C 82.329 142.419,81.065 142.515,79.299 142.906 M122.907 143.012 C 123.406 143.238,124.796 143.385,124.573 143.188 C 124.513 143.136,123.997 143.022,123.426 142.935 C 122.703 142.825,122.545 142.848,122.907 143.012 M131.084 143.024 C 130.562 143.191,130.537 143.233,130.954 143.239 C 131.239 143.244,131.707 143.147,131.992 143.024 C 132.654 142.740,131.971 142.740,131.084 143.024 M137.054 143.803 C 136.269 144.218,135.718 144.562,135.830 144.569 C 136.105 144.586,138.611 143.307,138.611 143.149 C 138.611 142.976,138.647 142.961,137.054 143.803 M126.355 143.475 C 127.110 143.528,128.278 143.527,128.951 143.474 C 129.624 143.421,129.007 143.378,127.579 143.378 C 126.152 143.379,125.601 143.423,126.355 143.475 M82.154 144.841 L 81.635 145.064 82.154 145.078 C 82.440 145.086,82.849 144.979,83.063 144.841 C 83.579 144.508,82.930 144.508,82.154 144.841 M79.169 145.369 C 78.750 145.509,79.026 145.533,79.948 145.438 C 80.733 145.356,81.424 145.247,81.484 145.195 C 81.692 145.013,79.812 145.154,79.169 145.369 M132.511 145.360 C 131.805 145.540,131.793 145.559,132.382 145.571 C 132.738 145.578,133.264 145.483,133.550 145.360 C 134.190 145.085,133.592 145.085,132.511 145.360 M126.226 146.071 C 127.052 146.123,128.337 146.123,129.082 146.070 C 129.826 146.018,129.150 145.976,127.579 145.976 C 126.009 145.977,125.400 146.020,126.226 146.071 " stroke="none" fill="#eda8aa" fill-rule="evenodd"></path><path id="path6" d="M124.594 100.599 C 124.238 100.661,123.129 100.844,122.132 101.006 C 118.185 101.650,113.066 104.564,110.467 107.649 C 109.651 108.617,108.699 109.743,108.353 110.150 C 108.006 110.557,107.722 111.006,107.722 111.148 C 107.722 111.290,107.495 111.724,107.218 112.114 C 106.570 113.024,105.454 115.913,104.854 118.235 C 104.189 120.806,103.637 122.448,102.936 123.945 C 102.602 124.659,102.252 125.472,102.158 125.750 C 101.698 127.119,98.308 131.702,96.186 133.826 C 91.333 138.684,85.682 141.502,78.520 142.636 C 77.190 142.846,76.783 142.975,77.389 142.994 C 87.951 143.327,100.623 133.056,104.413 121.090 C 106.382 114.874,106.817 113.680,107.664 112.159 C 115.022 98.956,132.569 96.827,143.543 107.806 C 145.285 109.549,146.658 111.166,146.658 111.474 C 146.658 111.571,146.930 112.022,147.263 112.477 C 148.928 114.753,150.292 119.740,150.292 123.555 C 150.292 139.577,134.160 150.431,119.008 144.603 C 111.793 141.828,103.721 131.862,108.689 131.862 C 109.190 131.862,110.837 133.435,110.837 133.912 C 110.837 134.458,115.329 139.390,115.826 139.390 C 115.956 139.390,116.443 139.680,116.907 140.034 C 123.504 145.065,134.818 143.881,141.308 137.480 C 147.692 131.184,149.018 120.006,144.148 113.538 C 143.815 113.096,143.543 112.648,143.543 112.541 C 143.543 111.509,138.343 107.072,135.629 105.788 C 128.365 102.351,119.611 103.632,114.082 108.941 C 110.852 112.042,110.333 113.069,107.290 122.388 C 103.237 134.796,92.892 143.421,79.429 145.618 C 76.981 146.017,76.739 146.094,77.872 146.114 C 86.793 146.268,98.406 139.144,104.118 130.014 C 105.587 127.667,107.982 122.627,107.982 121.885 C 107.982 121.261,110.112 114.878,110.456 114.471 C 110.637 114.257,110.960 113.673,111.173 113.173 C 112.122 110.948,115.765 107.559,118.844 106.037 C 126.779 102.115,138.046 104.941,142.706 112.022 C 143.246 112.843,144.037 114.054,144.305 114.471 C 146.861 118.447,147.485 125.923,145.602 130.010 C 145.183 130.918,144.841 131.776,144.841 131.917 C 144.841 134.199,138.441 140.071,134.199 141.680 C 126.127 144.743,114.131 140.601,111.184 133.734 C 110.729 132.674,109.410 131.538,108.634 131.538 C 107.090 131.538,106.236 133.274,107.118 134.620 C 107.357 134.985,107.737 135.621,107.962 136.034 C 112.750 144.812,126.248 148.968,136.397 144.789 C 142.810 142.149,148.918 135.427,149.795 130.045 C 149.899 129.403,150.167 128.177,150.389 127.320 C 151.211 124.150,150.587 118.590,149.027 115.186 C 148.717 114.508,148.350 113.656,148.211 113.292 C 145.395 105.885,132.905 99.173,124.594 100.599 " stroke="none" fill="#f9cccc" fill-rule="evenodd"></path><path id="path7" d="M121.336 101.872 C 113.442 103.881,108.359 109.265,105.642 118.494 C 104.501 122.367,101.901 128.108,100.481 129.886 C 100.038 130.441,99.676 130.982,99.676 131.087 C 99.676 131.493,94.782 136.251,93.056 137.523 C 89.321 140.275,84.466 142.210,78.584 143.291 C 76.305 143.710,76.166 143.762,77.612 143.652 C 79.414 143.515,82.640 142.858,83.384 142.477 C 83.632 142.349,83.989 142.245,84.177 142.245 C 85.537 142.245,92.055 138.863,94.097 137.097 C 94.537 136.717,95.221 136.171,95.615 135.886 C 96.542 135.215,99.808 131.399,101.172 129.393 C 103.065 126.608,104.584 123.083,106.148 117.846 C 112.146 97.754,137.702 95.374,147.252 114.016 C 150.870 121.080,150.097 131.021,145.507 136.474 C 145.355 136.655,144.763 137.359,144.192 138.039 C 136.044 147.745,120.701 148.213,111.795 139.027 C 108.733 135.869,107.420 133.430,108.362 132.649 C 108.790 132.294,109.784 133.180,110.493 134.546 C 111.826 137.119,116.401 140.960,119.666 142.247 C 121.786 143.082,121.783 142.834,119.663 141.904 C 115.870 140.240,112.523 137.355,110.475 133.983 C 109.030 131.606,106.811 131.617,107.806 133.997 C 112.817 145.993,130.722 149.679,141.577 140.950 C 144.025 138.981,144.745 138.149,146.857 134.843 C 150.902 128.515,150.902 118.853,146.857 112.529 C 141.028 103.414,131.276 99.342,121.336 101.872 M123.816 103.527 C 123.139 103.627,124.450 103.707,126.931 103.718 C 131.385 103.737,131.448 103.749,135.367 105.262 C 135.733 105.403,135.809 105.380,135.626 105.182 C 134.473 103.937,127.585 102.972,123.816 103.527 M120.638 104.241 C 116.533 105.727,111.958 109.292,110.549 112.101 C 110.361 112.477,110.021 113.076,109.793 113.433 C 109.171 114.408,108.031 117.301,107.739 118.641 C 104.669 132.776,93.485 142.904,78.520 145.103 C 76.807 145.354,75.825 145.574,76.337 145.590 C 83.647 145.823,94.491 140.728,99.822 134.553 C 103.599 130.179,107.982 121.746,107.982 118.852 C 107.982 118.606,108.348 117.490,108.795 116.373 C 111.259 110.217,115.007 106.547,120.960 104.459 C 121.888 104.134,122.414 103.872,122.128 103.878 C 121.843 103.884,121.172 104.048,120.638 104.241 M136.376 105.726 C 143.724 110.359,146.933 115.270,147.348 122.518 C 147.941 132.884,141.305 141.066,130.435 143.373 C 130.100 143.444,130.192 143.492,130.694 143.510 C 131.481 143.537,133.794 142.884,135.534 142.144 C 147.556 137.032,151.639 121.688,143.658 111.610 C 141.521 108.911,137.168 105.330,136.111 105.401 C 135.987 105.410,136.106 105.556,136.376 105.726 M122.388 143.141 C 122.816 143.349,123.634 143.510,124.205 143.499 L 125.243 143.478 124.205 143.290 C 123.634 143.187,122.816 143.025,122.388 142.932 L 121.609 142.761 122.388 143.141 M126.613 143.734 C 127.223 143.788,128.158 143.788,128.690 143.732 C 129.221 143.676,128.722 143.631,127.579 143.632 C 126.437 143.633,126.002 143.679,126.613 143.734 " stroke="none" fill="#e4948c" fill-rule="evenodd"></path><path id="path8" d="M126.353 100.904 C 126.964 100.959,127.898 100.958,128.430 100.903 C 128.962 100.847,128.462 100.802,127.320 100.803 C 126.178 100.804,125.743 100.849,126.353 100.904 M124.013 104.012 C 124.336 104.074,124.804 104.072,125.052 104.007 C 125.300 103.942,125.036 103.891,124.465 103.894 C 123.894 103.897,123.691 103.950,124.013 104.012 M111.965 106.584 L 110.707 107.782 111.875 106.807 C 113.442 105.499,113.562 105.386,113.380 105.386 C 113.294 105.386,112.657 105.925,111.965 106.584 M137.573 106.756 C 137.573 106.805,137.953 107.124,138.417 107.463 C 138.939 107.846,139.120 107.908,138.892 107.628 C 138.547 107.202,137.573 106.559,137.573 106.756 M114.585 108.306 L 113.822 109.150 114.666 108.388 C 115.130 107.968,115.509 107.589,115.509 107.544 C 115.509 107.343,115.295 107.520,114.585 108.306 M145.902 110.738 C 146.246 111.183,146.580 111.501,146.644 111.444 C 146.708 111.387,146.426 111.023,146.018 110.635 L 145.275 109.929 145.902 110.738 M142.245 110.749 C 142.245 110.890,142.567 111.289,142.959 111.635 L 143.673 112.265 143.024 111.486 C 142.667 111.058,142.346 110.659,142.310 110.599 C 142.274 110.540,142.245 110.607,142.245 110.749 M147.201 112.654 C 147.954 113.819,147.956 113.823,147.955 113.541 C 147.954 113.410,147.652 112.953,147.284 112.524 L 146.615 111.746 147.201 112.654 M143.544 112.546 C 143.545 112.677,143.847 113.134,144.215 113.563 L 144.884 114.341 144.298 113.433 C 143.545 112.267,143.543 112.264,143.544 112.546 M108.400 118.008 C 108.170 118.683,107.990 119.361,108.001 119.514 C 108.011 119.667,108.244 119.159,108.519 118.386 C 108.794 117.612,108.974 116.934,108.919 116.879 C 108.864 116.824,108.631 117.332,108.400 118.008 M150.098 121.609 C 150.101 122.180,150.154 122.383,150.216 122.061 C 150.278 121.738,150.276 121.270,150.211 121.022 C 150.146 120.774,150.095 121.038,150.098 121.609 M102.011 132.187 C 101.629 132.709,101.566 132.890,101.846 132.662 C 102.272 132.317,102.916 131.343,102.719 131.343 C 102.669 131.343,102.351 131.723,102.011 132.187 M100.568 134.004 L 99.805 134.848 100.649 134.085 C 101.435 133.374,101.612 133.160,101.411 133.160 C 101.367 133.160,100.987 133.540,100.568 134.004 M98.623 136.210 L 97.729 137.184 98.702 136.289 C 99.608 135.457,99.795 135.237,99.597 135.237 C 99.553 135.237,99.115 135.675,98.623 136.210 M108.760 136.470 C 109.099 136.934,109.418 137.313,109.467 137.313 C 109.665 137.313,109.021 136.340,108.595 135.994 C 108.315 135.767,108.378 135.948,108.760 136.470 M113.043 137.054 C 113.601 137.625,114.116 138.092,114.187 138.092 C 114.259 138.092,113.861 137.625,113.303 137.054 C 112.745 136.483,112.231 136.016,112.159 136.016 C 112.088 136.016,112.486 136.483,113.043 137.054 M110.340 138.512 C 110.685 138.957,111.019 139.275,111.083 139.218 C 111.147 139.161,110.865 138.797,110.456 138.409 L 109.714 137.703 110.340 138.512 M143.270 139.844 L 142.375 140.818 143.348 139.923 C 144.254 139.091,144.441 138.871,144.243 138.871 C 144.200 138.871,143.762 139.309,143.270 139.844 M112.135 140.299 C 112.619 140.798,113.074 141.207,113.145 141.207 C 113.217 141.207,112.879 140.798,112.395 140.299 C 111.910 139.799,111.456 139.390,111.384 139.390 C 111.313 139.390,111.651 139.799,112.135 140.299 M116.267 139.744 C 116.612 140.170,117.586 140.813,117.586 140.616 C 117.586 140.566,117.206 140.248,116.742 139.908 C 116.220 139.526,116.039 139.464,116.267 139.744 M125.052 143.208 C 125.375 143.270,125.842 143.267,126.090 143.202 C 126.338 143.137,126.074 143.087,125.503 143.089 C 124.932 143.092,124.729 143.146,125.052 143.208 M129.332 143.203 C 129.581 143.268,129.990 143.268,130.240 143.203 C 130.490 143.138,130.286 143.084,129.786 143.084 C 129.286 143.084,129.082 143.138,129.332 143.203 " stroke="none" fill="#fcc4bc" fill-rule="evenodd"></path></g></svg>