<svg id="svg" version="1.1" xmlns="http://www.w3.org/2000/svg" xmlns:xlink="http://www.w3.org/1999/xlink" width="400" height="518.5185185185185" viewBox="0, 0, 400,518.5185185185185"><g id="svgg"><path id="path0" d="M308.400 1.200 C 308.400 1.420,308.670 1.600,309.000 1.600 C 309.330 1.600,309.600 1.420,309.600 1.200 C 309.600 0.980,309.330 0.800,309.000 0.800 C 308.670 0.800,308.400 0.980,308.400 1.200 M305.200 1.600 C 305.200 2.119,306.279 2.119,306.600 1.600 C 306.736 1.380,306.477 1.200,306.024 1.200 C 305.571 1.200,305.200 1.380,305.200 1.600 M299.920 2.880 C 300.293 3.253,300.507 3.253,300.880 2.880 C 301.253 2.507,301.147 2.400,300.400 2.400 C 299.653 2.400,299.547 2.507,299.920 2.880 M297.200 3.200 C 297.200 3.420,297.470 3.600,297.800 3.600 C 298.130 3.600,298.400 3.420,298.400 3.200 C 298.400 2.980,298.130 2.800,297.800 2.800 C 297.470 2.800,297.200 2.980,297.200 3.200 M286.720 6.080 C 287.093 6.453,287.307 6.453,287.680 6.080 C 288.053 5.707,287.947 5.600,287.200 5.600 C 286.453 5.600,286.347 5.707,286.720 6.080 M284.800 6.400 C 284.800 6.620,285.070 6.800,285.400 6.800 C 285.730 6.800,286.000 6.620,286.000 6.400 C 286.000 6.180,285.730 6.000,285.400 6.000 C 285.070 6.000,284.800 6.180,284.800 6.400 M281.200 7.600 C 281.200 7.820,281.470 8.000,281.800 8.000 C 282.130 8.000,282.400 7.820,282.400 7.600 C 282.400 7.380,282.130 7.200,281.800 7.200 C 281.470 7.200,281.200 7.380,281.200 7.600 M279.600 8.000 C 279.600 8.220,279.300 8.400,278.933 8.400 C 278.567 8.400,278.365 8.499,278.486 8.619 C 278.810 8.943,280.800 8.373,280.800 7.957 C 280.800 7.760,280.530 7.600,280.200 7.600 C 279.870 7.600,279.600 7.780,279.600 8.000 M319.852 9.300 C 319.477 10.701,319.558 12.400,320.000 12.400 C 320.220 12.400,320.400 11.500,320.400 10.400 C 320.400 8.231,320.230 7.890,319.852 9.300 M268.012 12.384 C 267.688 12.589,267.578 12.901,267.766 13.078 C 267.955 13.255,268.190 13.174,268.289 12.898 C 268.388 12.621,268.621 12.489,268.807 12.604 C 268.993 12.719,269.258 12.630,269.396 12.407 C 269.709 11.900,268.801 11.885,268.012 12.384 M263.900 14.065 C 262.581 14.547,262.398 15.379,263.700 14.974 C 264.195 14.820,264.660 14.537,264.734 14.345 C 264.808 14.152,265.021 14.089,265.207 14.204 C 265.393 14.319,265.658 14.230,265.796 14.007 C 266.104 13.508,265.362 13.531,263.900 14.065 M260.700 15.665 C 259.639 16.052,259.178 16.800,260.000 16.800 C 260.220 16.800,260.400 16.609,260.400 16.376 C 260.400 16.143,260.568 16.056,260.772 16.183 C 260.977 16.309,261.260 16.227,261.400 16.000 C 261.540 15.773,261.823 15.691,262.028 15.817 C 262.232 15.944,262.400 15.857,262.400 15.624 C 262.400 15.124,262.167 15.129,260.700 15.665 M319.467 15.867 C 319.045 16.288,319.156 18.400,319.600 18.400 C 319.820 18.400,320.000 17.770,320.000 17.000 C 320.000 15.561,319.927 15.406,319.467 15.867 M258.012 17.184 C 257.688 17.389,257.544 17.678,257.693 17.826 C 257.841 17.974,258.253 17.804,258.610 17.448 C 259.313 16.744,258.957 16.587,258.012 17.184 M253.600 19.551 C 253.600 19.745,253.060 20.127,252.400 20.400 C 251.740 20.673,251.200 21.034,251.200 21.202 C 251.200 21.370,250.803 21.611,250.317 21.737 C 249.832 21.864,249.547 22.080,249.683 22.217 C 249.919 22.452,251.572 21.755,252.000 21.239 C 252.110 21.107,252.695 20.744,253.300 20.432 C 254.390 19.870,254.771 19.200,254.000 19.200 C 253.780 19.200,253.600 19.358,253.600 19.551 M246.667 23.867 C 246.181 24.353,246.390 24.779,247.000 24.545 C 247.330 24.418,247.600 24.154,247.600 23.957 C 247.600 23.538,247.049 23.484,246.667 23.867 M318.178 24.035 C 318.031 24.274,318.110 24.670,318.355 24.915 C 318.682 25.242,318.800 25.126,318.800 24.480 C 318.800 23.514,318.592 23.365,318.178 24.035 M243.429 26.229 C 242.649 27.009,242.630 27.240,243.369 26.957 C 243.682 26.836,244.036 26.482,244.157 26.169 C 244.440 25.430,244.209 25.449,243.429 26.229 M317.600 27.600 C 317.600 28.040,317.780 28.400,318.000 28.400 C 318.220 28.400,318.400 28.040,318.400 27.600 C 318.400 27.160,318.220 26.800,318.000 26.800 C 317.780 26.800,317.600 27.160,317.600 27.600 M241.093 28.000 C 240.716 28.440,240.508 28.800,240.630 28.800 C 241.148 28.800,242.400 27.941,242.400 27.586 C 242.400 26.960,241.828 27.142,241.093 28.000 M238.070 30.422 C 237.558 31.070,237.301 31.600,237.500 31.600 C 237.911 31.600,239.600 29.890,239.600 29.474 C 239.600 28.896,238.963 29.291,238.070 30.422 M316.578 32.035 C 316.431 32.274,316.510 32.670,316.755 32.915 C 317.082 33.242,317.200 33.126,317.200 32.480 C 317.200 31.514,316.992 31.365,316.578 32.035 M230.651 37.251 C 227.819 40.103,225.603 42.536,225.726 42.660 C 225.948 42.882,236.400 32.667,236.400 32.228 C 236.400 31.598,235.384 32.486,230.651 37.251 M316.000 34.600 C 316.000 34.930,316.180 35.200,316.400 35.200 C 316.620 35.200,316.800 34.930,316.800 34.600 C 316.800 34.270,316.620 34.000,316.400 34.000 C 316.180 34.000,316.000 34.270,316.000 34.600 M224.040 44.449 C 222.802 45.778,223.016 46.365,224.279 45.103 C 224.872 44.510,225.250 43.917,225.119 43.786 C 224.988 43.654,224.502 43.953,224.040 44.449 M221.520 47.568 C 221.158 47.991,220.644 48.745,220.377 49.243 C 220.110 49.742,219.556 50.510,219.146 50.950 C 218.373 51.780,218.180 52.404,218.700 52.395 C 219.071 52.389,220.800 49.763,220.800 49.206 C 220.800 48.983,220.959 48.800,221.154 48.800 C 221.349 48.800,221.803 48.350,222.163 47.800 C 222.934 46.624,222.471 46.457,221.520 47.568 M309.600 52.774 C 309.600 52.980,309.391 53.655,309.135 54.274 C 308.880 54.893,308.700 55.535,308.735 55.700 C 308.771 55.865,308.620 56.000,308.400 56.000 C 308.180 56.000,308.000 56.180,308.000 56.400 C 308.000 57.421,308.817 56.635,309.247 55.200 C 309.511 54.320,309.878 53.600,310.063 53.600 C 310.248 53.600,310.400 53.330,310.400 53.000 C 310.400 52.670,310.220 52.400,310.000 52.400 C 309.780 52.400,309.600 52.568,309.600 52.774 M217.467 53.067 C 217.084 53.449,217.138 54.000,217.557 54.000 C 217.754 54.000,218.018 53.730,218.145 53.400 C 218.379 52.790,217.953 52.581,217.467 53.067 M215.235 56.879 C 214.556 57.802,214.000 58.702,214.000 58.879 C 214.000 59.513,214.751 59.184,214.985 58.448 C 215.116 58.034,215.578 57.286,216.012 56.786 C 216.739 55.948,217.032 55.200,216.635 55.200 C 216.544 55.200,215.914 55.955,215.235 56.879 M213.300 60.223 C 212.711 60.863,212.662 61.200,213.157 61.200 C 213.498 61.200,214.137 59.996,213.909 59.783 C 213.849 59.727,213.575 59.925,213.300 60.223 M305.693 61.200 C 305.418 61.640,305.298 62.000,305.425 62.000 C 305.725 62.000,306.800 60.927,306.800 60.629 C 306.800 60.120,306.162 60.449,305.693 61.200 M212.126 62.275 C 211.979 62.674,211.734 63.090,211.583 63.200 C 211.088 63.560,210.730 65.200,211.146 65.200 C 211.366 65.200,211.670 64.795,211.820 64.300 C 211.971 63.805,212.355 63.103,212.673 62.740 C 213.065 62.293,213.113 61.994,212.823 61.814 C 212.587 61.669,212.274 61.876,212.126 62.275 M304.643 63.033 C 304.493 63.423,304.582 63.606,304.875 63.508 C 305.473 63.309,305.802 62.400,305.276 62.400 C 305.061 62.400,304.776 62.685,304.643 63.033 M303.500 65.014 C 302.697 66.088,302.632 66.400,303.210 66.400 C 303.586 66.400,304.567 64.426,304.311 64.184 C 304.250 64.126,303.885 64.500,303.500 65.014 M302.197 67.340 C 301.630 67.986,300.524 69.741,300.456 70.100 C 300.425 70.265,300.085 70.747,299.700 71.171 C 298.528 72.463,298.129 73.009,297.616 74.025 C 297.140 74.966,297.156 74.963,298.062 73.934 C 299.961 71.775,300.455 71.117,300.887 70.169 C 301.130 69.636,301.451 69.200,301.600 69.200 C 301.888 69.200,302.910 67.172,302.715 66.989 C 302.652 66.929,302.419 67.088,302.197 67.340 M208.590 70.030 C 208.212 71.222,208.527 71.315,209.067 70.171 C 209.319 69.637,209.374 69.200,209.189 69.200 C 209.005 69.200,208.735 69.574,208.590 70.030 M295.990 76.018 C 295.586 76.774,295.615 76.797,296.376 76.322 C 297.242 75.781,297.469 75.200,296.814 75.200 C 296.602 75.200,296.231 75.568,295.990 76.018 M205.353 78.736 C 205.214 79.431,204.943 80.000,204.750 80.000 C 204.558 80.000,204.400 80.360,204.400 80.800 C 204.400 82.278,205.061 81.617,205.500 79.701 C 205.739 78.656,205.860 77.727,205.770 77.637 C 205.680 77.546,205.492 78.041,205.353 78.736 M293.420 78.938 C 292.037 80.751,292.132 81.101,293.600 79.600 C 294.666 78.509,295.130 77.600,294.620 77.600 C 294.522 77.600,293.982 78.202,293.420 78.938 M287.900 84.780 C 285.255 87.440,284.847 88.000,285.548 88.000 C 286.002 88.000,291.200 82.802,291.200 82.348 C 291.200 81.639,290.536 82.129,287.900 84.780 M202.800 86.600 C 202.800 86.930,202.980 87.200,203.200 87.200 C 203.420 87.200,203.600 86.930,203.600 86.600 C 203.600 86.270,203.420 86.000,203.200 86.000 C 202.980 86.000,202.800 86.270,202.800 86.600 M282.900 89.646 C 282.185 90.104,281.600 90.641,281.600 90.839 C 281.600 91.455,282.017 91.245,283.262 90.000 C 284.678 88.584,284.631 88.538,282.900 89.646 M279.400 92.400 C 279.002 92.840,278.839 93.194,279.038 93.187 C 279.503 93.171,280.800 92.191,280.800 91.856 C 280.800 91.348,280.109 91.616,279.400 92.400 M201.200 93.600 C 201.200 94.040,201.380 94.400,201.600 94.400 C 201.820 94.400,202.000 94.040,202.000 93.600 C 202.000 93.160,201.820 92.800,201.600 92.800 C 201.380 92.800,201.200 93.160,201.200 93.600 M274.200 96.218 C 273.540 96.763,272.055 97.784,270.900 98.489 C 268.921 99.695,268.294 100.400,269.200 100.400 C 269.420 100.400,269.600 100.220,269.600 100.000 C 269.600 99.780,269.876 99.600,270.213 99.600 C 270.549 99.600,270.924 99.341,271.046 99.025 C 271.167 98.709,271.521 98.548,271.833 98.668 C 272.145 98.788,272.400 98.682,272.400 98.433 C 272.400 98.184,272.850 97.809,273.400 97.600 C 273.950 97.391,274.400 97.047,274.400 96.837 C 274.400 96.626,274.760 96.340,275.200 96.200 C 275.640 96.060,276.000 95.778,276.000 95.573 C 276.000 94.975,275.484 95.160,274.200 96.218 M200.800 96.824 C 200.800 97.277,200.980 97.536,201.200 97.400 C 201.420 97.264,201.600 96.893,201.600 96.576 C 201.600 96.259,201.420 96.000,201.200 96.000 C 200.980 96.000,200.800 96.371,200.800 96.824 M265.612 101.584 C 265.288 101.789,265.127 102.061,265.254 102.188 C 265.569 102.503,266.800 102.001,266.800 101.557 C 266.800 101.101,266.360 101.111,265.612 101.584 M263.500 102.865 C 262.895 103.086,262.400 103.451,262.400 103.676 C 262.400 103.901,262.685 103.976,263.033 103.843 C 263.381 103.709,263.811 103.600,263.990 103.600 C 264.168 103.600,264.418 103.330,264.545 103.000 C 264.671 102.670,264.736 102.414,264.687 102.432 C 264.639 102.449,264.105 102.644,263.500 102.865 M261.029 104.229 C 260.605 104.538,260.372 104.905,260.510 105.043 C 260.649 105.182,261.062 104.995,261.429 104.629 C 262.291 103.766,262.025 103.500,261.029 104.229 M199.600 105.400 C 199.600 106.170,199.780 106.800,200.000 106.800 C 200.220 106.800,200.400 106.170,200.400 105.400 C 200.400 104.630,200.220 104.000,200.000 104.000 C 199.780 104.000,199.600 104.630,199.600 105.400 M257.600 105.861 C 257.049 106.152,256.869 106.388,257.200 106.388 C 257.890 106.388,259.070 105.720,258.788 105.489 C 258.685 105.404,258.150 105.571,257.600 105.861 M238.000 113.200 C 238.000 113.420,238.360 113.600,238.800 113.600 C 239.240 113.600,239.600 113.420,239.600 113.200 C 239.600 112.980,239.240 112.800,238.800 112.800 C 238.360 112.800,238.000 112.980,238.000 113.200 M232.000 114.800 C 232.000 115.020,232.360 115.200,232.800 115.200 C 233.240 115.200,233.600 115.020,233.600 114.800 C 233.600 114.580,233.240 114.400,232.800 114.400 C 232.360 114.400,232.000 114.580,232.000 114.800 M224.800 116.400 C 224.800 116.620,225.070 116.800,225.400 116.800 C 225.730 116.800,226.000 116.620,226.000 116.400 C 226.000 116.180,225.730 116.000,225.400 116.000 C 225.070 116.000,224.800 116.180,224.800 116.400 M222.200 116.800 C 222.064 117.020,222.323 117.200,222.776 117.200 C 223.229 117.200,223.600 117.020,223.600 116.800 C 223.600 116.580,223.341 116.400,223.024 116.400 C 222.707 116.400,222.336 116.580,222.200 116.800 M215.600 118.000 C 215.600 118.220,215.960 118.400,216.400 118.400 C 216.840 118.400,217.200 118.220,217.200 118.000 C 217.200 117.780,216.840 117.600,216.400 117.600 C 215.960 117.600,215.600 117.780,215.600 118.000 M211.400 118.400 C 211.256 118.633,211.663 118.800,212.376 118.800 C 213.049 118.800,213.600 118.620,213.600 118.400 C 213.600 118.180,213.161 118.000,212.624 118.000 C 212.087 118.000,211.536 118.180,211.400 118.400 M207.200 118.800 C 206.260 119.101,206.279 119.123,207.524 119.160 C 208.313 119.184,208.747 119.038,208.600 118.800 C 208.464 118.580,208.318 118.418,208.276 118.440 C 208.234 118.462,207.750 118.624,207.200 118.800 M199.600 119.600 C 199.600 119.820,200.230 120.000,201.000 120.000 C 201.770 120.000,202.400 119.820,202.400 119.600 C 202.400 119.380,201.770 119.200,201.000 119.200 C 200.230 119.200,199.600 119.380,199.600 119.600 M286.600 158.800 C 286.736 159.020,287.366 159.200,288.000 159.200 C 288.634 159.200,289.264 159.020,289.400 158.800 C 289.550 158.558,288.996 158.400,288.000 158.400 C 287.004 158.400,286.450 158.558,286.600 158.800 M302.200 158.800 C 302.336 159.020,303.157 159.200,304.024 159.200 C 304.891 159.200,305.600 159.020,305.600 158.800 C 305.600 158.580,304.779 158.400,303.776 158.400 C 302.663 158.400,302.049 158.556,302.200 158.800 M280.800 159.200 C 280.800 159.420,281.250 159.600,281.800 159.600 C 282.350 159.600,282.800 159.420,282.800 159.200 C 282.800 158.980,282.350 158.800,281.800 158.800 C 281.250 158.800,280.800 158.980,280.800 159.200 M308.800 159.200 C 308.800 159.420,309.250 159.600,309.800 159.600 C 310.350 159.600,310.800 159.420,310.800 159.200 C 310.800 158.980,310.350 158.800,309.800 158.800 C 309.250 158.800,308.800 158.980,308.800 159.200 M276.577 159.962 C 276.700 160.162,277.161 160.231,277.600 160.116 C 278.701 159.828,278.602 159.600,277.376 159.600 C 276.813 159.600,276.454 159.763,276.577 159.962 M273.200 160.400 C 273.200 160.620,273.560 160.800,274.000 160.800 C 274.440 160.800,274.800 160.620,274.800 160.400 C 274.800 160.180,274.440 160.000,274.000 160.000 C 273.560 160.000,273.200 160.180,273.200 160.400 M316.200 160.400 C 316.336 160.620,316.707 160.800,317.024 160.800 C 317.341 160.800,317.600 160.620,317.600 160.400 C 317.600 160.180,317.229 160.000,316.776 160.000 C 316.323 160.000,316.064 160.180,316.200 160.400 M270.000 160.800 C 270.000 161.020,270.360 161.200,270.800 161.200 C 271.240 161.200,271.600 161.020,271.600 160.800 C 271.600 160.580,271.240 160.400,270.800 160.400 C 270.360 160.400,270.000 160.580,270.000 160.800 M318.800 160.800 C 318.800 161.020,319.160 161.200,319.600 161.200 C 320.040 161.200,320.400 161.020,320.400 160.800 C 320.400 160.580,320.040 160.400,319.600 160.400 C 319.160 160.400,318.800 160.580,318.800 160.800 M116.115 161.448 C 116.251 161.584,118.179 161.696,120.400 161.696 C 122.621 161.696,124.549 161.584,124.685 161.448 C 124.822 161.312,122.893 161.200,120.400 161.200 C 117.907 161.200,115.978 161.312,116.115 161.448 M108.400 162.000 C 108.400 162.220,108.749 162.400,109.176 162.400 C 109.603 162.400,110.064 162.220,110.200 162.000 C 110.340 161.773,110.004 161.600,109.424 161.600 C 108.861 161.600,108.400 161.780,108.400 162.000 M130.600 162.000 C 130.736 162.220,131.197 162.400,131.624 162.400 C 132.051 162.400,132.400 162.220,132.400 162.000 C 132.400 161.780,131.939 161.600,131.376 161.600 C 130.796 161.600,130.460 161.773,130.600 162.000 M104.000 162.400 C 104.000 162.620,104.360 162.800,104.800 162.800 C 105.240 162.800,105.600 162.620,105.600 162.400 C 105.600 162.180,105.240 162.000,104.800 162.000 C 104.360 162.000,104.000 162.180,104.000 162.400 M135.400 162.400 C 135.260 162.627,135.596 162.800,136.176 162.800 C 136.739 162.800,137.200 162.620,137.200 162.400 C 137.200 162.180,136.851 162.000,136.424 162.000 C 135.997 162.000,135.536 162.180,135.400 162.400 M262.800 162.400 C 262.800 162.620,263.070 162.800,263.400 162.800 C 263.730 162.800,264.000 162.620,264.000 162.400 C 264.000 162.180,263.730 162.000,263.400 162.000 C 263.070 162.000,262.800 162.180,262.800 162.400 M325.600 162.400 C 325.600 162.620,325.870 162.800,326.200 162.800 C 326.530 162.800,326.800 162.620,326.800 162.400 C 326.800 162.180,326.530 162.000,326.200 162.000 C 325.870 162.000,325.600 162.180,325.600 162.400 M97.600 163.600 C 97.600 163.820,97.859 164.000,98.176 164.000 C 98.493 164.000,98.864 163.820,99.000 163.600 C 99.136 163.380,98.877 163.200,98.424 163.200 C 97.971 163.200,97.600 163.380,97.600 163.600 M142.200 163.600 C 142.336 163.820,142.707 164.000,143.024 164.000 C 143.341 164.000,143.600 163.820,143.600 163.600 C 143.600 163.380,143.229 163.200,142.776 163.200 C 142.323 163.200,142.064 163.380,142.200 163.600 M329.200 163.600 C 329.200 163.820,329.470 164.000,329.800 164.000 C 330.130 164.000,330.400 163.820,330.400 163.600 C 330.400 163.380,330.130 163.200,329.800 163.200 C 329.470 163.200,329.200 163.380,329.200 163.600 M94.800 164.000 C 94.800 164.220,95.160 164.400,95.600 164.400 C 96.040 164.400,96.400 164.220,96.400 164.000 C 96.400 163.780,96.040 163.600,95.600 163.600 C 95.160 163.600,94.800 163.780,94.800 164.000 M144.800 164.000 C 144.800 164.220,145.160 164.400,145.600 164.400 C 146.040 164.400,146.400 164.220,146.400 164.000 C 146.400 163.780,146.040 163.600,145.600 163.600 C 145.160 163.600,144.800 163.780,144.800 164.000 M330.800 164.000 C 330.800 164.220,331.070 164.400,331.400 164.400 C 331.730 164.400,332.000 164.220,332.000 164.000 C 332.000 163.780,331.730 163.600,331.400 163.600 C 331.070 163.600,330.800 163.780,330.800 164.000 M334.000 165.113 C 334.000 165.561,335.971 166.162,336.314 165.819 C 336.632 165.501,336.339 165.300,335.099 164.989 C 334.449 164.826,334.000 164.877,334.000 165.113 M151.600 165.600 C 151.600 165.820,151.870 166.000,152.200 166.000 C 152.530 166.000,152.800 165.820,152.800 165.600 C 152.800 165.380,152.530 165.200,152.200 165.200 C 151.870 165.200,151.600 165.380,151.600 165.600 M252.800 165.600 C 252.800 165.820,253.070 166.000,253.400 166.000 C 253.730 166.000,254.000 165.820,254.000 165.600 C 254.000 165.380,253.730 165.200,253.400 165.200 C 253.070 165.200,252.800 165.380,252.800 165.600 M337.600 166.539 C 338.150 166.829,338.685 166.996,338.788 166.911 C 339.070 166.680,337.890 166.012,337.200 166.012 C 336.869 166.012,337.049 166.248,337.600 166.539 M156.800 167.200 C 156.800 167.420,157.070 167.600,157.400 167.600 C 157.730 167.600,158.000 167.420,158.000 167.200 C 158.000 166.980,157.730 166.800,157.400 166.800 C 157.070 166.800,156.800 166.980,156.800 167.200 M248.000 167.200 C 248.000 167.420,248.270 167.600,248.600 167.600 C 248.930 167.600,249.200 167.420,249.200 167.200 C 249.200 166.980,248.930 166.800,248.600 166.800 C 248.270 166.800,248.000 166.980,248.000 167.200 M339.200 167.200 C 339.200 167.420,339.425 167.601,339.700 167.602 C 339.975 167.604,340.695 167.863,341.300 168.179 C 341.905 168.494,342.400 168.587,342.400 168.384 C 342.400 168.181,341.950 167.902,341.400 167.764 C 340.850 167.626,340.400 167.353,340.400 167.157 C 340.400 166.960,340.130 166.800,339.800 166.800 C 339.470 166.800,339.200 166.980,339.200 167.200 M79.600 168.757 C 79.600 168.953,79.129 169.232,78.553 169.376 C 77.977 169.521,77.581 169.714,77.673 169.806 C 77.765 169.899,78.507 169.770,79.320 169.520 C 80.803 169.065,81.326 168.400,80.200 168.400 C 79.870 168.400,79.600 168.560,79.600 168.757 M161.600 168.800 C 161.600 169.020,161.870 169.200,162.200 169.200 C 162.530 169.200,162.800 169.020,162.800 168.800 C 162.800 168.580,162.530 168.400,162.200 168.400 C 161.870 168.400,161.600 168.580,161.600 168.800 M166.400 170.400 C 166.400 170.620,166.670 170.800,167.000 170.800 C 167.330 170.800,167.600 170.620,167.600 170.400 C 167.600 170.180,167.330 170.000,167.000 170.000 C 166.670 170.000,166.400 170.180,166.400 170.400 M74.500 170.998 C 73.756 171.843,73.889 171.977,74.966 171.469 C 75.497 171.218,75.846 170.875,75.742 170.707 C 75.466 170.260,75.067 170.354,74.500 170.998 M347.200 170.700 C 347.200 170.869,347.560 171.232,348.000 171.507 C 348.440 171.782,348.800 171.869,348.800 171.700 C 348.800 171.531,348.440 171.168,348.000 170.893 C 347.560 170.618,347.200 170.531,347.200 170.700 M171.200 172.000 C 171.200 172.220,171.470 172.400,171.800 172.400 C 172.130 172.400,172.400 172.220,172.400 172.000 C 172.400 171.780,172.130 171.600,171.800 171.600 C 171.470 171.600,171.200 171.780,171.200 172.000 M233.200 172.000 C 233.200 172.220,233.470 172.400,233.800 172.400 C 234.130 172.400,234.400 172.220,234.400 172.000 C 234.400 171.780,234.130 171.600,233.800 171.600 C 233.470 171.600,233.200 171.780,233.200 172.000 M349.200 171.909 C 349.200 172.273,351.193 173.341,351.430 173.103 C 351.500 173.034,351.431 172.781,351.278 172.542 C 350.910 171.967,349.200 171.445,349.200 171.909 M71.300 172.598 C 70.557 173.442,70.694 173.673,71.600 173.107 C 72.040 172.832,72.400 172.471,72.400 172.304 C 72.400 171.827,71.849 171.975,71.300 172.598 M231.600 172.400 C 231.600 172.620,231.870 172.800,232.200 172.800 C 232.530 172.800,232.800 172.620,232.800 172.400 C 232.800 172.180,232.530 172.000,232.200 172.000 C 231.870 172.000,231.600 172.180,231.600 172.400 M69.134 173.469 C 68.560 173.621,67.727 174.800,68.194 174.800 C 68.694 174.800,70.400 173.823,70.400 173.536 C 70.400 173.185,70.238 173.177,69.134 173.469 M176.400 173.600 C 176.400 173.820,176.670 174.000,177.000 174.000 C 177.330 174.000,177.600 173.820,177.600 173.600 C 177.600 173.380,177.330 173.200,177.000 173.200 C 176.670 173.200,176.400 173.380,176.400 173.600 M228.400 173.600 C 228.400 173.820,228.670 174.000,229.000 174.000 C 229.330 174.000,229.600 173.820,229.600 173.600 C 229.600 173.380,229.330 173.200,229.000 173.200 C 228.670 173.200,228.400 173.380,228.400 173.600 M352.000 173.573 C 352.000 173.778,352.339 174.054,352.752 174.185 C 353.166 174.316,353.910 174.775,354.404 175.204 C 354.899 175.632,355.486 175.871,355.709 175.733 C 355.932 175.595,355.599 175.212,354.970 174.883 C 354.341 174.553,353.583 174.040,353.285 173.742 C 352.659 173.117,352.000 173.030,352.000 173.573 M178.000 174.000 C 178.000 174.220,178.270 174.400,178.600 174.400 C 178.930 174.400,179.200 174.220,179.200 174.000 C 179.200 173.780,178.930 173.600,178.600 173.600 C 178.270 173.600,178.000 173.780,178.000 174.000 M226.800 174.000 C 226.800 174.220,227.070 174.400,227.400 174.400 C 227.730 174.400,228.000 174.220,228.000 174.000 C 228.000 173.780,227.730 173.600,227.400 173.600 C 227.070 173.600,226.800 173.780,226.800 174.000 M66.329 175.322 C 66.038 175.610,65.485 175.964,65.100 176.110 C 64.715 176.256,64.400 176.566,64.400 176.799 C 64.400 177.033,65.119 176.814,65.997 176.312 C 66.875 175.810,67.595 175.265,67.597 175.100 C 67.602 174.628,66.909 174.749,66.329 175.322 M181.200 175.200 C 181.200 175.420,181.470 175.600,181.800 175.600 C 182.130 175.600,182.400 175.420,182.400 175.200 C 182.400 174.980,182.130 174.800,181.800 174.800 C 181.470 174.800,181.200 174.980,181.200 175.200 M182.800 175.600 C 182.800 175.820,183.070 176.000,183.400 176.000 C 183.730 176.000,184.000 175.820,184.000 175.600 C 184.000 175.380,183.730 175.200,183.400 175.200 C 183.070 175.200,182.800 175.380,182.800 175.600 M222.000 175.600 C 222.000 175.820,222.270 176.000,222.600 176.000 C 222.930 176.000,223.200 175.820,223.200 175.600 C 223.200 175.380,222.930 175.200,222.600 175.200 C 222.270 175.200,222.000 175.380,222.000 175.600 M356.408 176.459 C 357.618 177.681,358.926 178.184,358.416 177.230 C 358.172 176.774,357.813 176.400,357.619 176.400 C 357.424 176.400,356.936 176.275,356.533 176.122 C 355.876 175.874,355.863 175.909,356.408 176.459 M187.600 177.200 C 187.600 177.420,187.870 177.600,188.200 177.600 C 188.530 177.600,188.800 177.420,188.800 177.200 C 188.800 176.980,188.530 176.800,188.200 176.800 C 187.870 176.800,187.600 176.980,187.600 177.200 M61.467 178.267 C 60.981 178.753,61.190 179.179,61.800 178.945 C 62.130 178.818,62.400 178.554,62.400 178.357 C 62.400 177.938,61.849 177.884,61.467 178.267 M359.200 178.324 C 359.200 178.539,359.485 178.824,359.833 178.957 C 360.223 179.107,360.406 179.018,360.308 178.725 C 360.109 178.127,359.200 177.798,359.200 178.324 M362.400 180.800 C 363.390 181.667,364.335 182.381,364.500 182.388 C 365.136 182.413,364.758 181.606,363.925 181.160 C 363.444 180.902,362.690 180.356,362.250 179.946 C 361.809 179.536,361.258 179.205,361.025 179.212 C 360.791 179.219,361.410 179.933,362.400 180.800 M208.800 180.000 C 208.800 180.220,209.070 180.400,209.400 180.400 C 209.730 180.400,210.000 180.220,210.000 180.000 C 210.000 179.780,209.730 179.600,209.400 179.600 C 209.070 179.600,208.800 179.780,208.800 180.000 M58.243 180.633 C 58.093 181.023,58.182 181.206,58.475 181.108 C 59.073 180.909,59.402 180.000,58.876 180.000 C 58.661 180.000,58.376 180.285,58.243 180.633 M197.600 180.400 C 197.600 180.620,197.870 180.800,198.200 180.800 C 198.530 180.800,198.800 180.620,198.800 180.400 C 198.800 180.180,198.530 180.000,198.200 180.000 C 197.870 180.000,197.600 180.180,197.600 180.400 M207.200 180.400 C 207.200 180.620,207.470 180.800,207.800 180.800 C 208.130 180.800,208.400 180.620,208.400 180.400 C 208.400 180.180,208.130 180.000,207.800 180.000 C 207.470 180.000,207.200 180.180,207.200 180.400 M202.400 182.000 C 202.400 182.220,202.670 182.400,203.000 182.400 C 203.330 182.400,203.600 182.220,203.600 182.000 C 203.600 181.780,203.330 181.600,203.000 181.600 C 202.670 181.600,202.400 181.780,202.400 182.000 M365.600 183.186 C 365.600 183.398,365.946 183.757,366.369 183.983 C 366.792 184.210,367.422 184.679,367.769 185.026 C 368.116 185.373,368.400 185.509,368.400 185.327 C 368.400 184.961,366.208 182.800,365.836 182.800 C 365.706 182.800,365.600 182.974,365.600 183.186 M53.608 184.224 C 53.063 184.761,52.793 185.194,53.008 185.187 C 53.464 185.171,55.200 183.784,55.200 183.436 C 55.200 182.962,54.577 183.271,53.608 184.224 M50.000 187.200 C 48.845 188.267,48.489 188.800,48.933 188.800 C 49.300 188.800,49.600 188.643,49.600 188.452 C 49.600 188.260,50.229 187.675,50.997 187.152 C 52.335 186.240,52.777 185.600,52.067 185.600 C 51.883 185.600,50.953 186.320,50.000 187.200 M369.256 186.300 C 369.354 186.828,378.400 195.378,378.400 194.943 C 378.400 194.394,370.154 186.000,369.615 186.000 C 369.387 186.000,369.225 186.135,369.256 186.300 M44.447 192.230 C 43.263 193.438,42.412 194.546,42.557 194.690 C 42.834 194.968,47.200 190.852,47.200 190.314 C 47.200 189.641,46.517 190.117,44.447 192.230 M39.631 197.664 C 37.623 199.712,37.450 200.686,39.433 198.778 C 40.780 197.483,41.853 196.000,41.445 196.000 C 41.344 196.000,40.528 196.749,39.631 197.664 M379.749 197.100 C 380.118 197.815,380.596 198.400,380.810 198.400 C 381.469 198.400,381.234 197.846,380.132 196.800 L 379.077 195.800 379.749 197.100 M381.988 199.978 C 382.418 200.781,383.200 201.439,383.200 200.997 C 383.200 200.448,382.347 199.200,381.972 199.200 C 381.711 199.200,381.716 199.470,381.988 199.978 M35.833 202.011 C 35.192 202.665,34.801 203.335,34.966 203.499 C 35.256 203.789,36.050 202.943,36.843 201.500 C 37.373 200.537,37.188 200.630,35.833 202.011 M384.271 202.954 C 384.672 203.478,385.270 204.310,385.600 204.803 C 385.930 205.295,386.394 205.903,386.632 206.153 C 386.870 206.403,386.990 206.831,386.899 207.104 C 386.808 207.377,386.928 207.600,387.167 207.600 C 387.755 207.600,387.715 206.578,387.100 205.929 C 386.825 205.638,386.081 204.635,385.446 203.700 C 384.811 202.765,384.123 202.000,383.917 202.000 C 383.711 202.000,383.870 202.429,384.271 202.954 M33.145 205.251 C 32.625 205.938,31.870 206.853,31.467 207.284 C 31.063 207.714,30.859 208.187,31.014 208.333 C 31.168 208.480,31.498 208.258,31.747 207.839 C 31.996 207.421,32.622 206.701,33.137 206.239 C 34.257 205.236,34.987 204.000,34.459 204.000 C 34.256 204.000,33.665 204.563,33.145 205.251 M384.500 208.196 C 383.785 208.507,383.200 208.880,383.200 209.024 C 383.200 209.454,385.249 208.808,385.877 208.180 C 386.597 207.460,386.184 207.465,384.500 208.196 M29.900 209.357 C 29.128 209.943,28.990 210.400,29.586 210.400 C 29.798 210.400,30.165 210.040,30.400 209.600 C 30.899 208.668,30.843 208.641,29.900 209.357 M380.800 210.000 C 380.483 210.196,380.356 210.489,380.518 210.652 C 380.681 210.814,381.023 210.737,381.280 210.480 C 381.884 209.876,381.547 209.538,380.800 210.000 M28.320 211.568 C 27.958 211.991,27.441 212.756,27.171 213.268 C 26.901 213.781,26.552 214.290,26.396 214.400 C 26.240 214.510,25.797 215.213,25.413 215.962 C 24.709 217.337,24.344 217.855,23.139 219.189 C 22.280 220.141,21.816 221.600,22.373 221.600 C 22.608 221.600,22.800 221.459,22.800 221.287 C 22.800 220.799,25.554 216.538,28.100 213.088 C 28.925 211.970,29.600 210.998,29.600 210.928 C 29.600 210.545,28.893 210.899,28.320 211.568 M378.812 211.184 C 378.488 211.389,378.344 211.678,378.493 211.826 C 378.641 211.974,379.053 211.804,379.410 211.448 C 380.113 210.744,379.757 210.587,378.812 211.184 M374.616 213.797 C 373.964 214.329,373.584 214.908,373.770 215.082 C 373.957 215.257,374.194 215.163,374.297 214.874 C 374.400 214.585,374.915 214.184,375.442 213.984 C 375.969 213.784,376.400 213.435,376.400 213.210 C 376.400 212.578,375.909 212.740,374.616 213.797 M372.400 215.200 C 372.083 215.396,371.956 215.689,372.118 215.852 C 372.281 216.014,372.623 215.937,372.880 215.680 C 373.484 215.076,373.147 214.738,372.400 215.200 M369.567 217.420 C 369.035 217.981,367.880 219.054,367.000 219.803 C 366.120 220.553,365.587 221.174,365.817 221.183 C 366.046 221.193,366.873 220.615,367.654 219.900 C 368.436 219.185,369.553 218.260,370.138 217.844 C 371.176 217.105,371.532 216.400,370.867 216.400 C 370.683 216.400,370.098 216.859,369.567 217.420 M20.200 224.400 C 20.060 224.840,19.796 225.200,19.612 225.200 C 19.279 225.200,18.285 227.618,18.520 227.854 C 18.589 227.922,19.210 226.993,19.901 225.789 C 20.593 224.585,21.000 223.600,20.806 223.600 C 20.612 223.600,20.340 223.960,20.200 224.400 M359.328 227.302 C 358.883 227.796,358.383 228.438,358.218 228.730 C 357.724 229.597,359.389 228.429,359.968 227.502 C 360.672 226.375,360.274 226.251,359.328 227.302 M356.198 230.802 C 355.798 231.244,355.592 231.726,355.740 231.873 C 355.991 232.124,357.600 230.691,357.600 230.217 C 357.600 229.744,356.886 230.042,356.198 230.802 M353.631 234.430 C 352.755 235.990,352.750 236.038,353.532 235.550 C 353.981 235.269,354.450 234.761,354.575 234.420 C 354.699 234.079,354.905 233.575,355.034 233.300 C 355.625 232.031,354.445 232.982,353.631 234.430 M13.316 237.406 C 12.672 238.106,12.214 240.000,12.690 240.000 C 13.014 240.000,14.125 237.180,13.887 236.961 C 13.839 236.917,13.582 237.117,13.316 237.406 M350.449 239.052 C 350.186 239.630,350.027 240.160,350.097 240.230 C 350.376 240.510,351.109 239.747,351.373 238.900 C 351.764 237.649,351.034 237.769,350.449 239.052 M348.533 242.403 C 348.057 243.281,347.832 244.000,348.033 244.000 C 348.235 244.000,348.400 243.848,348.400 243.661 C 348.400 243.475,348.760 242.907,349.200 242.400 C 350.023 241.451,350.228 240.797,349.700 240.803 C 349.535 240.805,349.010 241.525,348.533 242.403 M9.200 247.400 C 9.200 247.730,9.380 248.000,9.600 248.000 C 9.820 248.000,10.000 247.730,10.000 247.400 C 10.000 247.070,9.820 246.800,9.600 246.800 C 9.380 246.800,9.200 247.070,9.200 247.400 M343.824 251.847 C 343.679 252.423,343.660 252.993,343.781 253.114 C 343.901 253.235,344.000 253.033,344.000 252.667 C 344.000 252.300,344.180 252.000,344.400 252.000 C 344.620 252.000,344.800 251.730,344.800 251.400 C 344.800 250.407,344.106 250.725,343.824 251.847 M342.782 254.434 C 342.267 255.396,342.656 256.073,343.216 255.188 C 343.608 254.568,343.729 253.600,343.414 253.600 C 343.312 253.600,343.027 253.975,342.782 254.434 M6.000 257.000 C 6.000 257.330,6.180 257.600,6.400 257.600 C 6.620 257.600,6.800 257.330,6.800 257.000 C 6.800 256.670,6.620 256.400,6.400 256.400 C 6.180 256.400,6.000 256.670,6.000 257.000 M340.800 259.800 C 340.800 260.130,340.980 260.400,341.200 260.400 C 341.420 260.400,341.600 260.130,341.600 259.800 C 341.600 259.470,341.420 259.200,341.200 259.200 C 340.980 259.200,340.800 259.470,340.800 259.800 M4.400 262.800 C 4.400 263.240,4.580 263.600,4.800 263.600 C 5.020 263.600,5.200 263.240,5.200 262.800 C 5.200 262.360,5.020 262.000,4.800 262.000 C 4.580 262.000,4.400 262.360,4.400 262.800 M2.800 269.600 C 2.800 270.040,2.980 270.400,3.200 270.400 C 3.420 270.400,3.600 270.040,3.600 269.600 C 3.600 269.160,3.420 268.800,3.200 268.800 C 2.980 268.800,2.800 269.160,2.800 269.600 M337.600 271.400 C 337.600 271.730,337.780 272.000,338.000 272.000 C 338.220 272.000,338.400 271.730,338.400 271.400 C 338.400 271.070,338.220 270.800,338.000 270.800 C 337.780 270.800,337.600 271.070,337.600 271.400 M2.400 272.800 C 2.400 273.547,2.507 273.653,2.880 273.280 C 3.253 272.907,3.253 272.693,2.880 272.320 C 2.507 271.947,2.400 272.053,2.400 272.800 M337.200 274.000 C 337.200 274.440,337.380 274.800,337.600 274.800 C 337.820 274.800,338.000 274.440,338.000 274.000 C 338.000 273.560,337.820 273.200,337.600 273.200 C 337.380 273.200,337.200 273.560,337.200 274.000 M1.200 279.400 C 1.200 279.950,1.380 280.400,1.600 280.400 C 1.820 280.400,2.000 279.950,2.000 279.400 C 2.000 278.850,1.820 278.400,1.600 278.400 C 1.380 278.400,1.200 278.850,1.200 279.400 M336.267 279.467 C 335.852 279.882,335.953 281.200,336.400 281.200 C 336.620 281.200,336.800 280.750,336.800 280.200 C 336.800 279.153,336.708 279.026,336.267 279.467 M0.800 283.824 C 0.800 284.404,0.973 284.740,1.200 284.600 C 1.720 284.278,1.720 282.800,1.200 282.800 C 0.980 282.800,0.800 283.261,0.800 283.824 M335.600 284.200 C 335.600 284.750,335.780 285.200,336.000 285.200 C 336.220 285.200,336.400 284.750,336.400 284.200 C 336.400 283.650,336.220 283.200,336.000 283.200 C 335.780 283.200,335.600 283.650,335.600 284.200 M0.509 289.600 C 0.509 290.590,0.587 290.995,0.682 290.500 C 0.778 290.005,0.778 289.195,0.682 288.700 C 0.587 288.205,0.509 288.610,0.509 289.600 M335.314 290.600 C 335.317 291.700,335.395 292.103,335.487 291.495 C 335.579 290.886,335.577 289.986,335.482 289.495 C 335.387 289.003,335.311 289.500,335.314 290.600 M0.155 303.000 C 0.156 305.860,0.220 306.978,0.297 305.483 C 0.374 303.989,0.374 301.649,0.296 300.283 C 0.218 298.918,0.155 300.140,0.155 303.000 M335.309 307.600 C 335.309 308.590,335.387 308.995,335.482 308.500 C 335.578 308.005,335.578 307.195,335.482 306.700 C 335.387 306.205,335.309 306.610,335.309 307.600 M335.600 312.800 C 335.600 313.240,335.780 313.600,336.000 313.600 C 336.220 313.600,336.400 313.240,336.400 312.800 C 336.400 312.360,336.220 312.000,336.000 312.000 C 335.780 312.000,335.600 312.360,335.600 312.800 M0.501 316.600 C 0.505 317.480,0.587 317.793,0.683 317.295 C 0.779 316.798,0.775 316.078,0.675 315.695 C 0.575 315.313,0.496 315.720,0.501 316.600 M336.000 316.176 C 336.000 316.493,336.180 316.864,336.400 317.000 C 336.620 317.136,336.800 316.877,336.800 316.424 C 336.800 315.971,336.620 315.600,336.400 315.600 C 336.180 315.600,336.000 315.859,336.000 316.176 M337.200 321.600 C 337.200 322.040,337.380 322.400,337.600 322.400 C 337.820 322.400,338.000 322.040,338.000 321.600 C 338.000 321.160,337.820 320.800,337.600 320.800 C 337.380 320.800,337.200 321.160,337.200 321.600 M0.806 322.700 C 0.803 323.415,0.980 324.000,1.200 324.000 C 1.708 324.000,1.708 322.786,1.200 322.000 C 0.906 321.545,0.811 321.714,0.806 322.700 M1.200 327.800 C 1.200 328.350,1.380 328.800,1.600 328.800 C 1.820 328.800,2.000 328.350,2.000 327.800 C 2.000 327.250,1.820 326.800,1.600 326.800 C 1.380 326.800,1.200 327.250,1.200 327.800 M338.800 327.800 C 338.800 328.130,338.980 328.400,339.200 328.400 C 339.420 328.400,339.600 328.130,339.600 327.800 C 339.600 327.470,339.420 327.200,339.200 327.200 C 338.980 327.200,338.800 327.470,338.800 327.800 M339.200 329.400 C 339.200 329.730,339.380 330.000,339.600 330.000 C 339.820 330.000,340.000 329.730,340.000 329.400 C 340.000 329.070,339.820 328.800,339.600 328.800 C 339.380 328.800,339.200 329.070,339.200 329.400 M340.400 332.600 C 340.400 332.930,340.580 333.200,340.800 333.200 C 341.020 333.200,341.200 332.930,341.200 332.600 C 341.200 332.270,341.020 332.000,340.800 332.000 C 340.580 332.000,340.400 332.270,340.400 332.600 M2.400 335.176 C 2.400 335.629,2.580 336.000,2.800 336.000 C 3.020 336.000,3.200 335.741,3.200 335.424 C 3.200 335.107,3.020 334.736,2.800 334.600 C 2.580 334.464,2.400 334.723,2.400 335.176 M341.881 335.937 C 342.325 337.880,342.528 338.400,342.843 338.400 C 343.040 338.400,343.200 338.130,343.200 337.800 C 343.200 337.470,343.055 337.200,342.877 337.200 C 342.700 337.200,342.375 336.795,342.156 336.300 C 341.937 335.805,341.813 335.642,341.881 335.937 M2.800 338.400 C 2.800 338.840,2.980 339.200,3.200 339.200 C 3.420 339.200,3.600 338.840,3.600 338.400 C 3.600 337.960,3.420 337.600,3.200 337.600 C 2.980 337.600,2.800 337.960,2.800 338.400 M343.600 340.112 C 343.600 340.205,343.798 340.847,344.039 341.540 C 344.531 342.951,345.415 343.309,344.974 341.919 C 344.729 341.146,343.600 339.662,343.600 340.112 M345.206 343.471 C 345.218 344.084,345.955 344.978,346.226 344.707 C 346.374 344.559,346.204 344.147,345.848 343.790 C 345.491 343.434,345.203 343.291,345.206 343.471 M4.000 344.376 C 4.000 344.829,4.180 345.200,4.400 345.200 C 4.620 345.200,4.800 344.941,4.800 344.624 C 4.800 344.307,4.620 343.936,4.400 343.800 C 4.180 343.664,4.000 343.923,4.000 344.376 M4.400 346.600 C 4.400 346.930,4.580 347.200,4.800 347.200 C 5.020 347.200,5.200 346.930,5.200 346.600 C 5.200 346.270,5.020 346.000,4.800 346.000 C 4.580 346.000,4.400 346.270,4.400 346.600 M347.200 347.437 C 347.200 347.567,347.560 348.131,348.000 348.691 C 348.908 349.845,349.011 349.700,348.336 348.219 C 347.922 347.311,347.200 346.814,347.200 347.437 M349.043 350.567 C 349.176 350.915,349.461 351.200,349.676 351.200 C 350.202 351.200,349.873 350.291,349.275 350.092 C 348.982 349.994,348.893 350.177,349.043 350.567 M5.600 351.800 C 5.600 352.130,5.780 352.400,6.000 352.400 C 6.220 352.400,6.400 352.130,6.400 351.800 C 6.400 351.470,6.220 351.200,6.000 351.200 C 5.780 351.200,5.600 351.470,5.600 351.800 M350.092 352.075 C 350.291 352.673,351.200 353.002,351.200 352.476 C 351.200 352.261,350.915 351.976,350.567 351.843 C 350.177 351.693,349.994 351.782,350.092 352.075 M6.000 354.000 C 6.000 354.440,6.180 354.800,6.400 354.800 C 6.620 354.800,6.800 354.440,6.800 354.000 C 6.800 353.560,6.620 353.200,6.400 353.200 C 6.180 353.200,6.000 353.560,6.000 354.000 M351.043 353.767 C 351.176 354.115,351.461 354.400,351.676 354.400 C 352.202 354.400,351.873 353.491,351.275 353.292 C 350.982 353.194,350.893 353.377,351.043 353.767 M352.350 355.454 C 353.250 357.025,354.359 358.175,354.672 357.861 C 354.852 357.682,354.729 357.320,354.399 357.058 C 354.070 356.796,353.607 356.236,353.371 355.815 C 353.136 355.393,352.713 354.971,352.433 354.878 C 352.043 354.748,352.024 354.884,352.350 355.454 M355.200 359.003 C 355.200 359.293,360.018 365.200,360.254 365.200 C 360.743 365.200,360.213 364.259,359.000 362.973 C 358.230 362.156,357.590 361.288,357.578 361.044 C 357.554 360.573,355.200 358.553,355.200 359.003 M7.600 360.400 C 7.600 360.840,7.780 361.200,8.000 361.200 C 8.220 361.200,8.400 360.840,8.400 360.400 C 8.400 359.960,8.220 359.600,8.000 359.600 C 7.780 359.600,7.600 359.960,7.600 360.400 M9.200 366.200 C 9.200 366.530,9.380 366.800,9.600 366.800 C 9.820 366.800,10.000 366.530,10.000 366.200 C 10.000 365.870,9.820 365.600,9.600 365.600 C 9.380 365.600,9.200 365.870,9.200 366.200 M10.800 371.400 C 10.800 371.730,10.980 372.000,11.200 372.000 C 11.420 372.000,11.600 371.730,11.600 371.400 C 11.600 371.070,11.420 370.800,11.200 370.800 C 10.980 370.800,10.800 371.070,10.800 371.400 M366.800 371.490 C 366.800 371.913,369.704 374.429,369.931 374.202 C 370.036 374.097,369.510 373.380,368.761 372.610 C 367.445 371.255,366.800 370.887,366.800 371.490 M370.800 375.114 C 370.800 375.286,371.385 375.770,372.100 376.188 C 373.384 376.940,373.393 376.939,372.800 376.175 C 371.827 374.919,370.800 374.374,370.800 375.114 M373.600 377.186 C 373.600 377.398,373.968 377.769,374.418 378.010 C 375.174 378.414,375.197 378.385,374.722 377.624 C 374.181 376.758,373.600 376.531,373.600 377.186 M375.600 378.786 C 375.600 378.998,375.994 379.383,376.475 379.640 C 376.956 379.898,377.541 380.267,377.775 380.460 C 379.520 381.904,382.001 383.580,382.006 383.318 C 382.009 383.143,382.144 383.180,382.306 383.400 C 383.152 384.551,386.400 386.270,386.400 385.567 C 386.400 385.342,385.860 384.970,385.200 384.740 C 384.540 384.510,384.000 384.181,384.000 384.009 C 384.000 383.838,383.460 383.473,382.800 383.200 C 382.140 382.927,381.600 382.578,381.600 382.426 C 381.600 382.273,380.961 381.843,380.180 381.471 C 378.764 380.796,378.233 380.426,376.771 379.100 C 375.898 378.308,375.600 378.228,375.600 378.786 M13.638 379.800 C 13.605 380.816,14.259 381.874,14.667 381.467 C 14.837 381.296,14.742 381.011,14.454 380.834 C 14.167 380.656,13.961 380.391,13.996 380.245 C 14.031 380.099,13.971 379.760,13.862 379.490 C 13.752 379.221,13.652 379.360,13.638 379.800 M387.600 386.800 C 388.614 387.679,389.200 387.822,389.200 387.190 C 389.200 386.965,388.738 386.605,388.174 386.390 C 386.680 385.822,386.566 385.904,387.600 386.800 M16.000 387.400 C 16.000 387.730,16.180 388.000,16.400 388.000 C 16.620 388.000,16.800 387.730,16.800 387.400 C 16.800 387.070,16.620 386.800,16.400 386.800 C 16.180 386.800,16.000 387.070,16.000 387.400 M390.190 388.248 C 390.547 388.604,390.959 388.774,391.107 388.626 C 391.256 388.478,391.112 388.189,390.788 387.984 C 389.843 387.387,389.487 387.544,390.190 388.248 M391.600 388.757 C 391.600 388.954,391.885 389.224,392.233 389.357 C 393.211 389.733,393.308 389.651,392.657 389.000 C 391.977 388.320,391.600 388.233,391.600 388.757 M394.800 390.357 C 394.800 390.554,395.085 390.824,395.433 390.957 C 396.411 391.333,396.508 391.251,395.857 390.600 C 395.177 389.920,394.800 389.833,394.800 390.357 M17.600 391.800 C 17.600 392.130,17.780 392.400,18.000 392.400 C 18.220 392.400,18.400 392.130,18.400 391.800 C 18.400 391.470,18.220 391.200,18.000 391.200 C 17.780 391.200,17.600 391.470,17.600 391.800 M18.438 393.200 C 18.402 394.048,19.096 395.037,19.467 394.667 C 19.637 394.496,19.584 394.231,19.348 394.078 C 19.113 393.925,18.817 393.530,18.692 393.200 C 18.489 392.667,18.460 392.667,18.438 393.200 M398.000 397.400 C 398.000 397.730,398.180 398.000,398.400 398.000 C 398.620 398.000,398.800 397.730,398.800 397.400 C 398.800 397.070,398.620 396.800,398.400 396.800 C 398.180 396.800,398.000 397.070,398.000 397.400 M396.400 401.800 C 396.400 402.130,396.580 402.400,396.800 402.400 C 397.020 402.400,397.200 402.130,397.200 401.800 C 397.200 401.470,397.020 401.200,396.800 401.200 C 396.580 401.200,396.400 401.470,396.400 401.800 M395.733 403.829 C 395.481 404.363,395.426 404.800,395.611 404.800 C 395.958 404.800,396.581 403.247,396.332 402.999 C 396.255 402.922,395.985 403.295,395.733 403.829 M394.800 405.800 C 394.800 406.130,394.980 406.400,395.200 406.400 C 395.420 406.400,395.600 406.130,395.600 405.800 C 395.600 405.470,395.420 405.200,395.200 405.200 C 394.980 405.200,394.800 405.470,394.800 405.800 M23.606 406.500 C 23.616 407.315,24.331 408.204,24.678 407.834 C 24.855 407.645,24.785 407.413,24.522 407.319 C 24.260 407.225,24.144 406.890,24.265 406.574 C 24.386 406.258,24.286 406.000,24.043 406.000 C 23.799 406.000,23.603 406.225,23.606 406.500 M393.380 409.387 C 392.650 411.134,392.650 411.407,393.380 410.677 C 394.009 410.048,394.654 408.000,394.223 408.000 C 394.078 408.000,393.698 408.624,393.380 409.387 M25.200 409.940 C 25.200 410.712,26.105 412.800,26.439 412.800 C 26.922 412.800,26.899 412.611,26.220 410.987 C 25.672 409.675,25.200 409.191,25.200 409.940 M26.800 413.540 C 26.800 414.312,27.705 416.400,28.039 416.400 C 28.522 416.400,28.499 416.211,27.820 414.587 C 27.272 413.275,26.800 412.791,26.800 413.540 M29.200 419.629 C 29.200 420.056,30.171 421.200,30.534 421.200 C 30.639 421.200,30.517 420.751,30.262 420.203 C 29.788 419.181,29.200 418.863,29.200 419.629 M387.953 422.000 C 387.689 422.880,387.322 423.600,387.137 423.600 C 386.952 423.600,386.800 423.780,386.800 424.000 C 386.800 424.761,387.547 424.397,387.827 423.500 C 387.981 423.005,388.239 422.510,388.400 422.400 C 388.914 422.048,389.279 420.400,388.843 420.400 C 388.617 420.400,388.216 421.120,387.953 422.000 M30.626 422.481 C 30.780 422.966,31.152 423.609,31.453 423.910 C 32.114 424.571,32.124 424.475,31.561 422.860 C 31.069 421.449,30.185 421.091,30.626 422.481 M32.400 426.229 C 32.400 426.354,32.670 426.727,33.000 427.057 C 33.651 427.708,33.733 427.611,33.357 426.633 C 33.129 426.038,32.400 425.730,32.400 426.229 M35.206 431.500 C 35.217 432.047,35.953 432.981,36.188 432.746 C 36.503 432.431,36.001 431.200,35.557 431.200 C 35.361 431.200,35.203 431.335,35.206 431.500 M36.806 434.700 C 36.817 435.247,37.553 436.181,37.788 435.946 C 38.103 435.631,37.601 434.400,37.157 434.400 C 36.961 434.400,36.803 434.535,36.806 434.700 M38.000 436.513 C 38.000 437.194,38.836 438.800,39.190 438.800 C 39.822 438.800,39.679 438.214,38.800 437.200 C 38.360 436.693,38.000 436.383,38.000 436.513 M379.843 438.233 C 379.467 439.211,379.549 439.308,380.200 438.657 C 380.880 437.977,380.967 437.600,380.443 437.600 C 380.246 437.600,379.976 437.885,379.843 438.233 M378.449 440.652 C 378.186 441.230,378.027 441.760,378.097 441.830 C 378.376 442.110,379.109 441.347,379.373 440.500 C 379.764 439.249,379.034 439.369,378.449 440.652 M40.400 441.600 C 40.400 441.820,40.535 442.001,40.700 442.001 C 40.865 442.002,41.333 442.812,41.740 443.801 C 42.146 444.791,42.641 445.600,42.840 445.600 C 43.389 445.600,43.292 445.282,42.100 443.159 C 41.061 441.310,40.400 440.703,40.400 441.600 M377.300 443.023 C 376.711 443.663,376.662 444.000,377.157 444.000 C 377.498 444.000,378.137 442.796,377.909 442.583 C 377.849 442.527,377.575 442.725,377.300 443.023 M375.985 445.318 C 375.041 446.741,374.775 447.585,375.337 447.369 C 375.790 447.195,376.929 444.796,376.678 444.545 C 376.618 444.485,376.307 444.833,375.985 445.318 M43.292 446.475 C 43.379 446.736,43.664 447.021,43.925 447.108 C 44.218 447.206,44.307 447.023,44.157 446.633 C 43.878 445.906,43.052 445.755,43.292 446.475 M44.000 447.829 C 44.000 448.127,45.075 449.200,45.375 449.200 C 45.502 449.200,45.382 448.840,45.107 448.400 C 44.638 447.649,44.000 447.320,44.000 447.829 M373.859 449.207 C 373.306 450.143,373.282 450.344,373.741 450.167 C 374.060 450.045,374.422 449.560,374.545 449.090 C 374.873 447.834,374.648 447.872,373.859 449.207 M45.292 450.075 C 45.379 450.336,45.664 450.621,45.925 450.708 C 46.218 450.806,46.307 450.623,46.157 450.233 C 45.878 449.506,45.052 449.355,45.292 450.075 M372.293 451.708 C 371.541 452.635,371.406 453.200,371.936 453.200 C 372.277 453.200,373.332 451.198,373.108 450.975 C 373.042 450.908,372.675 451.238,372.293 451.708 M46.400 451.313 C 46.400 451.994,47.236 453.600,47.590 453.600 C 48.222 453.600,48.079 453.014,47.200 452.000 C 46.760 451.493,46.400 451.183,46.400 451.313 M48.000 454.181 C 48.000 454.647,48.961 456.400,49.216 456.400 C 49.374 456.400,49.727 456.940,50.000 457.600 C 50.273 458.260,50.643 458.800,50.822 458.800 C 51.000 458.800,51.260 459.160,51.400 459.600 C 51.540 460.040,51.826 460.400,52.036 460.400 C 52.421 460.400,51.314 458.410,50.675 457.955 C 50.486 457.821,50.365 457.641,50.405 457.555 C 50.542 457.262,49.000 454.805,48.676 454.803 C 48.498 454.801,48.464 454.620,48.600 454.400 C 48.736 454.180,48.657 454.000,48.424 454.000 C 48.191 454.000,48.000 454.082,48.000 454.181 M370.243 455.033 C 370.093 455.423,370.182 455.606,370.475 455.508 C 371.073 455.309,371.402 454.400,370.876 454.400 C 370.661 454.400,370.376 454.685,370.243 455.033 M369.380 456.540 C 369.149 456.793,368.609 457.627,368.180 458.393 C 367.751 459.159,367.175 460.027,366.900 460.321 C 366.242 461.026,366.261 461.628,366.932 461.371 C 367.224 461.259,367.708 460.544,368.007 459.783 C 368.305 459.023,368.700 458.400,368.885 458.400 C 369.208 458.400,370.137 456.396,369.911 456.185 C 369.850 456.128,369.611 456.288,369.380 456.540 M364.968 463.262 C 364.609 463.957,364.151 464.722,363.952 464.962 C 362.779 466.374,360.796 469.200,360.978 469.200 C 361.179 469.200,360.348 470.308,359.363 471.353 C 358.286 472.496,357.896 473.672,358.776 473.122 C 359.229 472.839,359.600 472.426,359.600 472.204 C 359.601 471.982,360.046 471.283,360.589 470.651 C 361.133 470.019,361.684 469.164,361.816 468.751 C 361.947 468.338,362.200 468.000,362.378 468.000 C 362.557 468.000,362.927 467.460,363.200 466.800 C 363.473 466.140,363.833 465.600,364.000 465.600 C 364.167 465.600,364.527 465.060,364.800 464.400 C 365.073 463.740,365.436 463.200,365.606 463.200 C 365.776 463.200,366.018 462.930,366.145 462.600 C 366.582 461.461,365.619 462.003,364.968 463.262 M58.000 469.580 C 58.000 469.789,58.246 470.104,58.546 470.280 C 58.846 470.456,59.391 471.185,59.756 471.900 C 60.122 472.615,60.596 473.200,60.810 473.200 C 61.025 473.200,61.200 473.448,61.200 473.751 C 61.200 474.369,62.307 475.426,62.623 475.110 C 62.735 474.998,62.129 474.023,61.277 472.945 C 60.424 471.866,59.511 470.582,59.249 470.092 C 58.767 469.192,58.000 468.878,58.000 469.580 M356.751 474.892 C 356.488 475.382,356.077 475.984,355.837 476.228 C 355.597 476.473,354.950 477.270,354.400 478.000 C 353.850 478.730,353.162 479.568,352.871 479.863 C 352.581 480.159,352.502 480.400,352.696 480.400 C 353.189 480.400,354.418 479.126,355.600 477.391 C 356.150 476.583,356.915 475.630,357.300 475.272 C 358.073 474.555,358.210 474.000,357.614 474.000 C 357.402 474.000,357.013 474.401,356.751 474.892 M62.800 475.938 C 62.800 476.124,63.160 476.602,63.600 477.000 C 64.480 477.797,64.623 477.565,63.986 476.374 C 63.569 475.594,62.800 475.311,62.800 475.938 M64.800 478.371 C 64.800 478.848,66.038 480.096,66.275 479.858 C 66.514 479.619,65.493 478.000,65.104 478.000 C 64.937 478.000,64.800 478.167,64.800 478.371 M66.800 481.013 C 66.800 481.287,69.159 483.600,69.437 483.600 C 69.737 483.600,69.214 482.747,68.271 481.700 C 67.513 480.859,66.800 480.526,66.800 481.013 M351.125 481.898 C 350.084 483.110,349.898 483.614,350.590 483.348 C 351.246 483.097,352.192 481.659,351.897 481.363 C 351.804 481.271,351.457 481.511,351.125 481.898 M69.600 484.240 C 69.600 484.609,73.355 488.387,73.729 488.394 C 73.909 488.397,73.819 488.158,73.529 487.862 C 73.238 487.566,72.370 486.577,71.600 485.664 C 70.315 484.141,69.600 483.631,69.600 484.240 M347.900 485.784 C 346.351 487.651,346.532 487.948,348.200 486.280 C 348.970 485.510,349.600 484.772,349.600 484.640 C 349.600 484.090,348.932 484.539,347.900 485.784 M342.335 491.900 C 340.691 493.605,338.233 496.026,336.873 497.279 C 334.430 499.530,334.064 500.000,334.752 500.000 C 335.216 500.000,345.600 489.620,345.600 489.157 C 345.600 488.551,345.413 488.708,342.335 491.900 M74.800 490.044 C 74.800 490.561,79.520 495.200,80.046 495.200 C 80.664 495.200,80.457 494.928,77.791 492.235 C 75.091 489.509,74.800 489.296,74.800 490.044 M82.404 497.104 C 82.412 497.665,85.211 500.122,85.505 499.827 C 85.667 499.664,85.350 499.177,84.800 498.744 C 84.250 498.311,83.485 497.698,83.100 497.382 C 82.715 497.066,82.402 496.941,82.404 497.104 M204.705 499.883 C 205.202 499.979,205.922 499.975,206.305 499.875 C 206.687 499.775,206.280 499.696,205.400 499.701 C 204.520 499.705,204.207 499.787,204.705 499.883 M198.800 500.400 C 198.800 500.620,199.250 500.800,199.800 500.800 C 200.350 500.800,200.800 500.620,200.800 500.400 C 200.800 500.180,200.350 500.000,199.800 500.000 C 199.250 500.000,198.800 500.180,198.800 500.400 M223.200 500.400 C 223.200 500.620,223.470 500.800,223.800 500.800 C 224.130 500.800,224.400 500.620,224.400 500.400 C 224.400 500.180,224.130 500.000,223.800 500.000 C 223.470 500.000,223.200 500.180,223.200 500.400 M225.800 500.800 C 225.664 501.020,225.934 501.200,226.400 501.200 C 226.866 501.200,227.136 501.020,227.000 500.800 C 226.864 500.580,226.594 500.400,226.400 500.400 C 226.206 500.400,225.936 500.580,225.800 500.800 M87.319 501.730 C 87.804 502.241,88.515 502.776,88.900 502.917 C 89.285 503.059,89.600 503.348,89.600 503.560 C 89.600 503.773,89.940 504.054,90.355 504.186 C 90.771 504.318,91.626 504.875,92.255 505.424 C 94.056 506.995,94.307 507.175,95.385 507.666 C 95.943 507.920,96.400 508.251,96.400 508.400 C 96.400 508.652,98.175 509.600,98.647 509.600 C 99.202 509.600,96.194 507.374,95.492 507.265 C 95.323 507.238,94.963 507.030,94.692 506.801 C 93.394 505.704,92.358 504.883,91.379 504.175 C 90.789 503.749,89.591 502.815,88.715 502.100 C 86.872 500.594,86.032 500.371,87.319 501.730 M332.043 501.623 C 331.517 502.061,331.199 502.533,331.337 502.671 C 331.475 502.808,332.065 502.444,332.648 501.861 C 333.883 500.626,333.446 500.455,332.043 501.623 M189.600 502.000 C 189.600 502.220,189.870 502.400,190.200 502.400 C 190.530 502.400,190.800 502.220,190.800 502.000 C 190.800 501.780,190.530 501.600,190.200 501.600 C 189.870 501.600,189.600 501.780,189.600 502.000 M230.400 502.000 C 230.400 502.220,230.760 502.400,231.200 502.400 C 231.640 502.400,232.000 502.220,232.000 502.000 C 232.000 501.780,231.640 501.600,231.200 501.600 C 230.760 501.600,230.400 501.780,230.400 502.000 M183.200 503.600 C 183.200 503.820,183.470 504.000,183.800 504.000 C 184.130 504.000,184.400 503.820,184.400 503.600 C 184.400 503.380,184.130 503.200,183.800 503.200 C 183.470 503.200,183.200 503.380,183.200 503.600 M237.200 503.600 C 237.200 503.820,237.470 504.000,237.800 504.000 C 238.130 504.000,238.400 503.820,238.400 503.600 C 238.400 503.380,238.130 503.200,237.800 503.200 C 237.470 503.200,237.200 503.380,237.200 503.600 M328.425 504.408 C 327.669 505.054,327.152 505.686,327.277 505.811 C 327.402 505.936,327.755 505.788,328.061 505.482 C 328.366 505.176,329.018 504.712,329.508 504.449 C 329.999 504.187,330.400 503.798,330.400 503.586 C 330.400 502.950,329.875 503.169,328.425 504.408 M238.800 504.000 C 238.800 504.220,239.171 504.400,239.624 504.400 C 240.077 504.400,240.336 504.220,240.200 504.000 C 240.064 503.780,239.693 503.600,239.376 503.600 C 239.059 503.600,238.800 503.780,238.800 504.000 M178.000 505.200 C 178.000 505.420,178.270 505.600,178.600 505.600 C 178.930 505.600,179.200 505.420,179.200 505.200 C 179.200 504.980,178.930 504.800,178.600 504.800 C 178.270 504.800,178.000 504.980,178.000 505.200 M244.800 505.600 C 244.800 505.820,245.070 506.000,245.400 506.000 C 245.730 506.000,246.000 505.820,246.000 505.600 C 246.000 505.380,245.730 505.200,245.400 505.200 C 245.070 505.200,244.800 505.380,244.800 505.600 M173.600 506.800 C 173.600 507.020,173.870 507.200,174.200 507.200 C 174.530 507.200,174.800 507.020,174.800 506.800 C 174.800 506.580,174.530 506.400,174.200 506.400 C 173.870 506.400,173.600 506.580,173.600 506.800 M248.400 506.800 C 248.400 507.020,248.670 507.200,249.000 507.200 C 249.330 507.200,249.600 507.020,249.600 506.800 C 249.600 506.580,249.330 506.400,249.000 506.400 C 248.670 506.400,248.400 506.580,248.400 506.800 M325.148 506.881 C 324.846 507.166,324.105 507.655,323.500 507.968 C 322.895 508.280,322.400 508.685,322.400 508.868 C 322.400 509.403,323.015 509.253,323.905 508.500 C 324.360 508.115,325.063 507.596,325.466 507.347 C 325.870 507.098,326.086 506.774,325.948 506.628 C 325.809 506.482,325.449 506.595,325.148 506.881 M172.400 507.224 C 172.400 507.457,172.232 507.544,172.028 507.417 C 171.823 507.291,171.542 507.370,171.404 507.593 C 171.122 508.051,171.620 508.121,172.567 507.757 C 173.265 507.489,173.433 506.800,172.800 506.800 C 172.580 506.800,172.400 506.991,172.400 507.224 M250.000 507.200 C 250.000 507.420,250.270 507.600,250.600 507.600 C 250.930 507.600,251.200 507.420,251.200 507.200 C 251.200 506.980,250.930 506.800,250.600 506.800 C 250.270 506.800,250.000 506.980,250.000 507.200 M253.200 508.400 C 253.200 508.620,253.470 508.800,253.800 508.800 C 254.130 508.800,254.400 508.620,254.400 508.400 C 254.400 508.180,254.130 508.000,253.800 508.000 C 253.470 508.000,253.200 508.180,253.200 508.400 M254.800 508.800 C 254.800 509.020,255.070 509.200,255.400 509.200 C 255.730 509.200,256.000 509.020,256.000 508.800 C 256.000 508.580,255.730 508.400,255.400 508.400 C 255.070 508.400,254.800 508.580,254.800 508.800 M320.500 509.688 C 320.005 509.927,319.600 510.275,319.600 510.461 C 319.600 511.023,320.257 510.846,321.256 510.013 C 322.285 509.156,321.925 509.001,320.500 509.688 M99.200 510.010 C 99.200 510.347,100.795 511.200,101.426 511.200 C 101.996 511.200,101.443 510.457,100.581 510.064 C 99.334 509.496,99.200 509.491,99.200 510.010 M165.500 509.876 C 164.778 510.064,164.514 510.800,165.167 510.800 C 165.859 510.800,166.800 510.314,166.800 509.957 C 166.800 509.584,166.652 509.575,165.500 509.876 M258.000 510.000 C 258.000 510.220,258.270 510.400,258.600 510.400 C 258.930 510.400,259.200 510.220,259.200 510.000 C 259.200 509.780,258.930 509.600,258.600 509.600 C 258.270 509.600,258.000 509.780,258.000 510.000 M102.590 511.848 C 102.947 512.204,103.359 512.374,103.507 512.226 C 103.656 512.078,103.512 511.789,103.188 511.584 C 102.243 510.987,101.887 511.144,102.590 511.848 M266.400 512.782 C 266.730 513.005,267.345 513.191,267.767 513.194 C 268.790 513.202,268.471 512.973,267.000 512.644 C 266.124 512.448,265.962 512.485,266.400 512.782 M314.100 512.899 C 312.762 513.328,312.335 514.000,313.400 514.000 C 313.730 514.000,314.000 513.855,314.000 513.677 C 314.000 513.500,314.495 513.159,315.100 512.920 C 316.503 512.365,315.809 512.351,314.100 512.899 M105.790 513.448 C 106.147 513.804,106.559 513.974,106.707 513.826 C 106.856 513.678,106.712 513.389,106.388 513.184 C 105.443 512.587,105.087 512.744,105.790 513.448 M109.271 514.922 C 110.017 515.674,110.800 515.817,110.800 515.200 C 110.800 514.980,110.635 514.800,110.433 514.800 C 110.231 514.800,109.736 514.675,109.333 514.522 C 108.646 514.262,108.643 514.288,109.271 514.922 M274.400 515.200 C 274.400 515.420,274.670 515.600,275.000 515.600 C 275.330 515.600,275.600 515.420,275.600 515.200 C 275.600 514.980,275.330 514.800,275.000 514.800 C 274.670 514.800,274.400 514.980,274.400 515.200 M308.400 515.200 C 308.400 515.420,308.670 515.600,309.000 515.600 C 309.330 515.600,309.600 515.420,309.600 515.200 C 309.600 514.980,309.330 514.800,309.000 514.800 C 308.670 514.800,308.400 514.980,308.400 515.200 M114.400 516.800 C 114.400 517.020,114.670 517.200,115.000 517.200 C 115.330 517.200,115.600 517.020,115.600 516.800 C 115.600 516.580,115.330 516.400,115.000 516.400 C 114.670 516.400,114.400 516.580,114.400 516.800 M147.200 516.800 C 147.200 517.020,147.470 517.200,147.800 517.200 C 148.130 517.200,148.400 517.020,148.400 516.800 C 148.400 516.580,148.130 516.400,147.800 516.400 C 147.470 516.400,147.200 516.580,147.200 516.800 M281.600 516.800 C 281.600 517.020,281.960 517.200,282.400 517.200 C 282.840 517.200,283.200 517.020,283.200 516.800 C 283.200 516.580,282.840 516.400,282.400 516.400 C 281.960 516.400,281.600 516.580,281.600 516.800 M302.000 516.800 C 302.000 517.020,302.360 517.200,302.800 517.200 C 303.240 517.200,303.600 517.020,303.600 516.800 C 303.600 516.580,303.240 516.400,302.800 516.400 C 302.360 516.400,302.000 516.580,302.000 516.800 M145.000 517.200 C 144.864 517.420,145.134 517.600,145.600 517.600 C 146.066 517.600,146.336 517.420,146.200 517.200 C 146.064 516.980,145.794 516.800,145.600 516.800 C 145.406 516.800,145.136 516.980,145.000 517.200 M285.600 517.200 C 285.600 517.420,286.095 517.597,286.700 517.594 C 287.557 517.589,287.668 517.502,287.200 517.200 C 286.417 516.694,285.600 516.694,285.600 517.200 M298.400 517.200 C 297.946 517.493,298.122 517.589,299.124 517.594 C 299.905 517.597,300.346 517.436,300.200 517.200 C 299.889 516.697,299.178 516.697,298.400 517.200 " stroke="none" fill="#c7c7c7" fill-rule="evenodd"></path><path id="path1" d="M314.517 0.934 C 314.401 1.122,313.607 1.208,312.753 1.127 C 311.899 1.046,311.200 1.138,311.200 1.331 C 311.200 1.525,310.505 1.618,309.656 1.537 C 308.807 1.456,307.921 1.594,307.687 1.845 C 307.193 2.374,303.008 2.976,302.407 2.604 C 302.183 2.466,302.000 2.524,302.000 2.733 C 302.000 2.942,301.415 3.208,300.700 3.325 C 296.302 4.046,282.162 7.857,280.412 8.793 C 279.931 9.051,279.282 9.163,278.969 9.043 C 278.656 8.923,278.400 8.963,278.400 9.132 C 278.400 9.301,277.725 9.678,276.900 9.969 C 267.458 13.301,259.550 17.166,248.800 23.705 C 225.038 38.157,205.264 69.078,201.736 97.300 C 201.605 98.345,201.381 99.200,201.239 99.200 C 201.096 99.200,201.048 99.921,201.132 100.802 C 201.216 101.683,201.169 102.705,201.027 103.074 C 200.885 103.443,200.680 105.647,200.570 107.972 C 200.461 110.298,200.198 112.260,199.986 112.333 C 199.774 112.407,199.600 113.452,199.600 114.657 C 199.600 116.015,199.752 116.753,200.000 116.600 C 200.232 116.457,200.400 116.845,200.400 117.524 C 200.400 118.814,202.771 119.654,203.859 118.751 C 204.140 118.518,205.457 118.389,206.786 118.464 C 208.114 118.539,209.246 118.488,209.301 118.351 C 209.391 118.125,212.441 117.692,216.000 117.400 C 216.770 117.337,217.718 117.156,218.107 116.997 C 218.495 116.839,219.260 116.795,219.807 116.899 C 220.353 117.004,220.800 116.915,220.800 116.703 C 220.800 116.490,221.505 116.383,222.366 116.465 C 223.228 116.548,223.850 116.482,223.750 116.319 C 223.523 115.952,225.545 115.411,225.882 115.748 C 226.016 115.883,226.340 115.816,226.600 115.600 C 226.861 115.384,227.957 115.160,229.037 115.103 C 230.117 115.046,231.216 114.797,231.480 114.548 C 231.745 114.300,232.645 113.977,233.480 113.831 C 234.316 113.686,236.497 113.109,238.327 112.551 C 240.157 111.992,241.897 111.628,242.194 111.742 C 242.491 111.856,242.840 111.672,242.970 111.333 C 243.103 110.987,243.468 110.817,243.803 110.946 C 244.132 111.072,244.400 111.001,244.400 110.787 C 244.400 110.574,244.665 110.400,244.989 110.400 C 247.629 110.400,264.930 101.995,272.000 97.277 C 283.174 89.821,294.913 78.192,300.600 68.943 C 308.639 55.869,314.062 43.052,316.273 31.900 C 316.393 31.295,316.634 30.800,316.808 30.800 C 316.982 30.800,317.037 30.465,316.930 30.055 C 316.823 29.645,317.018 28.160,317.364 26.755 C 317.709 25.350,318.270 21.777,318.610 18.815 C 318.950 15.853,319.356 13.333,319.514 13.215 C 319.671 13.097,319.746 10.194,319.681 6.764 L 319.562 0.528 317.145 0.560 C 315.816 0.578,314.633 0.747,314.517 0.934 M285.112 159.265 C 284.996 159.612,284.116 159.825,282.567 159.880 C 281.265 159.927,280.200 159.995,280.200 160.031 C 280.200 160.068,278.580 160.333,276.600 160.621 C 269.969 161.585,261.585 163.418,259.400 164.382 C 258.960 164.577,255.630 165.670,252.000 166.813 C 248.370 167.956,244.833 169.140,244.140 169.445 C 243.446 169.750,242.704 170.000,242.491 170.000 C 242.278 170.000,238.885 171.057,234.952 172.348 C 231.018 173.639,224.830 175.638,221.200 176.789 C 217.570 177.940,214.240 179.031,213.800 179.213 C 213.360 179.395,212.280 179.749,211.400 180.000 C 210.520 180.251,209.440 180.610,209.000 180.798 C 208.560 180.987,206.991 181.515,205.512 181.972 L 202.825 182.803 200.112 181.939 C 198.621 181.464,197.220 180.872,197.000 180.623 C 196.780 180.374,196.285 180.236,195.900 180.315 C 195.515 180.394,195.200 180.282,195.200 180.067 C 195.200 179.851,194.840 179.769,194.400 179.884 C 193.960 179.999,193.600 179.898,193.600 179.659 C 193.600 179.420,193.332 179.328,193.003 179.454 C 192.675 179.580,192.313 179.439,192.198 179.142 C 192.083 178.844,191.453 178.581,190.798 178.558 C 189.501 178.511,174.275 173.588,174.081 173.152 C 174.015 173.005,173.610 172.977,173.181 173.089 C 172.751 173.202,172.400 173.093,172.400 172.847 C 172.400 172.601,172.265 172.432,172.100 172.471 C 171.661 172.574,168.996 171.782,161.800 169.411 C 158.280 168.250,154.365 167.003,153.100 166.639 C 151.835 166.275,150.800 165.828,150.800 165.644 C 150.800 165.461,150.350 165.397,149.800 165.502 C 149.250 165.607,148.800 165.509,148.800 165.284 C 148.800 165.059,148.481 164.958,148.092 165.060 C 147.702 165.162,146.577 165.043,145.592 164.795 C 144.606 164.547,143.350 164.253,142.800 164.140 C 142.250 164.027,141.530 163.834,141.200 163.710 C 140.870 163.586,140.109 163.524,139.509 163.572 C 138.909 163.619,138.223 163.538,137.985 163.391 C 137.747 163.243,136.625 163.073,135.493 163.012 C 134.360 162.951,133.378 162.735,133.311 162.532 C 133.243 162.329,132.024 162.237,130.602 162.327 C 129.180 162.418,127.698 162.360,127.308 162.198 C 126.300 161.780,113.600 161.729,113.600 162.144 C 113.600 162.333,112.251 162.419,110.603 162.336 C 108.876 162.249,107.550 162.350,107.476 162.573 C 107.404 162.787,106.548 162.999,105.573 163.043 C 104.598 163.088,103.530 163.218,103.200 163.332 C 102.870 163.447,101.700 163.661,100.600 163.809 C 95.808 164.454,85.879 167.296,80.000 169.708 C 77.226 170.845,76.996 170.926,76.700 170.864 C 76.535 170.829,76.400 170.980,76.400 171.200 C 76.400 171.420,76.189 171.600,75.930 171.600 C 74.739 171.600,65.872 176.601,60.400 180.359 C 53.150 185.338,44.481 193.324,38.211 200.800 C 36.458 202.890,34.922 204.690,34.797 204.800 C 33.825 205.660,26.702 215.528,24.331 219.299 C 20.044 226.119,13.627 238.458,12.251 242.525 C 12.116 242.924,11.826 243.140,11.607 243.005 C 11.383 242.866,11.307 243.013,11.433 243.341 C 11.556 243.661,11.217 245.066,10.680 246.462 C 7.317 255.205,4.596 265.338,3.016 275.000 C 2.728 276.760,2.462 278.200,2.424 278.200 C 2.387 278.200,2.308 278.999,2.248 279.977 C 2.189 280.954,1.965 281.812,1.752 281.883 C 1.530 281.957,1.434 283.128,1.528 284.606 C 1.619 286.033,1.537 287.200,1.347 287.200 C 0.964 287.199,0.875 290.092,0.876 302.600 C 0.876 313.463,1.042 318.825,1.405 319.714 C 1.566 320.107,1.616 321.408,1.516 322.604 C 1.417 323.800,1.498 324.833,1.695 324.898 C 2.120 325.040,2.928 331.066,2.660 332.092 C 2.558 332.481,2.656 332.800,2.878 332.800 C 3.108 332.800,3.221 333.549,3.140 334.549 C 3.063 335.514,3.202 336.486,3.450 336.718 C 3.975 337.208,4.574 341.395,4.204 341.993 C 4.066 342.217,4.120 342.400,4.324 342.400 C 4.647 342.400,4.955 343.622,5.382 346.600 C 5.445 347.040,5.603 347.670,5.732 348.000 C 5.860 348.330,6.147 349.500,6.368 350.600 C 7.568 356.577,12.698 375.291,13.554 376.813 C 13.743 377.150,14.030 378.050,14.191 378.813 C 14.353 379.576,14.724 380.740,15.017 381.400 C 15.309 382.060,16.117 384.310,16.811 386.400 C 17.505 388.490,18.307 390.740,18.592 391.400 C 18.878 392.060,19.243 393.050,19.404 393.600 C 19.566 394.150,19.832 394.780,19.996 395.000 C 20.403 395.545,21.785 399.727,21.683 400.100 C 21.637 400.265,21.780 400.400,22.000 400.400 C 22.220 400.400,22.400 400.598,22.400 400.840 C 22.400 401.081,22.656 401.846,22.970 402.540 C 23.283 403.233,24.109 405.150,24.805 406.800 C 25.966 409.549,26.748 411.338,28.217 414.600 C 28.515 415.260,29.240 416.880,29.830 418.200 C 31.339 421.581,38.434 435.838,39.682 438.000 C 40.254 438.990,41.302 440.880,42.013 442.200 C 43.300 444.591,43.625 445.164,45.422 448.200 C 45.942 449.080,46.670 450.340,47.038 451.000 C 51.217 458.485,63.129 475.247,69.894 483.160 C 85.310 501.190,104.900 514.690,119.000 517.000 C 119.880 517.144,120.870 517.355,121.200 517.467 C 123.853 518.373,138.263 518.381,140.800 517.478 C 141.130 517.361,142.390 517.148,143.600 517.006 C 148.145 516.473,155.235 513.988,169.620 507.888 C 175.536 505.379,184.404 502.443,186.466 502.311 C 187.420 502.250,188.416 501.997,188.680 501.748 C 189.255 501.208,192.630 500.648,193.199 500.999 C 193.419 501.136,193.600 501.033,193.600 500.772 C 193.600 500.445,194.161 500.359,195.393 500.498 C 196.379 500.609,197.095 500.554,196.985 500.376 C 196.811 500.093,198.222 499.809,201.000 499.568 C 201.440 499.529,203.180 499.476,204.866 499.449 C 206.553 499.422,208.068 499.265,208.233 499.100 C 208.654 498.680,219.600 498.723,219.600 499.145 C 219.600 499.334,220.047 499.404,220.593 499.299 C 221.140 499.195,221.905 499.243,222.293 499.406 C 222.682 499.569,223.360 499.755,223.800 499.818 C 226.673 500.230,228.000 500.545,228.000 500.815 C 228.000 500.986,228.334 501.038,228.741 500.931 C 229.590 500.709,232.799 501.487,232.802 501.915 C 232.804 502.072,233.584 502.221,234.536 502.246 C 235.488 502.272,237.557 502.677,239.134 503.146 C 240.710 503.616,243.305 504.372,244.900 504.826 C 248.218 505.770,256.884 508.581,266.200 511.735 C 269.720 512.927,273.995 514.239,275.700 514.651 C 277.404 515.063,278.799 515.518,278.800 515.663 C 278.800 515.807,279.157 515.832,279.594 515.717 C 280.031 515.603,280.706 515.640,281.094 515.799 C 281.482 515.958,282.421 516.132,283.181 516.187 C 283.941 516.242,284.616 516.447,284.681 516.643 C 284.853 517.160,299.083 516.970,301.111 516.424 C 302.050 516.171,302.982 516.065,303.182 516.189 C 303.381 516.312,303.658 516.230,303.796 516.007 C 303.934 515.783,304.367 515.600,304.757 515.600 C 306.031 515.600,312.615 513.314,315.843 511.751 C 331.851 503.999,348.865 486.915,364.995 462.400 C 370.779 453.608,370.684 453.760,374.107 447.800 C 380.314 436.992,385.528 426.603,390.367 415.400 C 391.507 412.760,392.692 410.060,393.000 409.400 C 393.896 407.477,394.770 405.263,396.236 401.200 C 396.990 399.110,397.771 397.040,397.971 396.600 C 399.291 393.694,398.890 392.000,396.880 392.000 C 396.689 392.000,394.769 391.094,392.615 389.987 C 370.144 378.443,352.843 361.152,343.235 340.635 C 340.686 335.193,337.949 327.197,337.863 324.941 C 337.828 324.029,337.670 323.362,337.512 323.458 C 337.131 323.689,336.653 321.777,336.624 319.901 C 336.611 319.077,336.488 318.402,336.352 318.401 C 335.907 318.399,335.112 312.329,335.003 308.098 C 334.962 306.501,334.810 305.076,334.664 304.931 C 334.298 304.565,334.330 294.603,334.698 294.235 C 334.862 294.071,335.014 292.286,335.035 290.269 C 335.093 284.814,335.369 281.877,335.839 281.720 C 336.070 281.643,336.181 281.051,336.086 280.404 C 335.902 279.154,336.421 275.601,337.459 271.000 C 338.578 266.039,338.832 265.173,339.119 265.347 C 339.273 265.441,339.431 264.861,339.468 264.059 C 339.542 262.499,341.816 255.253,342.431 254.620 C 342.634 254.411,342.800 253.995,342.800 253.696 C 342.800 253.159,347.890 242.543,348.886 241.005 C 352.697 235.114,354.631 232.249,355.400 231.358 C 355.620 231.103,356.430 230.111,357.200 229.153 C 363.601 221.194,373.512 213.241,382.600 208.771 C 384.580 207.797,386.259 206.971,386.332 206.935 C 386.573 206.816,382.295 200.600,381.559 200.000 C 381.425 199.890,380.361 198.630,379.196 197.200 C 367.180 182.448,344.372 167.637,327.400 163.564 C 326.300 163.300,325.220 162.959,325.000 162.806 C 324.780 162.652,322.395 162.110,319.700 161.601 C 317.005 161.092,314.800 160.555,314.800 160.407 C 314.800 160.259,314.262 160.217,313.605 160.314 C 312.948 160.410,312.093 160.364,311.705 160.211 C 311.317 160.058,310.048 159.902,308.885 159.865 C 307.583 159.824,306.639 159.587,306.430 159.248 C 306.243 158.945,305.886 158.823,305.637 158.977 C 305.113 159.301,287.458 159.280,286.158 158.954 C 285.629 158.821,285.219 158.943,285.112 159.265 " stroke="none" fill="#040404" fill-rule="evenodd"></path><path id="path2" d="M307.200 1.600 C 307.200 1.820,306.615 2.003,305.900 2.006 C 305.185 2.009,304.330 2.196,304.000 2.421 C 303.419 2.817,305.466 2.641,307.300 2.138 C 308.042 1.935,308.277 1.200,307.600 1.200 C 307.380 1.200,307.200 1.380,307.200 1.600 M319.701 4.200 C 319.705 5.080,319.787 5.393,319.883 4.895 C 319.979 4.398,319.975 3.678,319.875 3.295 C 319.775 2.913,319.696 3.320,319.701 4.200 M296.400 4.006 C 295.978 4.282,296.215 4.323,297.200 4.142 C 298.925 3.825,299.251 3.598,297.967 3.606 C 297.435 3.609,296.730 3.789,296.400 4.006 M290.000 5.618 C 289.562 5.915,289.724 5.952,290.600 5.756 C 292.071 5.427,292.390 5.198,291.367 5.206 C 290.945 5.209,290.330 5.395,290.000 5.618 M270.500 12.012 C 269.161 12.551,269.411 12.824,270.800 12.340 C 271.460 12.110,272.000 11.849,272.000 11.761 C 272.000 11.524,271.513 11.605,270.500 12.012 M266.600 13.703 L 265.800 14.504 266.800 13.998 C 268.083 13.348,268.116 13.316,267.727 13.091 C 267.547 12.987,267.040 13.263,266.600 13.703 M319.200 13.776 C 319.200 14.093,319.380 14.464,319.600 14.600 C 319.820 14.736,320.000 14.477,320.000 14.024 C 320.000 13.571,319.820 13.200,319.600 13.200 C 319.380 13.200,319.200 13.459,319.200 13.776 M318.872 16.450 C 318.832 17.248,318.705 18.508,318.589 19.250 C 318.397 20.485,318.415 20.516,318.808 19.615 C 319.044 19.074,319.171 17.814,319.091 16.815 C 318.962 15.218,318.936 15.175,318.872 16.450 M237.275 32.016 C 236.794 32.464,236.400 32.946,236.400 33.085 C 236.400 33.225,236.850 32.917,237.400 32.400 C 238.338 31.519,238.571 31.200,238.275 31.200 C 238.207 31.200,237.757 31.567,237.275 32.016 M315.654 34.067 C 315.625 34.434,315.484 35.064,315.341 35.467 C 315.141 36.033,315.195 36.096,315.575 35.746 C 315.846 35.497,315.987 34.867,315.888 34.346 C 315.790 33.826,315.684 33.700,315.654 34.067 M233.200 35.800 C 232.228 36.790,231.523 37.600,231.633 37.600 C 231.743 37.600,232.628 36.790,233.600 35.800 C 234.572 34.810,235.277 34.000,235.167 34.000 C 235.057 34.000,234.172 34.810,233.200 35.800 M312.104 45.800 C 311.868 46.570,311.816 47.200,311.987 47.200 C 312.303 47.200,312.921 44.788,312.670 44.536 C 312.595 44.462,312.341 45.031,312.104 45.800 M210.263 67.683 C 209.938 68.925,210.185 68.989,210.726 67.802 C 210.977 67.251,211.028 66.800,210.838 66.800 C 210.648 66.800,210.389 67.197,210.263 67.683 M287.592 84.700 L 283.800 88.600 287.700 84.808 C 289.845 82.722,291.600 80.967,291.600 80.908 C 291.600 80.618,291.114 81.078,287.592 84.700 M203.867 85.467 C 203.720 85.613,203.600 86.153,203.600 86.667 C 203.600 87.180,203.409 87.600,203.176 87.600 C 202.943 87.600,202.871 87.792,203.016 88.027 C 203.385 88.623,203.619 88.288,203.993 86.632 C 204.328 85.147,204.314 85.019,203.867 85.467 M200.688 102.133 C 200.242 103.266,200.315 103.845,200.838 103.322 C 201.078 103.082,201.208 102.551,201.126 102.142 C 200.982 101.426,200.966 101.426,200.688 102.133 M200.520 106.000 C 200.520 107.210,200.595 107.705,200.687 107.100 C 200.778 106.495,200.778 105.505,200.687 104.900 C 200.595 104.295,200.520 104.790,200.520 106.000 M255.900 106.032 C 255.515 106.256,255.203 106.656,255.206 106.920 C 255.210 107.252,255.303 107.266,255.506 106.966 C 255.668 106.727,256.160 106.327,256.600 106.078 C 257.040 105.828,257.220 105.624,257.000 105.624 C 256.780 105.624,256.285 105.808,255.900 106.032 M249.000 109.021 L 247.800 109.567 249.000 109.327 C 250.287 109.070,250.631 108.896,250.367 108.637 C 250.275 108.547,249.660 108.720,249.000 109.021 M199.600 110.600 C 199.600 111.590,199.780 112.400,200.000 112.400 C 200.220 112.400,200.400 111.590,200.400 110.600 C 200.400 109.610,200.220 108.800,200.000 108.800 C 199.780 108.800,199.600 109.610,199.600 110.600 M232.800 114.000 L 231.800 114.320 232.876 114.360 C 233.468 114.382,234.064 114.220,234.200 114.000 C 234.481 113.545,234.220 113.545,232.800 114.000 M224.057 115.956 C 223.679 116.196,223.649 116.383,223.957 116.574 C 224.201 116.724,224.400 116.669,224.400 116.451 C 224.400 116.234,224.805 115.978,225.300 115.882 C 226.076 115.733,226.090 115.702,225.400 115.661 C 224.960 115.634,224.356 115.767,224.057 115.956 M199.867 116.667 C 199.448 117.085,199.555 118.800,200.000 118.800 C 200.220 118.800,200.400 118.260,200.400 117.600 C 200.400 116.357,200.319 116.215,199.867 116.667 M215.300 117.476 C 215.685 117.576,216.315 117.576,216.700 117.476 C 217.085 117.375,216.770 117.293,216.000 117.293 C 215.230 117.293,214.915 117.375,215.300 117.476 M209.200 118.400 C 209.200 118.620,209.470 118.800,209.800 118.800 C 210.130 118.800,210.400 118.620,210.400 118.400 C 210.400 118.180,210.130 118.000,209.800 118.000 C 209.470 118.000,209.200 118.180,209.200 118.400 M203.800 118.800 C 203.505 119.278,204.289 119.278,205.400 118.800 C 206.114 118.493,206.085 118.453,205.124 118.428 C 204.532 118.413,203.936 118.580,203.800 118.800 M292.600 158.800 C 292.442 159.055,293.670 159.200,296.000 159.200 C 298.330 159.200,299.558 159.055,299.400 158.800 C 299.264 158.580,297.734 158.400,296.000 158.400 C 294.266 158.400,292.736 158.580,292.600 158.800 M284.000 159.200 C 284.000 159.420,283.415 159.614,282.700 159.632 C 281.985 159.649,281.635 159.757,281.921 159.872 C 282.666 160.170,285.200 159.637,285.200 159.182 C 285.200 158.972,284.930 158.800,284.600 158.800 C 284.270 158.800,284.000 158.980,284.000 159.200 M306.400 159.182 C 306.400 159.637,308.934 160.170,309.679 159.872 C 309.965 159.757,309.615 159.649,308.900 159.632 C 308.185 159.614,307.600 159.420,307.600 159.200 C 307.600 158.980,307.330 158.800,307.000 158.800 C 306.670 158.800,306.400 158.972,306.400 159.182 M278.800 160.000 C 278.312 160.315,278.364 160.389,279.076 160.394 C 279.558 160.397,280.064 160.220,280.200 160.000 C 280.515 159.491,279.588 159.491,278.800 160.000 M272.400 160.800 C 272.400 161.020,272.010 161.200,271.533 161.200 C 271.057 161.200,270.778 161.312,270.915 161.448 C 271.275 161.808,273.200 161.256,273.200 160.792 C 273.200 160.577,273.020 160.400,272.800 160.400 C 272.580 160.400,272.400 160.580,272.400 160.800 M317.268 160.750 C 316.894 160.987,317.121 161.164,318.032 161.346 C 318.745 161.489,319.419 161.514,319.531 161.403 C 319.642 161.291,319.433 161.200,319.067 161.200 C 318.700 161.200,318.400 161.020,318.400 160.800 C 318.400 160.315,317.983 160.296,317.268 160.750 M112.200 162.000 C 112.064 162.220,112.323 162.400,112.776 162.400 C 113.229 162.400,113.600 162.220,113.600 162.000 C 113.600 161.780,113.341 161.600,113.024 161.600 C 112.707 161.600,112.336 161.780,112.200 162.000 M127.000 162.000 C 127.136 162.220,127.607 162.400,128.047 162.400 C 128.487 162.400,128.736 162.220,128.600 162.000 C 128.464 161.780,127.993 161.600,127.553 161.600 C 127.113 161.600,126.864 161.780,127.000 162.000 M133.200 162.400 C 133.200 162.620,133.470 162.800,133.800 162.800 C 134.130 162.800,134.400 162.620,134.400 162.400 C 134.400 162.180,134.130 162.000,133.800 162.000 C 133.470 162.000,133.200 162.180,133.200 162.400 M324.763 162.556 C 325.263 163.158,327.312 163.704,326.964 163.142 C 326.848 162.954,326.403 162.800,325.976 162.800 C 325.549 162.800,325.200 162.620,325.200 162.400 C 325.200 162.180,324.998 162.000,324.751 162.000 C 324.425 162.000,324.428 162.152,324.763 162.556 M104.500 163.076 C 104.885 163.176,105.515 163.176,105.900 163.076 C 106.285 162.975,105.970 162.893,105.200 162.893 C 104.430 162.893,104.115 162.975,104.500 163.076 M135.300 163.076 C 135.685 163.176,136.315 163.176,136.700 163.076 C 137.085 162.975,136.770 162.893,136.000 162.893 C 135.230 162.893,134.915 162.975,135.300 163.076 M262.190 163.216 C 262.021 163.489,262.323 163.538,263.066 163.360 C 264.599 162.992,264.744 162.800,263.490 162.800 C 262.917 162.800,262.332 162.987,262.190 163.216 M143.600 163.973 C 143.600 164.345,143.990 164.500,146.134 164.979 C 146.872 165.144,147.177 165.087,147.010 164.816 C 146.868 164.587,146.223 164.400,145.576 164.400 C 144.929 164.400,144.400 164.220,144.400 164.000 C 144.400 163.780,144.220 163.600,144.000 163.600 C 143.780 163.600,143.600 163.768,143.600 163.973 M259.200 163.933 C 259.200 164.190,258.851 164.400,258.424 164.400 C 257.997 164.400,257.552 164.554,257.436 164.742 C 257.319 164.930,257.671 164.999,258.218 164.894 C 259.256 164.696,259.851 164.118,259.440 163.707 C 259.308 163.575,259.200 163.677,259.200 163.933 M94.645 164.728 C 94.533 164.908,94.973 164.977,95.621 164.882 C 96.270 164.787,96.800 164.640,96.800 164.555 C 96.800 164.250,94.843 164.407,94.645 164.728 M334.400 165.734 C 334.400 165.837,334.981 166.124,335.691 166.372 C 336.401 166.619,336.806 166.657,336.591 166.456 C 336.135 166.029,334.400 165.458,334.400 165.734 M88.600 166.400 C 88.308 166.873,88.699 166.873,89.800 166.400 C 90.571 166.069,90.569 166.055,89.724 166.028 C 89.242 166.013,88.736 166.180,88.600 166.400 M152.200 166.400 C 153.301 166.873,153.692 166.873,153.400 166.400 C 153.264 166.180,152.758 166.013,152.276 166.028 C 151.431 166.055,151.429 166.069,152.200 166.400 M338.800 167.157 C 338.800 167.664,340.377 168.556,340.701 168.232 C 340.829 168.105,340.736 168.000,340.495 168.000 C 340.254 168.000,339.774 167.717,339.429 167.371 C 339.083 167.026,338.800 166.929,338.800 167.157 M247.400 168.000 C 247.108 168.473,247.499 168.473,248.600 168.000 C 249.371 167.669,249.369 167.655,248.524 167.628 C 248.042 167.613,247.536 167.780,247.400 168.000 M244.400 168.733 C 244.400 168.990,244.051 169.200,243.624 169.200 C 243.197 169.200,242.724 169.399,242.574 169.643 C 242.386 169.946,242.599 169.995,243.250 169.798 C 244.424 169.442,245.035 168.902,244.673 168.540 C 244.523 168.390,244.400 168.477,244.400 168.733 M237.300 171.082 C 236.805 171.178,236.400 171.414,236.400 171.607 C 236.400 171.800,236.985 171.761,237.700 171.520 C 239.783 170.817,239.618 170.636,237.300 171.082 M223.200 175.613 C 223.200 175.826,222.840 176.000,222.400 176.000 C 221.960 176.000,221.600 176.171,221.600 176.379 C 221.600 176.606,222.123 176.582,222.900 176.320 C 224.541 175.766,224.561 175.747,223.817 175.462 C 223.478 175.332,223.200 175.399,223.200 175.613 M218.400 177.176 C 218.400 177.409,218.051 177.600,217.624 177.600 C 217.197 177.600,216.724 177.799,216.574 178.043 C 216.386 178.347,216.598 178.394,217.250 178.194 C 218.862 177.700,219.354 177.343,218.851 177.032 C 218.603 176.878,218.400 176.943,218.400 177.176 M186.446 177.380 C 186.581 177.514,187.289 177.796,188.019 178.005 C 188.749 178.215,189.178 178.232,188.973 178.045 C 188.548 177.656,186.071 177.004,186.446 177.380 M213.600 178.733 C 213.600 178.990,213.251 179.200,212.824 179.200 C 212.397 179.200,211.952 179.354,211.836 179.542 C 211.719 179.730,212.071 179.799,212.618 179.694 C 213.656 179.496,214.251 178.918,213.840 178.507 C 213.708 178.375,213.600 178.477,213.600 178.733 M201.600 182.382 C 201.930 182.605,202.545 182.791,202.967 182.794 C 203.990 182.802,203.671 182.573,202.200 182.244 C 201.324 182.048,201.162 182.085,201.600 182.382 M368.000 185.725 C 368.000 185.794,368.585 186.379,369.300 187.025 L 370.600 188.200 369.425 186.900 C 368.330 185.688,368.000 185.416,368.000 185.725 M49.054 189.033 C 48.423 189.587,47.987 190.120,48.083 190.216 C 48.179 190.313,48.774 189.854,49.404 189.196 C 50.796 187.743,50.616 187.659,49.054 189.033 M380.229 198.481 C 380.857 199.296,381.458 199.875,381.565 199.769 C 381.672 199.662,381.158 198.995,380.423 198.287 L 379.087 197.000 380.229 198.481 M381.999 209.049 L 381.000 209.633 382.000 209.367 C 383.114 209.070,383.414 208.881,383.166 208.633 C 383.074 208.541,382.549 208.728,381.999 209.049 M362.391 223.500 L 359.000 227.000 362.500 223.609 C 365.751 220.459,366.182 220.000,365.891 220.000 C 365.831 220.000,364.256 221.575,362.391 223.500 M21.800 222.800 C 21.459 223.460,21.269 224.000,21.379 224.000 C 21.489 224.000,21.859 223.460,22.200 222.800 C 22.541 222.140,22.731 221.600,22.621 221.600 C 22.511 221.600,22.141 222.140,21.800 222.800 M10.379 246.255 C 10.158 246.836,10.052 247.385,10.143 247.476 C 10.233 247.567,10.499 247.092,10.733 246.420 C 11.253 244.928,10.939 244.782,10.379 246.255 M340.400 259.703 C 340.400 259.759,340.223 260.422,340.007 261.176 C 339.791 261.929,339.768 262.378,339.955 262.173 C 340.364 261.726,340.903 259.600,340.608 259.600 C 340.493 259.600,340.400 259.646,340.400 259.703 M5.449 261.815 C 5.312 262.173,5.215 262.766,5.234 263.133 C 5.253 263.500,5.427 263.269,5.621 262.620 C 5.998 261.358,5.865 260.733,5.449 261.815 M338.454 266.467 C 338.425 266.834,338.284 267.464,338.141 267.867 C 337.941 268.433,337.995 268.496,338.375 268.146 C 338.646 267.897,338.787 267.267,338.688 266.746 C 338.590 266.226,338.484 266.100,338.454 266.467 M3.849 268.615 C 3.712 268.973,3.600 269.701,3.600 270.233 C 3.600 270.765,3.420 271.200,3.200 271.200 C 2.980 271.200,2.800 271.506,2.800 271.880 C 2.800 273.159,3.681 271.745,4.013 269.932 C 4.346 268.114,4.272 267.515,3.849 268.615 M336.860 273.667 C 336.827 274.254,336.696 275.064,336.570 275.467 C 336.352 276.160,336.365 276.161,336.795 275.490 C 337.046 275.099,337.177 274.289,337.086 273.690 L 336.920 272.600 336.860 273.667 M2.446 276.667 C 2.421 276.924,2.284 277.464,2.141 277.867 C 1.940 278.436,1.994 278.497,2.379 278.142 C 2.652 277.891,2.789 277.351,2.684 276.942 C 2.579 276.534,2.472 276.410,2.446 276.667 M336.292 277.442 C 336.131 277.602,336.000 278.009,336.000 278.347 C 336.000 278.797,336.118 278.842,336.445 278.515 C 336.690 278.270,336.821 277.863,336.737 277.610 C 336.652 277.357,336.452 277.281,336.292 277.442 M335.293 284.000 C 335.293 284.770,335.375 285.085,335.476 284.700 C 335.576 284.315,335.576 283.685,335.476 283.300 C 335.375 282.915,335.293 283.230,335.293 284.000 M0.800 286.600 C 0.800 286.930,0.980 287.200,1.200 287.200 C 1.420 287.200,1.600 286.930,1.600 286.600 C 1.600 286.270,1.420 286.000,1.200 286.000 C 0.980 286.000,0.800 286.270,0.800 286.600 M335.088 286.533 C 334.930 286.936,334.811 287.656,334.825 288.133 C 334.849 288.956,334.871 288.950,335.240 288.025 C 335.454 287.489,335.573 286.769,335.503 286.425 C 335.399 285.911,335.325 285.930,335.088 286.533 M0.641 292.727 C 0.465 293.677,0.420 294.553,0.541 294.674 C 0.871 295.005,1.288 293.017,1.114 291.941 C 1.002 291.246,0.878 291.452,0.641 292.727 M334.700 294.228 C 334.535 294.396,334.420 295.628,334.444 296.967 L 334.488 299.400 334.850 297.600 C 335.251 295.613,335.168 293.752,334.700 294.228 M0.554 303.200 C 0.554 305.950,0.618 307.075,0.696 305.700 C 0.774 304.325,0.774 302.075,0.696 300.700 C 0.618 299.325,0.554 300.450,0.554 303.200 M334.428 302.476 C 334.413 303.728,334.580 304.864,334.800 305.000 C 335.292 305.304,335.292 302.144,334.800 301.000 C 334.552 300.423,334.448 300.835,334.428 302.476 M334.834 309.800 C 334.822 310.240,334.987 310.870,335.200 311.200 C 335.714 311.995,335.714 310.996,335.200 309.800 L 334.856 309.000 334.834 309.800 M0.487 311.600 C 0.491 312.370,0.632 313.540,0.800 314.200 C 1.090 315.342,1.106 315.322,1.113 313.800 C 1.117 312.920,0.976 311.750,0.800 311.200 C 0.511 310.298,0.480 310.337,0.487 311.600 M335.293 313.200 C 335.293 313.970,335.375 314.285,335.476 313.900 C 335.576 313.515,335.576 312.885,335.476 312.500 C 335.375 312.115,335.293 312.430,335.293 313.200 M0.800 319.753 C 0.800 320.083,0.980 320.464,1.200 320.600 C 1.420 320.736,1.600 320.577,1.600 320.247 C 1.600 319.917,1.420 319.536,1.200 319.400 C 0.980 319.264,0.800 319.423,0.800 319.753 M336.853 322.000 C 336.792 322.907,337.440 323.782,337.774 323.243 C 337.924 322.999,337.870 322.800,337.653 322.800 C 337.436 322.800,337.176 322.485,337.076 322.100 C 336.946 321.604,336.881 321.575,336.853 322.000 M2.006 327.833 C 2.009 328.915,2.181 330.067,2.387 330.392 C 2.630 330.777,2.679 330.146,2.525 328.592 C 2.230 325.598,1.998 325.259,2.006 327.833 M3.606 338.433 C 3.609 339.185,3.792 340.070,4.012 340.400 C 4.291 340.819,4.333 340.458,4.150 339.200 C 3.825 336.959,3.598 336.640,3.606 338.433 M6.800 354.110 C 6.800 354.683,6.987 355.268,7.216 355.410 C 7.489 355.579,7.538 355.277,7.360 354.534 C 6.992 353.001,6.800 352.856,6.800 354.110 M9.911 366.296 C 9.774 366.823,9.901 367.230,10.244 367.362 C 10.857 367.597,10.894 367.383,10.439 366.221 C 10.146 365.472,10.126 365.474,9.911 366.296 M11.462 371.783 C 11.332 372.122,11.399 372.400,11.613 372.400 C 11.826 372.400,12.000 372.749,12.000 373.176 C 12.000 373.603,12.166 374.055,12.369 374.181 C 12.580 374.311,12.562 373.764,12.327 372.904 C 11.829 371.082,11.764 370.997,11.462 371.783 M369.233 374.500 C 369.325 374.555,369.935 375.050,370.588 375.600 C 371.473 376.345,371.626 376.396,371.188 375.800 C 370.494 374.856,369.939 374.415,369.433 374.406 C 369.232 374.403,369.142 374.445,369.233 374.500 M13.190 377.063 C 13.416 377.175,13.600 377.601,13.600 378.010 C 13.600 378.418,13.765 378.855,13.966 378.979 C 14.179 379.110,14.212 378.754,14.044 378.129 C 13.886 377.537,13.537 377.009,13.268 376.956 C 13.000 376.903,12.965 376.952,13.190 377.063 M14.700 381.865 C 14.975 381.976,15.200 382.401,15.200 382.810 C 15.200 383.218,15.380 383.664,15.600 383.800 C 16.099 384.108,16.101 383.917,15.610 382.626 C 15.395 382.062,14.990 381.614,14.710 381.632 C 14.309 381.656,14.307 381.706,14.700 381.865 M387.200 386.979 C 387.200 387.089,387.740 387.459,388.400 387.800 C 389.060 388.141,389.600 388.331,389.600 388.221 C 389.600 388.111,389.060 387.741,388.400 387.400 C 387.740 387.059,387.200 386.869,387.200 386.979 M394.576 391.020 C 395.436 391.662,396.168 391.796,395.830 391.248 C 395.710 391.055,395.205 390.794,394.706 390.668 C 393.832 390.448,393.827 390.460,394.576 391.020 M397.600 391.989 C 397.600 392.199,397.965 392.567,398.411 392.806 C 398.857 393.045,399.100 393.439,398.949 393.682 C 398.785 393.948,398.860 394.010,399.138 393.838 C 399.747 393.462,399.754 393.478,398.600 392.475 C 398.050 391.997,397.600 391.778,397.600 391.989 M19.590 395.063 C 19.816 395.175,20.000 395.511,20.000 395.810 C 20.000 396.108,20.178 396.463,20.395 396.597 C 20.645 396.751,20.668 396.512,20.456 395.941 C 20.273 395.446,19.911 395.000,19.652 394.951 C 19.392 394.901,19.365 394.952,19.590 395.063 M397.726 397.100 C 397.589 397.485,397.387 397.963,397.277 398.162 C 397.166 398.361,397.284 398.395,397.538 398.238 C 397.792 398.081,398.000 397.708,398.000 397.410 C 398.000 397.111,398.225 396.776,398.500 396.665 C 398.892 396.507,398.889 396.456,398.487 396.432 C 398.206 396.414,397.863 396.715,397.726 397.100 M22.790 403.063 C 23.016 403.175,23.200 403.511,23.200 403.810 C 23.200 404.108,23.378 404.463,23.595 404.597 C 23.845 404.751,23.868 404.512,23.656 403.941 C 23.473 403.446,23.111 403.000,22.852 402.951 C 22.592 402.901,22.565 402.952,22.790 403.063 M25.073 408.200 C 25.330 409.487,25.504 409.831,25.763 409.567 C 25.853 409.475,25.680 408.860,25.379 408.200 L 24.833 407.000 25.073 408.200 M392.467 410.380 C 392.233 411.051,392.191 411.600,392.374 411.600 C 392.691 411.600,393.259 409.532,393.011 409.280 C 392.946 409.213,392.701 409.708,392.467 410.380 M26.504 411.799 C 26.741 412.570,27.075 413.200,27.246 413.200 C 27.618 413.200,26.864 410.886,26.398 410.599 C 26.220 410.489,26.268 411.029,26.504 411.799 M390.867 414.380 C 390.633 415.051,390.527 415.600,390.631 415.600 C 390.901 415.600,391.656 413.522,391.457 413.324 C 391.367 413.233,391.101 413.708,390.867 414.380 M33.033 425.600 C 33.330 426.714,33.519 427.014,33.767 426.766 C 33.859 426.674,33.672 426.149,33.351 425.599 L 32.767 424.600 33.033 425.600 M54.100 462.797 C 54.485 463.040,54.800 463.501,54.800 463.820 C 54.800 464.139,55.002 464.400,55.249 464.400 C 55.861 464.400,54.707 462.689,53.966 462.499 C 53.649 462.417,53.708 462.548,54.100 462.797 M62.754 474.736 C 63.199 475.360,63.879 476.125,64.265 476.436 C 64.652 476.746,64.360 476.235,63.617 475.300 C 62.091 473.380,61.525 473.010,62.754 474.736 M74.483 488.700 C 74.753 489.085,76.779 491.107,78.986 493.192 L 83.000 496.985 78.607 492.492 C 74.178 487.964,73.588 487.421,74.483 488.700 M84.000 497.725 C 84.000 497.794,84.585 498.379,85.300 499.025 L 86.600 500.200 85.425 498.900 C 84.330 497.688,84.000 497.416,84.000 497.725 M208.200 499.200 C 207.908 499.672,210.125 499.672,211.600 499.200 C 212.390 498.947,212.164 498.871,210.524 498.840 C 209.382 498.818,208.336 498.980,208.200 499.200 M201.600 499.621 C 201.170 499.914,201.454 499.954,202.600 499.762 C 204.584 499.430,204.904 499.198,203.367 499.206 C 202.725 499.209,201.930 499.396,201.600 499.621 M198.900 499.876 C 199.285 499.976,199.915 499.976,200.300 499.876 C 200.685 499.775,200.370 499.693,199.600 499.693 C 198.830 499.693,198.515 499.775,198.900 499.876 M190.200 501.200 C 189.111 501.477,189.093 501.507,190.000 501.525 C 190.550 501.535,191.360 501.389,191.800 501.200 C 192.786 500.776,191.866 500.776,190.200 501.200 M229.600 501.200 C 229.930 501.413,230.650 501.573,231.200 501.554 L 232.200 501.520 231.200 501.200 C 229.658 500.706,228.836 500.706,229.600 501.200 M330.400 502.454 L 328.600 504.085 330.294 502.813 C 331.768 501.707,332.714 500.774,332.324 500.812 C 332.256 500.819,331.390 501.558,330.400 502.454 M236.600 502.719 C 236.820 502.925,237.630 503.205,238.400 503.340 C 240.032 503.627,239.235 503.057,237.400 502.626 C 236.647 502.448,236.349 502.483,236.600 502.719 M325.600 506.020 L 324.600 506.822 325.700 506.347 C 326.305 506.085,326.800 505.720,326.800 505.536 C 326.800 505.079,326.745 505.102,325.600 506.020 M247.800 505.919 C 248.020 506.125,248.830 506.405,249.600 506.540 C 251.232 506.827,250.435 506.257,248.600 505.826 C 247.847 505.648,247.549 505.683,247.800 505.919 M169.800 507.814 C 168.795 508.298,168.763 508.353,169.600 508.151 C 170.150 508.019,170.771 507.750,170.980 507.555 C 171.498 507.071,171.214 507.133,169.800 507.814 M262.400 510.787 C 262.400 511.103,264.812 511.721,265.064 511.470 C 265.138 511.395,264.569 511.141,263.800 510.904 C 263.030 510.668,262.400 510.616,262.400 510.787 M108.400 513.974 C 108.400 514.291,110.468 514.859,110.720 514.611 C 110.787 514.546,110.292 514.301,109.620 514.067 C 108.949 513.833,108.400 513.791,108.400 513.974 M154.000 514.250 L 152.600 514.793 154.000 514.550 C 155.435 514.300,155.860 514.112,155.567 513.853 C 155.475 513.773,154.770 513.951,154.000 514.250 M273.600 514.382 C 273.930 514.605,274.545 514.791,274.967 514.794 C 275.990 514.802,275.671 514.573,274.200 514.244 C 273.324 514.048,273.162 514.085,273.600 514.382 M148.000 516.000 C 147.176 516.264,147.141 516.326,147.800 516.354 C 148.240 516.373,148.870 516.213,149.200 516.000 C 149.901 515.547,149.414 515.547,148.000 516.000 M288.890 517.264 C 289.543 517.679,296.690 517.701,296.945 517.289 C 297.050 517.119,295.166 516.970,292.758 516.960 C 290.350 516.949,288.610 517.086,288.890 517.264 M140.600 517.600 C 140.308 518.073,140.699 518.073,141.800 517.600 C 142.571 517.269,142.569 517.255,141.724 517.228 C 141.242 517.213,140.736 517.380,140.600 517.600 " stroke="none" fill="#575757" fill-rule="evenodd"></path><path id="path3" d="M319.628 0.300 C 319.738 1.473,320.346 2.126,320.372 1.100 C 320.387 0.495,320.220 0.000,320.000 0.000 C 319.780 0.000,319.613 0.135,319.628 0.300 M319.905 6.400 C 319.418 8.055,319.535 10.090,320.044 8.814 C 320.261 8.272,320.384 7.282,320.319 6.614 C 320.202 5.422,320.195 5.418,319.905 6.400 M245.293 25.380 C 244.126 26.024,243.756 26.400,244.289 26.400 C 244.521 26.400,245.136 26.046,245.656 25.613 C 246.726 24.722,246.614 24.650,245.293 25.380 M240.733 28.728 C 240.366 28.878,239.659 29.540,239.161 30.200 L 238.256 31.400 239.628 30.203 C 240.383 29.545,241.171 28.870,241.380 28.703 C 241.826 28.347,241.651 28.354,240.733 28.728 M297.037 74.200 C 296.676 74.750,296.537 75.200,296.727 75.200 C 296.916 75.200,297.277 74.750,297.527 74.200 C 297.778 73.650,297.917 73.200,297.837 73.200 C 297.757 73.200,297.397 73.650,297.037 74.200 M295.280 76.480 C 294.716 77.044,294.653 77.600,295.153 77.600 C 295.348 77.600,295.601 77.240,295.716 76.800 C 295.960 75.866,295.922 75.838,295.280 76.480 M291.427 81.015 C 290.777 82.007,290.781 82.019,291.581 81.519 C 292.031 81.238,292.400 80.781,292.400 80.504 C 292.400 79.761,292.169 79.882,291.427 81.015 M283.585 88.802 L 282.200 90.005 283.494 89.302 C 284.205 88.916,284.875 88.375,284.981 88.100 C 285.255 87.394,285.141 87.451,283.585 88.802 M199.600 107.400 C 199.600 107.730,199.780 108.000,200.000 108.000 C 200.220 108.000,200.400 107.730,200.400 107.400 C 200.400 107.070,200.220 106.800,200.000 106.800 C 199.780 106.800,199.600 107.070,199.600 107.400 M289.400 158.800 C 289.256 159.033,289.663 159.200,290.376 159.200 C 291.049 159.200,291.600 159.020,291.600 158.800 C 291.600 158.580,291.161 158.400,290.624 158.400 C 290.087 158.400,289.536 158.580,289.400 158.800 M300.400 158.800 C 300.400 159.020,300.861 159.200,301.424 159.200 C 302.004 159.200,302.340 159.027,302.200 158.800 C 302.064 158.580,301.603 158.400,301.176 158.400 C 300.749 158.400,300.400 158.580,300.400 158.800 M110.200 162.000 C 110.064 162.220,110.223 162.400,110.553 162.400 C 110.883 162.400,111.264 162.220,111.400 162.000 C 111.536 161.780,111.377 161.600,111.047 161.600 C 110.717 161.600,110.336 161.780,110.200 162.000 M118.900 161.891 C 119.725 161.978,121.075 161.978,121.900 161.891 C 122.725 161.805,122.050 161.734,120.400 161.734 C 118.750 161.734,118.075 161.805,118.900 161.891 M129.400 162.000 C 129.536 162.220,129.917 162.400,130.247 162.400 C 130.577 162.400,130.736 162.220,130.600 162.000 C 130.464 161.780,130.083 161.600,129.753 161.600 C 129.423 161.600,129.264 161.780,129.400 162.000 M60.108 179.741 C 59.617 179.984,59.123 180.423,59.011 180.717 C 58.892 181.026,59.308 180.893,60.003 180.398 C 60.939 179.731,61.664 178.972,61.100 179.249 C 61.045 179.276,60.598 179.497,60.108 179.741 M55.900 182.676 C 55.515 182.776,55.200 183.025,55.200 183.229 C 55.200 183.794,55.843 183.672,56.400 183.000 C 56.674 182.670,56.831 182.421,56.749 182.446 C 56.667 182.472,56.285 182.575,55.900 182.676 M44.175 193.700 L 43.000 195.000 44.300 193.825 C 45.015 193.179,45.600 192.594,45.600 192.525 C 45.600 192.216,45.270 192.488,44.175 193.700 M377.400 194.821 C 378.500 196.039,379.449 197.008,379.509 196.975 C 379.847 196.789,378.884 195.604,377.256 194.204 L 375.400 192.607 377.400 194.821 M37.033 201.057 C 36.652 202.050,37.072 202.186,37.582 201.234 C 37.827 200.775,37.861 200.400,37.657 200.400 C 37.453 200.400,37.172 200.696,37.033 201.057 M31.116 208.629 C 30.832 208.974,30.285 209.604,29.900 210.029 C 29.515 210.453,29.359 210.800,29.553 210.800 C 29.746 210.800,30.386 210.170,30.973 209.400 C 32.017 208.031,32.137 207.384,31.116 208.629 M362.239 224.000 C 361.197 225.100,360.493 225.997,360.673 225.994 C 361.135 225.985,364.960 222.000,364.506 222.000 C 364.300 222.000,363.280 222.900,362.239 224.000 M357.680 228.880 C 357.116 229.444,357.053 230.000,357.553 230.000 C 357.748 230.000,358.001 229.640,358.116 229.200 C 358.360 228.266,358.322 228.238,357.680 228.880 M334.893 290.800 C 334.893 291.570,334.975 291.885,335.076 291.500 C 335.176 291.115,335.176 290.485,335.076 290.100 C 334.975 289.715,334.893 290.030,334.893 290.800 M360.400 365.358 C 360.400 365.788,362.858 368.075,363.081 367.852 C 363.223 367.711,362.735 367.056,361.997 366.397 C 360.683 365.225,360.400 365.040,360.400 365.358 M363.399 368.798 C 363.966 369.716,365.293 370.121,364.816 369.230 C 364.572 368.774,364.098 368.400,363.762 368.400 C 363.427 368.400,363.263 368.579,363.399 368.798 M345.178 488.664 L 343.800 490.128 345.300 488.964 C 346.125 488.324,346.800 487.665,346.800 487.500 C 346.800 487.005,346.617 487.136,345.178 488.664 M78.000 492.600 C 78.746 493.370,79.447 494.000,79.557 494.000 C 79.667 494.000,79.146 493.370,78.400 492.600 C 77.654 491.830,76.953 491.200,76.843 491.200 C 76.733 491.200,77.254 491.830,78.000 492.600 M80.737 495.478 C 81.214 496.375,81.937 496.996,82.199 496.734 C 82.279 496.654,81.878 496.141,81.308 495.594 C 80.350 494.677,80.306 494.668,80.737 495.478 M213.200 499.200 C 212.138 499.423,212.603 499.507,215.124 499.547 C 217.250 499.581,218.358 499.456,218.200 499.200 C 217.923 498.752,215.329 498.752,213.200 499.200 M85.837 500.151 C 85.957 500.465,86.403 500.812,86.828 500.923 C 87.751 501.165,87.470 500.573,86.387 499.993 C 85.779 499.668,85.664 499.701,85.837 500.151 M332.963 500.700 C 332.299 501.305,332.050 501.575,332.409 501.300 C 332.769 501.025,333.255 500.800,333.489 500.800 C 333.723 500.800,334.018 500.530,334.145 500.200 C 334.457 499.387,334.357 499.429,332.963 500.700 M287.200 517.200 C 287.530 517.413,288.070 517.588,288.400 517.588 C 288.933 517.588,288.933 517.545,288.400 517.200 C 288.070 516.987,287.530 516.812,287.200 516.812 C 286.667 516.812,286.667 516.855,287.200 517.200 " stroke="none" fill="#7c7c7c" fill-rule="evenodd"></path><path id="path4" d="M319.758 3.682 C 319.781 5.377,319.922 6.457,320.072 6.082 C 320.440 5.157,320.416 2.384,320.030 1.400 C 319.841 0.917,319.733 1.822,319.758 3.682 M334.684 298.450 C 334.562 299.357,334.617 300.482,334.806 300.950 C 335.054 301.563,335.156 301.104,335.175 299.300 C 335.204 296.419,335.003 296.071,334.684 298.450 M365.200 370.324 C 365.200 370.539,365.485 370.824,365.833 370.957 C 366.223 371.107,366.406 371.018,366.308 370.725 C 366.109 370.127,365.200 369.798,365.200 370.324 " stroke="none" fill="#747474" fill-rule="evenodd"></path></g></svg>